<svg width="25" height="25" viewBox="0 0 25 25" fill="none" xmlns="http://www.w3.org/2000/svg">
<path fill-rule="evenodd" clip-rule="evenodd" d="M9.42041 13.9062V12.9062C9.42041 11.2522 10.7664 9.90625 12.4204 9.90625H13.4204V6.57325C13.4204 6.20525 13.1214 5.90625 12.7534 5.90625H6.08741C5.71941 5.90625 5.42041 6.20525 5.42041 6.57325V13.2393C5.42041 13.6073 5.71941 13.9062 6.08741 13.9062H9.42041ZM9.42041 15.9062H6.08741C4.61641 15.9062 3.42041 14.7102 3.42041 13.2393V6.57325C3.42041 5.10225 4.61641 3.90625 6.08741 3.90625H12.7534C14.2244 3.90625 15.4204 5.10225 15.4204 6.57325V9.90625H18.4204C20.0744 9.90625 21.4204 11.2522 21.4204 12.9062V18.9062C21.4204 20.5602 20.0744 21.9062 18.4204 21.9062H12.4204C10.7664 21.9062 9.42041 20.5602 9.42041 18.9062V15.9062ZM12.4204 11.9062C11.8694 11.9062 11.4204 12.3552 11.4204 12.9062V18.9062C11.4204 19.4572 11.8694 19.9062 12.4204 19.9062H18.4204C18.9724 19.9062 19.4204 19.4572 19.4204 18.9062V12.9062C19.4204 12.3552 18.9724 11.9062 18.4204 11.9062H12.4204Z" fill="#E2B578"/>
<mask id="mask0_1476_26690" style="mask-type:alpha" maskUnits="userSpaceOnUse" x="3" y="3" width="19" height="19">
<path fill-rule="evenodd" clip-rule="evenodd" d="M9.42041 13.9062V12.9062C9.42041 11.2522 10.7664 9.90625 12.4204 9.90625H13.4204V6.57325C13.4204 6.20525 13.1214 5.90625 12.7534 5.90625H6.08741C5.71941 5.90625 5.42041 6.20525 5.42041 6.57325V13.2393C5.42041 13.6073 5.71941 13.9062 6.08741 13.9062H9.42041ZM9.42041 15.9062H6.08741C4.61641 15.9062 3.42041 14.7102 3.42041 13.2393V6.57325C3.42041 5.10225 4.61641 3.90625 6.08741 3.90625H12.7534C14.2244 3.90625 15.4204 5.10225 15.4204 6.57325V9.90625H18.4204C20.0744 9.90625 21.4204 11.2522 21.4204 12.9062V18.9062C21.4204 20.5602 20.0744 21.9062 18.4204 21.9062H12.4204C10.7664 21.9062 9.42041 20.5602 9.42041 18.9062V15.9062ZM12.4204 11.9062C11.8694 11.9062 11.4204 12.3552 11.4204 12.9062V18.9062C11.4204 19.4572 11.8694 19.9062 12.4204 19.9062H18.4204C18.9724 19.9062 19.4204 19.4572 19.4204 18.9062V12.9062C19.4204 12.3552 18.9724 11.9062 18.4204 11.9062H12.4204Z" fill="white"/>
</mask>
<g mask="url(#mask0_1476_26690)">
</g>
</svg>
