<svg width="18" height="18" viewBox="0 0 18 18" fill="none" xmlns="http://www.w3.org/2000/svg">
<g clip-path="url(#clip0_1597_18681)">
<path d="M6.52526 5.62415V3.37409C6.52526 3.00135 6.22297 2.69922 5.8502 2.69922C5.47726 2.69922 5.17516 3.00135 5.17516 3.37409V5.17419H3.37526C3.00233 5.17419 2.7002 5.47632 2.7002 5.84906C2.7002 6.222 3.00233 6.5241 3.37526 6.5241H5.62512C6.12217 6.5241 6.52526 6.12122 6.52526 5.62415V5.62415ZM6.52526 12.3742V14.6241C6.52526 14.997 6.22297 15.2991 5.8502 15.2991C5.47726 15.2991 5.17516 14.997 5.17516 14.6241V12.8242H3.37526C3.00233 12.8242 2.7002 12.522 2.7002 12.1491C2.7002 11.7764 3.00233 11.474 3.37526 11.474H5.62512C6.12217 11.474 6.52526 11.8771 6.52526 12.3742V12.3742ZM11.4752 12.3742V14.6241C11.4752 14.997 11.7773 15.2991 12.1502 15.2991C12.523 15.2991 12.8251 14.997 12.8251 14.6241V12.8242H14.6252C14.9979 12.8242 15.3003 12.522 15.3003 12.1491C15.3003 11.7764 14.998 11.474 14.6252 11.474H12.3752C11.8781 11.474 11.4752 11.8771 11.4752 12.3742V12.3742ZM11.4752 5.62415V3.37409C11.4752 3.00135 11.7773 2.69922 12.1502 2.69922C12.523 2.69922 12.8251 3.00135 12.8251 3.37409V5.17419H14.6252C14.9979 5.17419 15.3003 5.47632 15.3003 5.84906C15.3003 6.222 14.998 6.5241 14.6252 6.5241H12.3752C11.8781 6.5241 11.4752 6.12122 11.4752 5.62415V5.62415Z" fill="#E2B578"/>
<path d="M0 16.1998V1.7999C0 0.805749 0.805939 0 1.80009 0H16.2001C17.1942 0 18 0.805749 18 1.7999V16.1999C18 17.194 17.1942 18 16.2001 18H1.80009C0.805939 18 0 17.194 0 16.1998ZM16.2001 1.34994H1.80009C1.48177 1.34994 1.3501 1.48177 1.3501 1.7999V16.1999C1.3501 16.5182 1.48177 16.6501 1.80009 16.6501H16.65V1.7999C16.65 1.48177 16.5182 1.34994 16.2001 1.34994V1.34994Z" fill="#E2B578"/>
</g>
<defs>
<clipPath id="clip0_1597_18681">
<rect width="18" height="18" fill="white"/>
</clipPath>
</defs>
</svg>
