<svg width="18" height="18" viewBox="0 0 18 18" fill="none" xmlns="http://www.w3.org/2000/svg">
<g clip-path="url(#clip0_1597_18678)">
<path d="M0 16.1998V1.7999C0 0.805749 0.805971 0 1.80009 0H16.2C17.1942 0 17.9999 0.805749 17.9999 1.7999V16.1999C17.9999 17.194 17.1942 18 16.2 18H1.80009C0.805971 18 0 17.194 0 16.1998ZM16.2 1.34994H1.80009C1.48177 1.34994 1.34991 1.48177 1.34991 1.7999V16.1999C1.34991 16.5182 1.48177 16.6501 1.80009 16.6501H16.65V1.7999C16.65 1.48177 16.5182 1.34994 16.2 1.34994V1.34994Z" fill="#E2B578"/>
<path d="M2.7002 3.59917V5.84906C2.7002 6.222 3.00233 6.5241 3.37526 6.5241C3.74801 6.5241 4.05014 6.22196 4.05014 5.84906V4.04916H5.8502C6.22294 4.04916 6.52526 3.74687 6.52526 3.37409C6.52526 3.00132 6.22294 2.69922 5.8502 2.69922H3.60015C3.10307 2.69922 2.7002 3.10209 2.7002 3.59917V3.59917ZM15.3001 3.59917V5.84906C15.3001 6.222 14.9979 6.5241 14.6252 6.5241C14.2525 6.5241 13.9501 6.22196 13.9501 5.84906V4.04916H12.1503C11.7773 4.04916 11.4752 3.74687 11.4752 3.37409C11.4752 3.00132 11.7773 2.69922 12.1503 2.69922H14.4001C14.8972 2.69922 15.3001 3.10209 15.3001 3.59917V3.59917ZM2.7002 14.3991V12.149C2.7002 11.7763 3.00233 11.474 3.37526 11.474C3.74801 11.474 4.05014 11.7763 4.05014 12.149V13.9492H5.8502C6.22294 13.9492 6.52526 14.2513 6.52526 14.624C6.52526 14.997 6.22294 15.2991 5.8502 15.2991H3.60015C3.10307 15.2991 2.7002 14.8962 2.7002 14.3991V14.3991ZM14.4001 15.2991H12.1502C11.7773 15.2991 11.4752 14.997 11.4752 14.624C11.4752 14.2513 11.7773 13.9492 12.1502 13.9492H13.9501V12.149C13.9501 11.7763 14.2524 11.474 14.6252 11.474C14.9979 11.474 15.3 11.7763 15.3 12.149V14.3991C15.3001 14.8962 14.8972 15.2991 14.4001 15.2991V15.2991Z" fill="#E2B578"/>
</g>
<defs>
<clipPath id="clip0_1597_18678">
<rect width="18" height="18" fill="white"/>
</clipPath>
</defs>
</svg>
