<svg width="17" height="16" viewBox="0 0 17 16" fill="none" xmlns="http://www.w3.org/2000/svg">
<g clip-path="url(#clip0_221_8428)">
<path d="M5.76172 5.12042L8.58698 3.48926L11.4123 5.12042V8.38275L8.58698 10.0139L5.76172 8.38275V5.12042Z" fill="#E2B578"/>
<path d="M4.85347 4.59851L6.97899 3.36455V2.60866L4.23327 1L1.39062 2.60221V7.30802L4.18483 8.89083L4.84055 8.4709L4.85347 4.59851ZM6.40163 9.71526L8.52951 10.9815L10.7391 9.71526L11.3593 10.079V13.3202L8.50369 15L5.76323 13.3461V10.1546L6.40163 9.71526ZM12.8839 8.89083L15.7136 7.2951V2.61297L12.8839 1L10.1102 2.60437V3.35379L12.2465 4.5942V8.55273L12.8839 8.89083Z" fill="#E2B578"/>
</g>
<defs>
<clipPath id="clip0_221_8428">
<rect width="14" height="14" fill="white" transform="translate(1.55469 1)"/>
</clipPath>
</defs>
</svg>
