<svg width="16" height="16" viewBox="0 0 16 16" fill="none" xmlns="http://www.w3.org/2000/svg">
<g clip-path="url(#clip0_241_8286)">
<path d="M5.20703 5.12042L8.03229 3.48926L10.8576 5.12042V8.38275L8.03229 10.0139L5.20703 8.38275V5.12042Z" fill="#E2B578"/>
<path d="M4.29879 4.59851L6.4243 3.36455V2.60866L3.67858 1L0.835938 2.60221V7.30802L3.63014 8.89083L4.28586 8.4709L4.29879 4.59851ZM5.84694 9.71526L7.97483 10.9815L10.1844 9.71526L10.8046 10.079V13.3202L7.94901 15L5.20854 13.3461V10.1546L5.84694 9.71526ZM12.3293 8.89083L15.159 7.2951V2.61297L12.3293 1L9.55552 2.60437V3.35379L11.6918 4.5942V8.55273L12.3293 8.89083Z" fill="#E2B578"/>
</g>
<defs>
<clipPath id="clip0_241_8286">
<rect width="14" height="14" fill="white" transform="translate(1 1)"/>
</clipPath>
</defs>
</svg>
