<svg width="15" height="15" viewBox="0 0 15 15" fill="none" xmlns="http://www.w3.org/2000/svg">
<path d="M4.26172 4.76007L7.08698 3.12891L9.91225 4.76007V8.0224L7.08698 9.65354L4.26172 8.0224V4.76007Z" fill="white"/>
<path d="M3.35347 4.23914L5.47899 3.00518V2.24928L2.73327 0.640625L-0.109375 2.24283V6.94864L2.68483 8.53146L3.34055 8.11152L3.35347 4.23914ZM4.90163 9.35588L7.02951 10.6221L9.23905 9.35588L9.85926 9.71962V12.9608L7.00369 14.6406L4.26323 12.9867V9.79521L4.90163 9.35588ZM11.3839 8.53146L14.2136 6.93572V2.25359L11.3839 0.640625L8.61021 2.245V2.99442L10.7465 4.23483V8.19336L11.3839 8.53146Z" fill="white"/>
</svg>
