<svg width="33" height="33" viewBox="0 0 33 33" fill="none" xmlns="http://www.w3.org/2000/svg">
<rect width="32" height="32" transform="translate(0.42041 0.90625)" fill="white"/>
<circle cx="16.4204" cy="16.9062" r="12" fill="#E2B578"/>
<path fill-rule="evenodd" clip-rule="evenodd" d="M12.1777 21.1489C11.7872 20.7584 11.7872 20.1252 12.1777 19.7347L19.2488 12.6636C19.6393 12.2731 20.2725 12.2731 20.663 12.6636C21.0535 13.0541 21.0535 13.6873 20.663 14.0778L13.5919 21.1489C13.2014 21.5394 12.5682 21.5394 12.1777 21.1489Z" fill="white"/>
<path fill-rule="evenodd" clip-rule="evenodd" d="M20.663 21.1489C20.2725 21.5394 19.6393 21.5394 19.2488 21.1489L12.1777 14.0778C11.7872 13.6873 11.7872 13.0541 12.1777 12.6636C12.5682 12.2731 13.2014 12.2731 13.5919 12.6636L20.663 19.7347C21.0535 20.1252 21.0535 20.7584 20.663 21.1489Z" fill="white"/>
</svg>
