<svg width="21" height="21" viewBox="0 0 21 21" fill="none" xmlns="http://www.w3.org/2000/svg">
<path d="M2.92069 9.6526C2.92157 7.99564 3.58042 6.40684 4.75238 5.2355C5.92435 4.06416 7.5135 3.40616 9.17047 3.40616C10.0057 3.38253 10.8373 3.52664 11.6159 3.82996C12.3945 4.13329 13.1044 4.58967 13.7035 5.17212C14.3027 5.75457 14.779 6.45126 15.1042 7.22098C15.4294 7.9907 15.597 8.81783 15.597 9.65344C15.597 10.489 15.4294 11.3162 15.1042 12.0859C14.779 12.8556 14.3027 13.5523 13.7035 14.1348C13.1044 14.7172 12.3945 15.1736 11.6159 15.4769C10.8373 15.7802 10.0057 15.9243 9.17047 15.9007C7.51321 15.9007 5.92381 15.2425 4.7518 14.0708C3.57978 12.8991 2.92113 11.3099 2.92069 9.6526ZM19.9534 18.1823L16.5569 14.7808C17.4716 13.4516 18.0057 11.8977 18.1016 10.287C18.1975 8.67632 17.8514 7.07006 17.1008 5.64175C16.3502 4.21344 15.2236 3.01738 13.8426 2.18278C12.4617 1.34818 10.879 0.906777 9.26546 0.90625C6.91763 0.908901 4.66697 1.84389 3.00836 3.50562C1.34976 5.16735 0.41901 7.41977 0.420779 9.7676C0.419903 10.9302 0.648026 12.0816 1.09212 13.156C1.53622 14.2304 2.18759 15.2069 3.00905 16.0296C3.83051 16.8523 4.80597 17.5051 5.87973 17.9508C6.9535 18.3966 8.10453 18.6264 9.26713 18.6273C11.0717 18.6287 12.833 18.0748 14.3119 17.0407L17.7018 20.4372C17.8497 20.5854 18.0253 20.7029 18.2186 20.7831C18.4119 20.8633 18.6192 20.9046 18.8285 20.9046C19.0377 20.9046 19.245 20.8633 19.4383 20.7831C19.6316 20.7029 19.8072 20.5854 19.9551 20.4372C20.2528 20.1375 20.4198 19.7322 20.4198 19.3098C20.4198 18.8873 20.2528 18.482 19.9551 18.1823H19.9534Z" fill="#E0DBD2"/>
</svg>
