<svg width="17" height="17" viewBox="0 0 17 17" fill="none" xmlns="http://www.w3.org/2000/svg">
<path fill-rule="evenodd" clip-rule="evenodd" d="M8.10519 3.00672C9.55985 1.54872 11.9072 1.28539 13.5285 2.55339C15.4705 4.07205 15.5979 6.90205 13.9105 8.59339L12.9619 9.54339C12.6999 9.80605 12.2759 9.80605 12.0139 9.54339C11.7519 9.28139 11.7519 8.85539 12.0139 8.59339L12.9619 7.64272C14.0652 6.53805 14.0052 4.70139 12.7805 3.67605C11.6959 2.76739 10.0679 2.94072 9.06852 3.94205L8.21985 4.79205C7.95852 5.05472 7.53319 5.05472 7.27185 4.79205C7.00985 4.53005 7.00718 4.10672 7.38985 3.72339L8.10519 3.00672ZM9.28245 6.60225L6.61579 9.26892C6.35512 9.52959 6.35512 9.95092 6.61579 10.2116C6.74579 10.3416 6.91645 10.4069 7.08712 10.4069C7.25779 10.4069 7.42845 10.3416 7.55845 10.2116L10.2251 7.54492C10.4858 7.28425 10.4858 6.86292 10.2251 6.60225C9.96445 6.34159 9.54312 6.34159 9.28245 6.60225ZM8.60732 12.0046L7.75798 12.8519C6.75732 13.8499 5.12598 14.0219 4.04065 13.1173C2.81465 12.0959 2.75399 10.2653 3.85865 9.16325L4.80865 8.21659C5.07065 7.95525 5.07065 7.53125 4.80865 7.26925C4.54665 7.00859 4.12132 7.00859 3.85865 7.26925L3.00865 8.11792C1.56065 9.56192 1.30665 11.8846 2.55865 13.5006C4.07265 15.4559 6.91265 15.5879 8.60732 13.8986L9.55732 12.9519C9.81932 12.6899 9.81932 12.2666 9.55732 12.0046C9.29465 11.7426 8.86998 11.7426 8.60732 12.0046Z" fill="white"/>
<mask id="mask0_1476_22825" style="mask-type:alpha" maskUnits="userSpaceOnUse" x="1" y="1" width="15" height="15">
<path fill-rule="evenodd" clip-rule="evenodd" d="M8.10519 3.00672C9.55985 1.54872 11.9072 1.28539 13.5285 2.55339C15.4705 4.07205 15.5979 6.90205 13.9105 8.59339L12.9619 9.54339C12.6999 9.80605 12.2759 9.80605 12.0139 9.54339C11.7519 9.28139 11.7519 8.85539 12.0139 8.59339L12.9619 7.64272C14.0652 6.53805 14.0052 4.70139 12.7805 3.67605C11.6959 2.76739 10.0679 2.94072 9.06852 3.94205L8.21985 4.79205C7.95852 5.05472 7.53319 5.05472 7.27185 4.79205C7.00985 4.53005 7.00718 4.10672 7.38985 3.72339L8.10519 3.00672ZM9.28245 6.60225L6.61579 9.26892C6.35512 9.52959 6.35512 9.95092 6.61579 10.2116C6.74579 10.3416 6.91645 10.4069 7.08712 10.4069C7.25779 10.4069 7.42845 10.3416 7.55845 10.2116L10.2251 7.54492C10.4858 7.28425 10.4858 6.86292 10.2251 6.60225C9.96445 6.34159 9.54312 6.34159 9.28245 6.60225ZM8.60732 12.0046L7.75798 12.8519C6.75732 13.8499 5.12598 14.0219 4.04065 13.1173C2.81465 12.0959 2.75399 10.2653 3.85865 9.16325L4.80865 8.21659C5.07065 7.95525 5.07065 7.53125 4.80865 7.26925C4.54665 7.00859 4.12132 7.00859 3.85865 7.26925L3.00865 8.11792C1.56065 9.56192 1.30665 11.8846 2.55865 13.5006C4.07265 15.4559 6.91265 15.5879 8.60732 13.8986L9.55732 12.9519C9.81932 12.6899 9.81932 12.2666 9.55732 12.0046C9.29465 11.7426 8.86998 11.7426 8.60732 12.0046Z" fill="white"/>
</mask>
<g mask="url(#mask0_1476_22825)">
</g>
</svg>
