<svg width="17" height="16" viewBox="0 0 17 16" fill="none" xmlns="http://www.w3.org/2000/svg">
<g clip-path="url(#clip0_221_8436)">
<path fill-rule="evenodd" clip-rule="evenodd" d="M1.96875 1.54492C1.41647 1.54492 0.96875 1.99264 0.96875 2.54492V4.07422C0.96875 4.6265 1.41647 5.07422 1.96875 5.07422H14.0859C14.6382 5.07422 15.0859 4.6265 15.0859 4.07422V2.54492C15.0859 1.99264 14.6382 1.54492 14.0859 1.54492H1.96875ZM12.6375 2.42676C12.527 2.42676 12.4375 2.5163 12.4375 2.62676V3.99141C12.4375 4.10186 12.527 4.19141 12.6375 4.19141H14.0021C14.1126 4.19141 14.2021 4.10186 14.2021 3.99141V2.62676C14.2021 2.5163 14.1126 2.42676 14.0021 2.42676H12.6375Z" fill="#E2B578"/>
<path fill-rule="evenodd" clip-rule="evenodd" d="M1.96875 5.95605C1.41647 5.95605 0.96875 6.40377 0.96875 6.95605V13.4545C0.96875 14.0067 1.41647 14.4545 1.96875 14.4545H14.0859C14.6382 14.4545 15.0859 14.0067 15.0859 13.4545V6.95605C15.0859 6.40377 14.6382 5.95605 14.0859 5.95605H1.96875ZM3.80391 7.20508C3.63822 7.20508 3.50391 7.33939 3.50391 7.50508V12.9051C3.50391 13.0708 3.63822 13.2051 3.80391 13.2051H5.20391C5.36959 13.2051 5.50391 13.0708 5.50391 12.9051V7.50508C5.50391 7.33939 5.36959 7.20508 5.20391 7.20508H3.80391ZM7.02734 7.50508C7.02734 7.33939 7.16166 7.20508 7.32734 7.20508H8.72734C8.89303 7.20508 9.02734 7.33939 9.02734 7.50508V12.9051C9.02734 13.0708 8.89303 13.2051 8.72734 13.2051H7.32734C7.16166 13.2051 7.02734 13.0708 7.02734 12.9051V7.50508ZM10.7375 7.20508C10.5718 7.20508 10.4375 7.33939 10.4375 7.50508V12.9051C10.4375 13.0708 10.5718 13.2051 10.7375 13.2051H12.1375C12.3032 13.2051 12.4375 13.0708 12.4375 12.9051V7.50508C12.4375 7.33939 12.3032 7.20508 12.1375 7.20508H10.7375Z" fill="#E2B578"/>
</g>
<defs>
<clipPath id="clip0_221_8436">
<rect width="16" height="16" fill="white" transform="translate(0.0273438)"/>
</clipPath>
</defs>
</svg>
