<svg width="16" height="16" viewBox="0 0 16 16" fill="none" xmlns="http://www.w3.org/2000/svg">
<path fill-rule="evenodd" clip-rule="evenodd" d="M1.94141 1.54492C1.38912 1.54492 0.941406 1.99264 0.941406 2.54492V4.07422C0.941406 4.6265 1.38912 5.07422 1.94141 5.07422H14.0586C14.6109 5.07422 15.0586 4.6265 15.0586 4.07422V2.54492C15.0586 1.99264 14.6109 1.54492 14.0586 1.54492H1.94141ZM12.6102 2.42676C12.4997 2.42676 12.4102 2.5163 12.4102 2.62676V3.99141C12.4102 4.10186 12.4997 4.19141 12.6102 4.19141H13.9748C14.0853 4.19141 14.1748 4.10186 14.1748 3.99141V2.62676C14.1748 2.5163 14.0853 2.42676 13.9748 2.42676H12.6102Z" fill="#E2B578"/>
<path fill-rule="evenodd" clip-rule="evenodd" d="M1.94141 5.95605C1.38912 5.95605 0.941406 6.40377 0.941406 6.95605V13.4545C0.941406 14.0067 1.38912 14.4545 1.94141 14.4545H14.0586C14.6109 14.4545 15.0586 14.0067 15.0586 13.4545V6.95605C15.0586 6.40377 14.6109 5.95605 14.0586 5.95605H1.94141ZM3.77656 7.20508C3.61088 7.20508 3.47656 7.33939 3.47656 7.50508V12.9051C3.47656 13.0708 3.61088 13.2051 3.77656 13.2051H5.17656C5.34225 13.2051 5.47656 13.0708 5.47656 12.9051V7.50508C5.47656 7.33939 5.34225 7.20508 5.17656 7.20508H3.77656ZM7 7.50508C7 7.33939 7.13431 7.20508 7.3 7.20508H8.7C8.86569 7.20508 9 7.33939 9 7.50508V12.9051C9 13.0708 8.86569 13.2051 8.7 13.2051H7.3C7.13431 13.2051 7 13.0708 7 12.9051V7.50508ZM10.7102 7.20508C10.5445 7.20508 10.4102 7.33939 10.4102 7.50508V12.9051C10.4102 13.0708 10.5445 13.2051 10.7102 13.2051H12.1102C12.2758 13.2051 12.4102 13.0708 12.4102 12.9051V7.50508C12.4102 7.33939 12.2758 7.20508 12.1102 7.20508H10.7102Z" fill="#E2B578"/>
</svg>
