<svg width="24" height="25" viewBox="0 0 24 25" fill="none" xmlns="http://www.w3.org/2000/svg">
<path d="M8.55913 11.9819C8.72001 12.1423 8.81733 12.3554 8.83307 12.582C8.8488 12.8086 8.78187 13.0332 8.64468 13.2142L8.56135 13.3108L7.13913 14.7364C6.8507 15.0248 6.68008 15.4103 6.66057 15.8177C6.64105 16.2251 6.77404 16.6251 7.03357 16.9397L7.14024 17.0564L7.45135 17.3664C7.74138 17.6546 8.12821 17.8246 8.53664 17.8435C8.94508 17.8624 9.34595 17.7288 9.66135 17.4686L9.77801 17.3619L11.1947 15.9397C11.3551 15.779 11.5684 15.6819 11.795 15.6664C12.0215 15.6508 12.246 15.718 12.4269 15.8553L12.5236 15.9397C12.8902 16.3064 12.8902 16.9008 12.5236 17.2686L11.1113 18.6864C10.4508 19.3478 9.55486 19.7202 8.62008 19.7221C7.6853 19.724 6.78793 19.3551 6.12468 18.6964L5.81246 18.3842C5.48544 18.0582 5.22588 17.6709 5.0486 17.2445C4.87133 16.8181 4.77982 16.361 4.7793 15.8992C4.77878 15.4374 4.86927 14.9801 5.04559 14.5533C5.22192 14.1265 5.48061 13.7387 5.8069 13.4119L7.23135 11.9842C7.40732 11.8077 7.64614 11.7084 7.89533 11.708C8.14452 11.7076 8.38368 11.8061 8.56024 11.9819H8.55913ZM14.1747 13.6453L17.0002 16.4664C17.1606 16.6266 17.2575 16.8394 17.273 17.0656C17.2885 17.2917 17.2216 17.5158 17.0847 17.6964L17.0013 17.7919L17.0002 17.7931V17.7931C16.824 17.9692 16.585 18.0681 16.3358 18.0681C16.0866 18.0681 15.8476 17.9692 15.6713 17.7931L12.8447 14.9742C12.6843 14.814 12.5874 14.6011 12.5719 14.375C12.5564 14.1489 12.6233 13.9248 12.7602 13.7442L12.8436 13.6486L12.8447 13.6475L12.8458 13.6464C13.0221 13.4703 13.261 13.3713 13.5102 13.3713C13.7594 13.3713 13.9984 13.4703 14.1747 13.6464V13.6453ZM17.8769 6.30306L18.1891 6.61528C18.5161 6.9413 18.7757 7.32857 18.953 7.75495C19.1303 8.18133 19.2218 8.63847 19.2223 9.10024C19.2228 9.56201 19.1323 10.0193 18.956 10.4461C18.7797 10.8729 18.521 11.2608 18.1947 11.5875L16.3402 13.4442C16.1718 13.6118 15.9461 13.7094 15.7085 13.7173C15.471 13.7253 15.2393 13.6429 15.0601 13.4869C14.8808 13.3309 14.7673 13.1127 14.7424 12.8764C14.7175 12.64 14.783 12.403 14.9258 12.2131L15.0102 12.1164L16.8625 10.2631C17.1507 9.97454 17.3211 9.58896 17.3404 9.18157C17.3598 8.77419 17.2266 8.37422 16.9669 8.05972L16.8602 7.94306L16.5491 7.63306C16.2591 7.34487 15.8723 7.1748 15.4638 7.15591C15.0554 7.13702 14.6545 7.27065 14.3391 7.53084L14.2225 7.6375L12.3758 9.48861C12.2073 9.65625 11.9816 9.75385 11.7441 9.76178C11.5066 9.7697 11.2749 9.68737 11.0956 9.53134C10.9163 9.37531 10.8028 9.15718 10.7779 8.92083C10.753 8.68448 10.8186 8.44747 10.9613 8.2575L11.0458 8.16084L12.8891 6.31306C13.5497 5.65168 14.4456 5.27923 15.3804 5.27735C16.3152 5.27548 17.2125 5.64433 17.8758 6.30306H17.8769ZM8.02246 7.48972L10.8491 10.3097C10.9364 10.3968 11.0057 10.5003 11.053 10.6142C11.1002 10.7282 11.1246 10.8503 11.1246 10.9736C11.1246 11.0969 11.1002 11.2191 11.053 11.333C11.0057 11.4469 10.9364 11.5504 10.8491 11.6375C10.6729 11.8136 10.4339 11.9126 10.1847 11.9126C9.93549 11.9126 9.6965 11.8136 9.52024 11.6375L6.69357 8.81861C6.60635 8.7316 6.53713 8.62825 6.48987 8.51447C6.4426 8.40069 6.41822 8.27871 6.41812 8.15551C6.41802 8.03231 6.44219 7.91029 6.48927 7.79643C6.53634 7.68257 6.60538 7.57911 6.69246 7.49195L6.69357 7.49084C6.86983 7.3147 7.10883 7.21575 7.35801 7.21575C7.6072 7.21575 7.84619 7.3147 8.02246 7.49084V7.48972Z" fill="#151210"/>
</svg>
