<svg width="21" height="21" viewBox="0 0 21 21" fill="none" xmlns="http://www.w3.org/2000/svg">
<circle cx="10.4204" cy="10.9062" r="5" fill="white"/>
<path fill-rule="evenodd" clip-rule="evenodd" d="M10.4203 18.9062C14.8386 18.9062 18.4203 15.3245 18.4203 10.9062C18.4203 6.48797 14.8386 2.90625 10.4203 2.90625C6.00201 2.90625 2.42029 6.48797 2.42029 10.9062C2.42029 15.3245 6.00201 18.9062 10.4203 18.9062ZM8.82904 8.25458C8.53614 7.96169 8.06127 7.96169 7.76838 8.25458C7.47548 8.54748 7.47548 9.02235 7.76838 9.31524L9.35937 10.9062L7.76838 12.4972C7.47548 12.7901 7.47548 13.265 7.76838 13.5579C8.06127 13.8508 8.53614 13.8508 8.82904 13.5579L10.42 11.9669L12.011 13.5579C12.3039 13.8508 12.7788 13.8508 13.0717 13.5579C13.3646 13.265 13.3646 12.7901 13.0717 12.4972L11.4807 10.9062L13.0717 9.31524C13.3646 9.02235 13.3646 8.54748 13.0717 8.25458C12.7788 7.96169 12.3039 7.96169 12.011 8.25458L10.42 9.84557L8.82904 8.25458Z" fill="#F52222"/>
</svg>
