<svg width="41" height="41" viewBox="0 0 41 41" fill="none" xmlns="http://www.w3.org/2000/svg">
<path d="M20.4053 3.38672C10.7451 3.38281 2.9209 11.2031 2.9209 20.8555C2.9209 28.4883 7.81543 34.9766 14.6318 37.3594C15.5498 37.5898 15.4092 36.9375 15.4092 36.4922V33.4648C10.1084 34.0859 9.89356 30.5781 9.53809 29.9922C8.81934 28.7656 7.12012 28.4531 7.62793 27.8672C8.83496 27.2461 10.0654 28.0234 11.4912 30.1289C12.5225 31.6562 14.5342 31.3984 15.5537 31.1445C15.7764 30.2266 16.2529 29.4062 16.9092 28.7695C11.417 27.7852 9.12793 24.4336 9.12793 20.4492C9.12793 18.5156 9.76465 16.7383 11.0146 15.3047C10.2178 12.9414 11.0889 10.918 11.2061 10.6172C13.4756 10.4141 15.835 12.2422 16.0186 12.3867C17.3076 12.0391 18.7803 11.8555 20.4287 11.8555C22.085 11.8555 23.5615 12.0469 24.8623 12.3984C25.3037 12.0625 27.4912 10.4922 29.6006 10.6836C29.7139 10.9844 30.5654 12.9609 29.8154 15.293C31.0811 16.7305 31.7256 18.5234 31.7256 20.4609C31.7256 24.4531 29.4209 27.8086 23.9131 28.7773C24.8311 29.6836 25.4014 30.9414 25.4014 32.332V36.7266C25.4326 37.0781 25.4014 37.4258 25.9873 37.4258C32.9053 35.0937 37.8857 28.5586 37.8857 20.8594C37.8857 11.2031 30.0576 3.38672 20.4053 3.38672Z" fill="white"/>
</svg>
