<svg width="25" height="24" viewBox="0 0 25 24" fill="none" xmlns="http://www.w3.org/2000/svg">
<path d="M3.14128 3.00005C3.05703 2.99899 2.97339 3.01454 2.89515 3.0458C2.8169 3.07707 2.74559 3.12344 2.68526 3.18227C2.62494 3.24111 2.5768 3.31124 2.54359 3.38868C2.51038 3.46612 2.49275 3.54934 2.4917 3.63359C2.49238 3.67113 2.49505 3.70861 2.49972 3.74587L5.22235 20.2701C5.25604 20.4728 5.36016 20.6571 5.51639 20.7906C5.67262 20.9241 5.87094 20.9982 6.07643 20.9999H19.1362C19.2898 21.0019 19.4389 20.9488 19.5567 20.8502C19.6744 20.7516 19.7528 20.6141 19.7778 20.4626L22.5004 3.74988C22.527 3.58245 22.4863 3.41129 22.3871 3.2738C22.288 3.1363 22.1384 3.04365 21.9711 3.01609C21.9339 3.01128 21.8964 3.0086 21.8588 3.00807L3.14128 3.00005ZM14.6052 14.9411H10.435L9.30829 9.04677H15.6156L14.6052 14.9411Z" fill="white"/>
<path fill-rule="evenodd" clip-rule="evenodd" d="M14.5485 20.9988H19.1353C19.2889 21.0009 19.4381 20.9478 19.5558 20.8492C19.6735 20.7506 19.752 20.613 19.7769 20.4615L22.4995 3.74884C22.5261 3.58142 22.4854 3.41026 22.3862 3.27277C22.2871 3.13527 22.1375 3.04262 21.9702 3.01506C21.933 3.01025 21.8955 3.00757 21.858 3.00704L14.5485 3.00391V9.04574H15.6148L14.6043 14.9401H14.5485V20.9988Z" fill="url(#paint0_linear_1736_25610)"/>
<path fill-rule="evenodd" clip-rule="evenodd" d="M2.89515 3.0458C2.97339 3.01454 3.05703 2.99899 3.14128 3.00005L21.8588 3.00807C21.8964 3.0086 21.9339 3.01128 21.9711 3.01609C22.1384 3.04365 22.288 3.1363 22.3871 3.2738C22.4863 3.41129 22.527 3.58245 22.5004 3.74988L21.6477 8.98438H3.36285L2.49972 3.74587C2.49505 3.70861 2.49238 3.67113 2.4917 3.63359C2.49275 3.54934 2.51038 3.46612 2.54359 3.38868C2.5768 3.31124 2.62494 3.24111 2.68526 3.18227C2.74559 3.12344 2.8169 3.07707 2.89515 3.0458Z" fill="white"/>
<defs>
<linearGradient id="paint0_linear_1736_25610" x1="18.5282" y1="9.88054" x2="16.8517" y2="21.6616" gradientUnits="userSpaceOnUse">
<stop stop-color="#F1F1FA"/>
<stop offset="0.480236" stop-color="white"/>
</linearGradient>
</defs>
</svg>
