<svg width="24" height="24" viewBox="0 0 24 24" fill="none" xmlns="http://www.w3.org/2000/svg">
<path d="M21.8512 13.3067L20.7446 9.90108L18.5515 3.15113C18.4387 2.80385 17.9474 2.80385 17.8345 3.15113L15.6413 9.90104H8.35846L6.16524 3.15108C6.05244 2.80381 5.56111 2.80381 5.44822 3.15108L3.2551 9.90104L2.1486 13.3067C2.0994 13.4581 2.09939 13.6212 2.14859 13.7727C2.19778 13.9241 2.29364 14.056 2.42244 14.1496L11.9996 21.108L21.5769 14.1497C21.8411 13.9577 21.9517 13.6173 21.8508 13.3067" fill="#FC6D26"/>
<path d="M12.0001 21.1095L15.6414 9.90234H8.35864L12.0001 21.1095Z" fill="#E6E6EC"/>
<path d="M12.0001 21.1091L8.35871 9.90234H3.25549L12.0001 21.1091Z" fill="#F7F7FA"/>
<path d="M3.25531 9.90234L2.14872 13.308C2.09952 13.4595 2.09952 13.6226 2.14872 13.774C2.19792 13.9254 2.2938 14.0573 2.42261 14.1509L11.9999 21.1093L3.25531 9.90234Z" fill="white"/>
<path d="M3.25537 9.90107H8.35859L6.16537 3.15112C6.05257 2.80379 5.5612 2.80379 5.4484 3.15112L3.25537 9.90107Z" fill="#E6E6EC"/>
<path d="M12 21.1091L15.6414 9.90234H20.7446L12 21.1091Z" fill="#F7F7FA"/>
<path d="M20.7449 9.90234L21.8515 13.308C21.9007 13.4595 21.9007 13.6226 21.8515 13.774C21.8023 13.9254 21.7064 14.0573 21.5776 14.1509L12.0004 21.1093L20.7449 9.90234Z" fill="white"/>
<path d="M20.7444 9.90107H15.6412L17.8345 3.15112C17.9473 2.80379 18.4386 2.80379 18.5514 3.15112L20.7444 9.90107Z" fill="#E6E6EC"/>
</svg>
