<svg width="248" height="41" viewBox="0 0 248 41" fill="none" xmlns="http://www.w3.org/2000/svg">
<path d="M63.0714 13.9082V20.1435C63.0714 20.3276 63.1445 20.5041 63.2747 20.6343C63.4048 20.7644 63.5813 20.8376 63.7654 20.8376H69.7668C69.8576 20.8372 69.9474 20.819 70.0311 20.7839C70.1149 20.7489 70.1909 20.6977 70.2549 20.6332C70.3188 20.5688 70.3694 20.4924 70.4038 20.4083C70.4383 20.3243 70.4558 20.2343 70.4554 20.1435V13.9108C70.4551 13.8196 70.4728 13.7292 70.5075 13.6448C70.5423 13.5604 70.5934 13.4838 70.6579 13.4193C70.7224 13.3548 70.7991 13.3036 70.8834 13.2689C70.9678 13.2341 71.0582 13.2164 71.1494 13.2168H74.2429C74.3339 13.2168 74.4241 13.2348 74.5081 13.2697C74.5922 13.3046 74.6685 13.3558 74.7327 13.4203C74.797 13.4847 74.8478 13.5613 74.8824 13.6455C74.917 13.7296 74.9346 13.8198 74.9343 13.9108V32.3346C74.9346 32.4257 74.917 32.5158 74.8824 32.6C74.8478 32.6842 74.797 32.7607 74.7327 32.8252C74.6685 32.8897 74.5922 32.9408 74.5081 32.9758C74.4241 33.0107 74.3339 33.0286 74.2429 33.0286H71.1494C71.0582 33.029 70.9678 33.0113 70.8834 32.9765C70.7991 32.9418 70.7224 32.8907 70.6579 32.8261C70.5934 32.7616 70.5423 32.685 70.5075 32.6006C70.4728 32.5163 70.4551 32.4259 70.4554 32.3346V25.4294C70.4554 25.246 70.3826 25.0702 70.253 24.9406C70.1233 24.8109 69.9475 24.7381 69.7641 24.7381H63.7627C63.5791 24.7381 63.403 24.8108 63.2729 24.9404C63.1428 25.0699 63.0694 25.2458 63.0687 25.4294V32.3346C63.0691 32.4257 63.0514 32.5158 63.0169 32.6C62.9823 32.6842 62.9314 32.7607 62.8671 32.8252C62.8029 32.8897 62.7266 32.9408 62.6425 32.9758C62.5585 33.0107 62.4684 33.0286 62.3774 33.0286H59.2839C59.1926 33.029 59.1022 33.0113 59.0178 32.9765C58.9335 32.9418 58.8568 32.8907 58.7923 32.8261C58.7278 32.7616 58.6767 32.685 58.642 32.6006C58.6072 32.5163 58.5895 32.4259 58.5898 32.3346V13.9108C58.5895 13.8196 58.6072 13.7292 58.642 13.6448C58.6767 13.5604 58.7278 13.4838 58.7923 13.4193C58.8568 13.3548 58.9335 13.3036 59.0178 13.2689C59.1022 13.2341 59.1926 13.2164 59.2839 13.2168H62.3854C62.5679 13.2182 62.7423 13.2917 62.8708 13.4212C62.9993 13.5507 63.0714 13.7257 63.0714 13.9082V13.9082Z" fill="black"/>
<path d="M84.507 28.4435L83.388 32.5134C83.3475 32.6593 83.2604 32.788 83.1399 32.8798C83.0195 32.9716 82.8723 33.0214 82.7208 33.0218H79.5521C79.4437 33.022 79.3367 32.9968 79.2399 32.948C79.1431 32.8993 79.0591 32.8285 78.9946 32.7413C78.9302 32.6541 78.8872 32.5529 78.8691 32.4461C78.851 32.3392 78.8582 32.2296 78.8903 32.126L84.5124 13.6996C84.5556 13.5578 84.6433 13.4337 84.7624 13.3455C84.8816 13.2574 85.0259 13.2099 85.1741 13.21H90.0161C90.164 13.2097 90.3081 13.2568 90.4272 13.3445C90.5463 13.4321 90.6342 13.5556 90.6779 13.6969L96.4156 32.1234C96.4476 32.2271 96.4548 32.3368 96.4367 32.4438C96.4186 32.5508 96.3756 32.652 96.3112 32.7394C96.2469 32.8267 96.163 32.8978 96.0662 32.9468C95.9694 32.9959 95.8624 33.0215 95.7539 33.0218H92.3833C92.2344 33.0215 92.0896 32.9732 91.9704 32.8841C91.8511 32.7949 91.7639 32.6696 91.7216 32.5269L90.4923 28.4273C90.4499 28.2848 90.3625 28.1599 90.2433 28.0712C90.124 27.9824 89.9792 27.9346 89.8305 27.935H85.1768C85.0247 27.9339 84.8765 27.9831 84.7553 28.0751C84.6342 28.1671 84.5468 28.2966 84.507 28.4435ZM88.7545 24.5967C88.8619 24.5969 88.9679 24.5719 89.064 24.524C89.1601 24.476 89.2437 24.4063 89.3082 24.3205C89.3726 24.2346 89.4162 24.1349 89.4355 24.0292C89.4547 23.9235 89.449 23.8148 89.419 23.7117L88.4452 20.3869C88.1035 19.2167 87.7539 17.7318 87.4499 16.5725H87.388C87.0975 17.7372 86.7989 19.2409 86.4815 20.3922L85.5427 23.7171C85.5135 23.8201 85.5087 23.9284 85.5285 24.0336C85.5484 24.1388 85.5924 24.2379 85.657 24.3231C85.7217 24.4084 85.8053 24.4776 85.9012 24.525C85.9971 24.5725 86.1028 24.597 86.2098 24.5967H88.7545Z" fill="black"/>
<path d="M117.517 25.4441C117.426 23.0419 117.334 20.1878 117.345 17.2826H117.264C116.632 19.8193 115.801 22.6357 115.056 24.9733L112.78 32.2121C112.736 32.3524 112.648 32.475 112.53 32.5621C112.411 32.6492 112.268 32.6962 112.121 32.6963H109.673C109.522 32.6961 109.375 32.6466 109.255 32.5554C109.134 32.4641 109.047 32.336 109.006 32.1906L107.013 25.0406C106.375 22.7083 105.716 19.8946 105.227 17.2826H105.165C105.065 19.9726 104.955 23.0365 104.837 25.5032L104.498 32.3627C104.489 32.5404 104.413 32.7081 104.284 32.8309C104.155 32.9536 103.984 33.022 103.806 33.0218H101.06C100.965 33.0216 100.872 33.0021 100.785 32.9644C100.698 32.9267 100.62 32.8716 100.555 32.8026C100.49 32.7335 100.44 32.652 100.408 32.5629C100.376 32.4739 100.363 32.3792 100.369 32.2847L101.549 13.8582C101.56 13.6824 101.638 13.5175 101.767 13.397C101.895 13.2765 102.065 13.2096 102.241 13.21H107.042C107.192 13.2102 107.338 13.2588 107.457 13.3485C107.577 13.4381 107.665 13.5642 107.707 13.7076L109.493 19.8328C110.12 22.1031 110.73 24.5913 111.174 26.9155H111.268C111.806 24.6209 112.482 22.0089 113.151 19.8032L115.102 13.6915C115.147 13.5519 115.235 13.4301 115.353 13.3436C115.471 13.2571 115.614 13.2103 115.761 13.21H120.457C120.635 13.2097 120.806 13.2778 120.934 13.4C121.063 13.5221 121.14 13.6891 121.149 13.8663L122.139 32.2928C122.143 32.3866 122.129 32.4804 122.096 32.5685C122.064 32.6566 122.014 32.7372 121.949 32.8054C121.884 32.8735 121.807 32.9278 121.72 32.965C121.634 33.0022 121.541 33.0215 121.447 33.0218H118.488C118.31 33.0219 118.138 32.9528 118.009 32.8289C117.88 32.705 117.804 32.536 117.797 32.3574L117.517 25.4441Z" fill="black"/>
<path d="M126.664 29.2167C126.688 29.1191 126.733 29.0279 126.796 28.9495C126.859 28.8711 126.938 28.8074 127.028 28.7629C127.119 28.7183 127.217 28.6939 127.318 28.6915C127.419 28.689 127.518 28.7086 127.611 28.7487C128.947 29.3184 130.382 29.6209 131.834 29.6391C133.889 29.6391 134.981 28.7837 134.981 27.4871C134.981 26.2685 134.034 25.553 131.664 24.7164C128.358 23.5435 126.198 21.7439 126.198 18.8495C126.198 15.4708 129.034 12.9046 133.693 12.9046C135.219 12.8755 136.737 13.1289 138.172 13.6524C138.332 13.7148 138.464 13.8346 138.542 13.9887C138.619 14.1427 138.637 14.32 138.591 14.4863L137.972 16.7271C137.948 16.8199 137.904 16.9065 137.844 16.9814C137.784 17.0562 137.708 17.1175 137.623 17.1614C137.537 17.2052 137.444 17.2307 137.348 17.236C137.252 17.2414 137.156 17.2265 137.066 17.1924C135.969 16.7668 134.802 16.5497 133.625 16.5522C131.675 16.5522 130.744 17.4561 130.744 18.4675C130.744 19.7264 131.842 20.2832 134.411 21.2516C137.908 22.5643 139.543 24.3855 139.543 27.1858C139.543 30.4918 137.009 33.3324 131.557 33.3324C129.818 33.3315 128.096 33.0001 126.481 32.3559C126.331 32.2896 126.209 32.1719 126.138 32.024C126.067 31.876 126.051 31.7075 126.093 31.5489L126.664 29.2167Z" fill="black"/>
<path d="M148.119 16.9706H144.159C144.068 16.9709 143.978 16.9533 143.894 16.9188C143.809 16.8842 143.733 16.8333 143.668 16.769C143.604 16.7048 143.553 16.6285 143.518 16.5444C143.483 16.4604 143.465 16.3702 143.465 16.2792V13.904C143.464 13.8128 143.482 13.7223 143.517 13.638C143.552 13.5536 143.603 13.477 143.667 13.4124C143.732 13.3479 143.809 13.2968 143.893 13.262C143.977 13.2273 144.068 13.2096 144.159 13.21H158.02C158.111 13.21 158.202 13.2279 158.286 13.2628C158.37 13.2977 158.446 13.3489 158.51 13.4134C158.574 13.4779 158.625 13.5544 158.66 13.6386C158.695 13.7228 158.712 13.813 158.712 13.904V16.2792C158.712 16.4626 158.639 16.6385 158.509 16.7681C158.38 16.8978 158.204 16.9706 158.02 16.9706H153.985C153.894 16.9706 153.804 16.9885 153.72 17.0234C153.636 17.0584 153.56 17.1096 153.496 17.174C153.431 17.2385 153.381 17.315 153.346 17.3992C153.311 17.4834 153.294 17.5736 153.294 17.6646V32.3278C153.294 32.4188 153.277 32.509 153.242 32.5932C153.208 32.6774 153.157 32.7539 153.093 32.8184C153.028 32.8829 152.952 32.934 152.868 32.9689C152.784 33.0038 152.694 33.0218 152.603 33.0218H149.504C149.413 33.0218 149.323 33.0038 149.239 32.9689C149.155 32.934 149.078 32.8829 149.014 32.8184C148.95 32.7539 148.899 32.6774 148.864 32.5932C148.83 32.509 148.812 32.4188 148.813 32.3278V17.6646C148.813 17.5735 148.795 17.4832 148.76 17.399C148.725 17.3148 148.674 17.2383 148.609 17.1738C148.545 17.1094 148.468 17.0583 148.384 17.0234C148.3 16.9886 148.21 16.9706 148.119 16.9706Z" fill="black"/>
<path d="M173.717 24.6398H167.799C167.615 24.6405 167.44 24.7139 167.31 24.844C167.181 24.9741 167.108 25.1502 167.108 25.3338V28.6586C167.107 28.7496 167.125 28.8398 167.16 28.924C167.194 29.0082 167.245 29.0847 167.309 29.1492C167.374 29.2137 167.45 29.2649 167.534 29.2998C167.618 29.3347 167.708 29.3526 167.799 29.3526H174.564C174.748 29.3526 174.924 29.4255 175.053 29.5551C175.183 29.6848 175.256 29.8606 175.256 30.044V32.3278C175.256 32.4188 175.238 32.509 175.204 32.5932C175.169 32.6774 175.118 32.7539 175.054 32.8184C174.99 32.8829 174.914 32.934 174.83 32.9689C174.746 33.0038 174.655 33.0218 174.564 33.0218H163.32C163.229 33.0218 163.139 33.0038 163.055 32.9689C162.971 32.934 162.895 32.8829 162.83 32.8184C162.766 32.7539 162.715 32.6774 162.681 32.5932C162.646 32.509 162.629 32.4188 162.629 32.3278V13.904C162.629 13.813 162.646 13.7228 162.681 13.6386C162.715 13.5544 162.766 13.4779 162.83 13.4134C162.895 13.3489 162.971 13.2977 163.055 13.2628C163.139 13.2279 163.229 13.21 163.32 13.21H174.139C174.323 13.21 174.5 13.2831 174.63 13.4132C174.76 13.5434 174.833 13.7199 174.833 13.904V16.1878C174.833 16.3714 174.759 16.5472 174.629 16.6768C174.499 16.8064 174.323 16.8791 174.139 16.8791H167.799C167.708 16.8791 167.618 16.8971 167.534 16.932C167.45 16.9669 167.374 17.0181 167.309 17.0825C167.245 17.147 167.194 17.2236 167.16 17.3077C167.125 17.3919 167.107 17.4821 167.108 17.5731V20.3142C167.108 20.4976 167.181 20.6734 167.31 20.8031C167.44 20.9327 167.616 21.0056 167.799 21.0056H173.717C173.901 21.0063 174.077 21.0796 174.207 21.2096C174.337 21.3396 174.41 21.5158 174.411 21.6996V23.9484C174.41 24.132 174.337 24.3078 174.207 24.4374C174.077 24.567 173.901 24.6398 173.717 24.6398V24.6398Z" fill="black"/>
<path d="M179.246 14.0756C179.247 13.9078 179.308 13.7458 179.419 13.6197C179.529 13.4935 179.682 13.4118 179.849 13.3897C181.623 13.1591 183.41 13.0477 185.199 13.0561C188.137 13.0561 190.194 13.5054 191.609 14.6244C192.793 15.5659 193.444 16.9566 193.444 18.7777C193.444 21.2875 191.65 23.036 189.947 23.6467V23.7408C191.321 24.2949 192.099 25.6077 192.594 27.4288C193.051 29.1047 193.5 30.9715 193.861 32.1255C193.893 32.2291 193.9 32.3387 193.882 32.4456C193.864 32.5524 193.821 32.6536 193.756 32.7408C193.692 32.828 193.608 32.8988 193.511 32.9475C193.414 32.9963 193.308 33.0215 193.199 33.0213H190.057C189.92 33.0233 189.785 32.9835 189.67 32.9071C189.556 32.8307 189.468 32.7214 189.417 32.5936C188.936 31.2235 188.544 29.8235 188.244 28.4026C187.706 25.9278 186.859 25.266 185.016 25.2418H184.376C184.192 25.2425 184.016 25.316 183.887 25.4461C183.757 25.5761 183.685 25.7523 183.685 25.9359V32.3273C183.685 32.4185 183.667 32.5089 183.632 32.5933C183.598 32.6776 183.547 32.7543 183.482 32.8188C183.418 32.8833 183.341 32.9344 183.257 32.9692C183.172 33.0039 183.082 33.0216 182.991 33.0213H179.937C179.846 33.0213 179.756 33.0033 179.672 32.9684C179.588 32.9335 179.512 32.8824 179.448 32.8179C179.383 32.7534 179.333 32.6769 179.298 32.5927C179.263 32.5085 179.246 32.4183 179.246 32.3273V14.0756ZM183.685 21.3091C183.685 21.4924 183.757 21.6682 183.887 21.7979C184.017 21.9275 184.193 22.0004 184.376 22.0004H185.452C187.674 22.0004 189.003 20.8679 189.003 19.1463C189.003 17.3332 187.76 16.4052 185.713 16.3944C185.126 16.3944 184.672 16.4159 184.33 16.4482C184.157 16.4624 183.997 16.5412 183.879 16.6688C183.762 16.7965 183.697 16.9636 183.698 17.1369L183.685 21.3091Z" fill="black"/>
<path d="M19.7164 8.15987C18.9866 8.34508 18.2237 8.06035 17.6836 7.53551C16.5219 6.4063 14.9363 5.71094 13.1882 5.71094C9.62598 5.71094 6.73812 8.59879 6.73812 12.1611C6.73812 12.5487 6.77234 12.9283 6.83788 13.2971C6.92416 13.7825 6.75722 14.2897 6.36976 14.5946C2.99759 17.2483 0.832031 21.3666 0.832031 25.9907C0.832031 33.995 7.32081 40.4838 15.3251 40.4838C19.4645 40.4838 23.1986 38.7485 25.8395 35.9657C28.4804 38.7485 32.2143 40.4838 36.3537 40.4838C44.3581 40.4838 50.8469 33.995 50.8469 25.9907C50.8469 21.7495 49.0252 17.9339 46.1216 15.2835C45.7474 14.9419 45.6216 14.4053 45.7593 13.9177C45.917 13.3593 46.0014 12.7701 46.0014 12.1611C46.0014 8.59879 43.1135 5.71094 39.5511 5.71094C37.8914 5.71094 36.3781 6.33787 35.2351 7.36771C34.7219 7.83009 34.0287 8.08218 33.3537 7.93592C31.3537 7.50251 29.2227 7.26864 27.0113 7.26864C24.4451 7.26864 21.9872 7.58365 19.7164 8.15987Z" fill="#A05E1C"/>
<path d="M6.77141 14.042C6.69063 14.2565 6.55554 14.4492 6.36976 14.5954C2.99759 17.2491 0.832031 21.3674 0.832031 25.9915C0.832031 33.9958 7.32081 40.4846 15.3251 40.4846C19.4645 40.4846 23.1986 38.7493 25.8395 35.9665C28.4804 38.7493 32.2143 40.4846 36.3537 40.4846C44.3581 40.4846 50.8469 33.9958 50.8469 25.9915C50.8469 21.7503 49.0252 17.9347 46.1216 15.2843C45.8397 15.0269 45.6987 14.6589 45.7053 14.2845L45.6302 14.4993C45.6302 14.4993 37.0834 13.2797 32.2855 18.0873C25.5199 24.8667 25.5199 32.7879 25.5199 32.7879C25.5199 32.7879 25.5199 24.28 18.9856 18.0873C13.6169 12.9993 6.80016 14.0756 6.80016 14.0756L6.77141 14.042Z" fill="#E9C89C"/>
<path d="M24.6054 36.0515C25.1762 36.7172 26.2062 36.7172 26.7771 36.0515L28.0273 34.5935C28.8229 33.6657 28.1637 32.232 26.9414 32.232H24.441C23.2188 32.232 22.5595 33.6657 23.3551 34.5935L24.6054 36.0515Z" fill="black"/>
<path d="M36.0932 25.7713C37.1455 25.2405 37.6881 23.628 37.3051 22.1696C36.922 20.7112 35.7585 19.9593 34.7062 20.4901C33.6538 21.0209 33.1113 22.6334 33.4943 24.0918C33.8773 25.5502 35.0409 26.3021 36.0932 25.7713Z" fill="black"/>
<path d="M35.0269 22.5846C35.4201 22.4415 35.6228 22.0067 35.4797 21.6136C35.3366 21.2204 34.9019 21.0177 34.5087 21.1608C34.1156 21.3039 33.9129 21.7386 34.056 22.1318C34.1991 22.5249 34.6338 22.7277 35.0269 22.5846Z" fill="white"/>
<path d="M15.6372 25.7792C14.5849 25.2484 14.0423 23.6358 14.4253 22.1774C14.8084 20.719 15.9719 19.967 17.0243 20.4979C18.0766 21.0287 18.6192 22.6413 18.2362 24.0997C17.8532 25.5581 16.6896 26.31 15.6372 25.7792Z" fill="black"/>
<path d="M16.7035 22.5924C16.3104 22.4493 16.1076 22.0146 16.2507 21.6214C16.3938 21.2282 16.8286 21.0255 17.2217 21.1686C17.6149 21.3117 17.8176 21.7465 17.6745 22.1396C17.5314 22.5328 17.0967 22.7355 16.7035 22.5924Z" fill="white"/>
<path fill-rule="evenodd" clip-rule="evenodd" d="M28.9265 32.7388C28.0629 33.299 27.3945 33.9779 27.0439 34.4311L26.9844 34.385C27.3398 33.9256 28.0144 33.2407 28.8855 32.6757C29.7566 32.1107 30.8272 31.6635 31.9738 31.6843L31.9724 31.7596C30.8461 31.7391 29.7902 32.1786 28.9265 32.7388Z" fill="black"/>
<path fill-rule="evenodd" clip-rule="evenodd" d="M29.7039 33.7138C28.6889 33.8853 27.806 34.2433 27.3045 34.5202L27.2681 34.4543C27.7766 34.1736 28.6675 33.8126 29.6914 33.6395C30.7151 33.4665 31.8753 33.4807 32.9195 33.9548L32.8884 34.0233C31.8626 33.5576 30.719 33.5422 29.7039 33.7138Z" fill="black"/>
<path fill-rule="evenodd" clip-rule="evenodd" d="M29.6057 34.9303C28.5856 34.7924 27.6362 34.8717 27.075 34.987L27.0598 34.9132C27.6288 34.7964 28.5868 34.7166 29.6158 34.8557C30.6447 34.9948 31.7482 35.3533 32.6042 36.1164L32.5541 36.1726C31.7132 35.423 30.6259 35.0683 29.6057 34.9303Z" fill="black"/>
<path fill-rule="evenodd" clip-rule="evenodd" d="M22.5149 32.7388C23.3785 33.299 24.0469 33.9779 24.3975 34.4311L24.457 34.385C24.1016 33.9256 23.427 33.2407 22.5559 32.6757C21.6848 32.1107 20.6142 31.6635 19.4676 31.6843L19.469 31.7596C20.5953 31.7391 21.6512 32.1786 22.5149 32.7388Z" fill="black"/>
<path fill-rule="evenodd" clip-rule="evenodd" d="M21.7219 33.7138C22.7369 33.8853 23.6198 34.2433 24.1213 34.5202L24.1577 34.4543C23.6492 34.1736 22.7583 33.8126 21.7344 33.6395C20.7107 33.4665 19.5505 33.4807 18.5063 33.9548L18.5374 34.0233C19.5632 33.5576 20.7068 33.5422 21.7219 33.7138Z" fill="black"/>
<path fill-rule="evenodd" clip-rule="evenodd" d="M21.8045 34.9303C22.8246 34.7924 23.774 34.8717 24.3352 34.987L24.3503 34.9132C23.7814 34.7964 22.8234 34.7166 21.7944 34.8557C20.7655 34.9948 19.662 35.3533 18.8059 36.1164L18.856 36.1726C19.697 35.423 20.7843 35.0683 21.8045 34.9303Z" fill="black"/>
<path fill-rule="evenodd" clip-rule="evenodd" d="M204.777 0.485352H244.1V2.32378H245.942V0.485352H247.785V13.0917C247.785 16.6447 244.905 19.5249 241.352 19.5249H198.344V17.6822H200.186V19.5247H202.028V17.6821H200.186V15.8397H198.344V6.9185C198.344 3.36558 201.224 0.485352 204.777 0.485352ZM247.784 2.32391H245.942V4.16645H247.784V2.32391Z" fill="black"/>
<path d="M235.625 6.11732C235.625 6.06259 235.669 6.01823 235.724 6.01823H237.518C237.572 6.01823 237.617 5.97386 237.617 5.91914V4.11569C237.617 4.06097 237.661 4.0166 237.716 4.0166H239.202C239.257 4.0166 239.301 4.06097 239.301 4.11569V5.91914C239.301 5.97386 239.346 6.01823 239.4 6.01823H241.204C241.259 6.01823 241.303 6.06259 241.303 6.11732V7.60368C241.303 7.6584 241.259 7.70277 241.204 7.70277H239.4C239.346 7.70277 239.301 7.74713 239.301 7.80186V9.59539C239.301 9.65012 239.257 9.69448 239.202 9.69448H237.716C237.661 9.69448 237.617 9.65012 237.617 9.59539V7.80186C237.617 7.74713 237.572 7.70277 237.518 7.70277H235.724C235.669 7.70277 235.625 7.6584 235.625 7.60368V6.11732Z" fill="white"/>
<path d="M208.069 7.30491C208.827 7.30491 209.418 7.49258 209.844 7.86794C210.27 8.2433 210.483 8.77746 210.483 9.47042V13.2016C210.483 13.3116 210.394 13.4008 210.284 13.4008H209.176C209.101 13.4008 209.033 13.3586 208.999 13.2916L208.664 12.632C208.658 12.6188 208.644 12.6104 208.629 12.6104V12.6104C208.617 12.6104 208.606 12.6159 208.598 12.6253C208.436 12.828 208.266 12.9963 208.09 13.1301C207.917 13.2601 207.715 13.3539 207.484 13.4117C207.253 13.4766 206.971 13.5091 206.639 13.5091C206.293 13.5091 205.982 13.4405 205.708 13.3034C205.434 13.159 205.217 12.9461 205.059 12.6646C204.9 12.3758 204.82 12.0113 204.82 11.571C204.82 10.9285 205.04 10.4521 205.481 10.1417C205.928 9.83134 206.574 9.6581 207.419 9.62201L208.328 9.59235C208.377 9.59077 208.415 9.55119 208.415 9.5029V9.5029C208.415 9.23582 208.35 9.04815 208.22 8.93987C208.09 8.82438 207.913 8.76663 207.69 8.76663C207.451 8.76663 207.188 8.80994 206.899 8.89656C206.67 8.95947 206.439 9.03824 206.206 9.13286C206.104 9.17429 205.986 9.12856 205.942 9.02755L205.501 8.01679C205.459 7.92079 205.499 7.80823 205.594 7.76445C205.897 7.6249 206.231 7.51863 206.596 7.44566C207.036 7.35183 207.527 7.30491 208.069 7.30491ZM207.949 10.7481C207.574 10.7625 207.307 10.8311 207.148 10.9538C206.997 11.0693 206.921 11.2353 206.921 11.4519C206.921 11.654 206.975 11.8056 207.083 11.9066C207.192 12.0005 207.336 12.0474 207.516 12.0474C207.769 12.0474 207.982 11.968 208.155 11.8092C208.336 11.6504 208.426 11.4446 208.426 11.192V10.9349C208.426 10.8213 208.331 10.7307 208.218 10.7359L207.949 10.7481Z" fill="white"/>
<path d="M213.959 13.2016C213.959 13.3116 213.87 13.4008 213.76 13.4008H212.09C211.98 13.4008 211.891 13.3116 211.891 13.2016V5.37114C211.891 5.26109 211.98 5.17188 212.09 5.17188H213.76C213.87 5.17188 213.959 5.26109 213.959 5.37114V13.2016Z" fill="white"/>
<path d="M219.051 7.30491C219.715 7.30491 220.235 7.57199 220.61 8.10615C220.985 8.63309 221.173 9.39463 221.173 10.3908C221.173 11.0693 221.076 11.6432 220.881 12.1123C220.693 12.5743 220.433 12.9244 220.101 13.1626C219.776 13.3936 219.405 13.5091 218.986 13.5091C218.704 13.5091 218.466 13.473 218.271 13.4008C218.076 13.3286 217.914 13.242 217.784 13.141C217.66 13.0378 217.556 12.9346 217.472 12.8314C217.464 12.8218 217.452 12.8161 217.44 12.8161V12.8161C217.415 12.8161 217.396 12.8371 217.399 12.8612C217.412 12.9856 217.425 13.1185 217.438 13.2601C217.452 13.4189 217.459 13.6029 217.459 13.8123V15.8002C217.459 15.9102 217.37 15.9994 217.26 15.9994H215.59C215.48 15.9994 215.391 15.9102 215.391 15.8002V7.61245C215.391 7.5024 215.48 7.41318 215.59 7.41318H216.933C217.015 7.41318 217.089 7.46388 217.119 7.54074L217.342 8.1206C217.354 8.15104 217.383 8.17111 217.416 8.17111V8.17111C217.443 8.17111 217.468 8.15727 217.483 8.13479C217.579 7.99022 217.69 7.85796 217.817 7.73801C217.961 7.60808 218.134 7.50341 218.336 7.42401C218.538 7.34461 218.777 7.30491 219.051 7.30491ZM218.271 8.92904C218.069 8.92904 217.91 8.97957 217.795 9.08063C217.679 9.17447 217.596 9.31523 217.546 9.5029C217.495 9.69058 217.466 9.92879 217.459 10.2175V10.3799C217.459 10.6975 217.481 10.9646 217.524 11.1812C217.575 11.3977 217.661 11.5638 217.784 11.6792C217.907 11.7875 218.073 11.8417 218.282 11.8417C218.455 11.8417 218.6 11.7947 218.715 11.7009C218.838 11.5998 218.928 11.441 218.986 11.2245C219.044 11.0079 219.073 10.7228 219.073 10.3691C219.073 9.84217 219.004 9.47042 218.867 9.25387C218.73 9.03732 218.531 8.92904 218.271 8.92904Z" fill="white"/>
<path d="M224.417 6.34125C224.417 6.78157 224.406 7.15332 224.384 7.45649C224.365 7.72096 224.349 7.9305 224.336 8.08511C224.333 8.11968 224.36 8.14946 224.395 8.14946V8.14946C224.415 8.14946 224.434 8.13886 224.445 8.12166C224.57 7.92538 224.709 7.76862 224.861 7.65139C225.027 7.52868 225.211 7.44206 225.413 7.39153C225.615 7.33378 225.835 7.30491 226.073 7.30491C226.47 7.30491 226.828 7.3807 227.145 7.53229C227.463 7.68387 227.716 7.92208 227.903 8.24691C228.098 8.56451 228.196 8.98318 228.196 9.5029V13.2016C228.196 13.3116 228.106 13.4008 227.996 13.4008H226.316C226.206 13.4008 226.117 13.3116 226.117 13.2016V10.1309C226.117 9.73389 226.059 9.43433 225.943 9.23221C225.828 9.0301 225.648 8.92904 225.402 8.92904C225.157 8.92904 224.962 9.00123 224.817 9.14559C224.673 9.28996 224.568 9.49929 224.503 9.77359C224.446 10.0407 224.417 10.3727 224.417 10.7697V13.2016C224.417 13.3116 224.328 13.4008 224.218 13.4008H222.548C222.438 13.4008 222.349 13.3116 222.349 13.2016V5.37114C222.349 5.26109 222.438 5.17188 222.548 5.17188H224.218C224.328 5.17188 224.417 5.26109 224.417 5.37114V6.34125Z" fill="white"/>
<path d="M232.526 7.30491C233.284 7.30491 233.876 7.49258 234.302 7.86794C234.727 8.2433 234.94 8.77746 234.94 9.47042V13.2016C234.94 13.3116 234.851 13.4008 234.741 13.4008H233.633C233.558 13.4008 233.49 13.3586 233.456 13.2917L233.121 12.632C233.115 12.6188 233.101 12.6104 233.086 12.6104V12.6104C233.074 12.6104 233.063 12.6159 233.055 12.6253C232.893 12.828 232.724 12.9963 232.547 13.1301C232.374 13.2601 232.172 13.3539 231.941 13.4117C231.71 13.4766 231.429 13.5091 231.097 13.5091C230.75 13.5091 230.44 13.4405 230.165 13.3034C229.891 13.159 229.675 12.9461 229.516 12.6646C229.357 12.3758 229.278 12.0113 229.278 11.571C229.278 10.9285 229.498 10.4521 229.938 10.1417C230.386 9.83134 231.032 9.6581 231.876 9.62201L232.786 9.59235C232.834 9.59077 232.872 9.55119 232.872 9.5029V9.5029C232.872 9.23582 232.807 9.04815 232.677 8.93987C232.547 8.82438 232.371 8.76663 232.147 8.76663C231.909 8.76663 231.645 8.80994 231.356 8.89656C231.128 8.95947 230.897 9.03824 230.663 9.13286C230.561 9.17429 230.444 9.12856 230.399 9.02755L229.958 8.01679C229.916 7.92079 229.956 7.80823 230.051 7.76445C230.354 7.6249 230.688 7.51863 231.053 7.44566C231.494 7.35183 231.984 7.30491 232.526 7.30491ZM232.407 10.7481C232.031 10.7625 231.764 10.8311 231.605 10.9538C231.454 11.0693 231.378 11.2353 231.378 11.4519C231.378 11.654 231.432 11.8056 231.54 11.9066C231.649 12.0005 231.793 12.0474 231.974 12.0474C232.226 12.0474 232.439 11.968 232.612 11.8092C232.793 11.6504 232.883 11.4446 232.883 11.192V10.9349C232.883 10.8213 232.788 10.7307 232.675 10.7359L232.407 10.7481Z" fill="white"/>
</svg>
