<svg width="219" height="47" viewBox="0 0 219 47" fill="none" xmlns="http://www.w3.org/2000/svg">
<path d="M59.1102 21.2425V27.1025C59.1102 27.2755 59.1789 27.4414 59.3012 27.5637C59.4235 27.686 59.5894 27.7548 59.7624 27.7548H65.4025C65.4878 27.7545 65.5723 27.7373 65.651 27.7044C65.7297 27.6714 65.8011 27.6233 65.8612 27.5627C65.9213 27.5022 65.9689 27.4303 66.0012 27.3514C66.0336 27.2724 66.05 27.1879 66.0497 27.1025V21.245C66.0494 21.1593 66.066 21.0743 66.0987 20.995C66.1313 20.9157 66.1794 20.8437 66.24 20.7831C66.3006 20.7224 66.3727 20.6744 66.4519 20.6417C66.5312 20.6091 66.6162 20.5924 66.7019 20.5928H69.6092C69.6947 20.5928 69.7794 20.6097 69.8584 20.6425C69.9374 20.6753 70.0092 20.7234 70.0695 20.784C70.1299 20.8446 70.1777 20.9165 70.2102 20.9956C70.2427 21.0747 70.2593 21.1595 70.2589 21.245V38.5597C70.2593 38.6453 70.2427 38.73 70.2102 38.8091C70.1777 38.8882 70.1299 38.9602 70.0695 39.0208C70.0092 39.0814 69.9374 39.1294 69.8584 39.1622C69.7794 39.195 69.6947 39.2119 69.6092 39.2119H66.7019C66.6162 39.2122 66.5312 39.1956 66.4519 39.163C66.3727 39.1303 66.3006 39.0823 66.24 39.0216C66.1794 38.961 66.1313 38.889 66.0987 38.8097C66.066 38.7304 66.0494 38.6455 66.0497 38.5597V32.0701C66.0497 31.8978 65.9813 31.7326 65.8594 31.6108C65.7376 31.4889 65.5723 31.4205 65.4 31.4205H59.7599C59.5873 31.4205 59.4218 31.4888 59.2996 31.6106C59.1773 31.7323 59.1083 31.8976 59.1077 32.0701V38.5597C59.108 38.6453 59.0914 38.73 59.0589 38.8091C59.0264 38.8882 58.9786 38.9602 58.9182 39.0208C58.8579 39.0814 58.7862 39.1294 58.7072 39.1622C58.6282 39.195 58.5435 39.2119 58.4579 39.2119H55.5507C55.4649 39.2122 55.38 39.1956 55.3007 39.163C55.2214 39.1303 55.1494 39.0823 55.0887 39.0216C55.0281 38.961 54.9801 38.889 54.9474 38.8097C54.9148 38.7304 54.8981 38.6455 54.8984 38.5597V21.245C54.8981 21.1593 54.9148 21.0743 54.9474 20.995C54.9801 20.9157 55.0281 20.8437 55.0887 20.7831C55.1494 20.7224 55.2214 20.6744 55.3007 20.6417C55.38 20.6091 55.4649 20.5924 55.5507 20.5928H58.4655C58.637 20.5941 58.8009 20.6632 58.9217 20.7849C59.0424 20.9066 59.1102 21.0711 59.1102 21.2425V21.2425Z" fill="white"/>
<path d="M79.253 34.8994L78.2013 38.7244C78.1632 38.8615 78.0814 38.9824 77.9682 39.0687C77.855 39.155 77.7166 39.2018 77.5743 39.2021H74.5963C74.4944 39.2023 74.3939 39.1786 74.3029 39.1328C74.2119 39.087 74.133 39.0205 74.0724 38.9385C74.0119 38.8566 73.9715 38.7615 73.9545 38.6611C73.9374 38.5607 73.9442 38.4577 73.9744 38.3603L79.258 21.0431C79.2987 20.9099 79.381 20.7932 79.493 20.7104C79.605 20.6276 79.7406 20.5829 79.8799 20.583H84.4304C84.5694 20.5827 84.7048 20.6271 84.8167 20.7094C84.9287 20.7918 85.0112 20.9078 85.0523 21.0406L90.4447 38.3578C90.4747 38.4553 90.4815 38.5584 90.4645 38.6589C90.4474 38.7595 90.407 38.8546 90.3465 38.9367C90.2861 39.0189 90.2072 39.0856 90.1162 39.1317C90.0253 39.1778 89.9248 39.2019 89.8228 39.2021H86.6551C86.5152 39.2019 86.3791 39.1565 86.267 39.0727C86.155 38.9889 86.073 38.8712 86.0332 38.737L84.8779 34.8843C84.8381 34.7503 84.756 34.6329 84.6439 34.5495C84.5318 34.4662 84.3957 34.4213 84.256 34.4216H79.8824C79.7395 34.4205 79.6002 34.4668 79.4863 34.5532C79.3724 34.6397 79.2904 34.7615 79.253 34.8994ZM83.2448 31.2843C83.3457 31.2844 83.4453 31.261 83.5356 31.2159C83.6259 31.1708 83.7045 31.1054 83.7651 31.0246C83.8257 30.9439 83.8666 30.8502 83.8847 30.7509C83.9028 30.6516 83.8975 30.5495 83.8692 30.4526L82.954 27.3279C82.633 26.2281 82.3043 24.8327 82.0187 23.7431H81.9605C81.6875 24.8377 81.4069 26.2509 81.1086 27.3329L80.2263 30.4576C80.1989 30.5544 80.1943 30.6562 80.213 30.7551C80.2316 30.8539 80.273 30.947 80.3337 31.0272C80.3945 31.1073 80.4731 31.1723 80.5632 31.2169C80.6534 31.2615 80.7527 31.2846 80.8532 31.2843H83.2448Z" fill="white"/>
<path d="M110.282 32.0806C110.196 29.8231 110.11 27.1408 110.12 24.4105H110.044C109.45 26.7944 108.669 29.4413 107.969 31.6382L105.83 38.4412C105.788 38.5731 105.706 38.6883 105.595 38.7702C105.483 38.852 105.349 38.8961 105.21 38.8963H102.91C102.768 38.8961 102.63 38.8496 102.517 38.7638C102.404 38.678 102.321 38.5577 102.283 38.421L100.41 31.7014C99.8105 29.5096 99.1911 26.8652 98.731 24.4105H98.6729C98.5793 26.9385 98.4757 29.818 98.3645 32.1362L98.0459 38.5828C98.0381 38.7498 97.9662 38.9074 97.8452 39.0227C97.7242 39.1381 97.5634 39.2023 97.3962 39.2021H94.815C94.7261 39.202 94.6381 39.1836 94.5565 39.1482C94.4749 39.1128 94.4015 39.061 94.3406 38.9961C94.2797 38.9312 94.2328 38.8546 94.2027 38.7709C94.1725 38.6872 94.1598 38.5982 94.1653 38.5095L95.2751 21.1922C95.2854 21.027 95.3584 20.872 95.4792 20.7588C95.5999 20.6456 95.7593 20.5827 95.9249 20.583H100.437C100.578 20.5833 100.715 20.6289 100.827 20.7132C100.94 20.7975 101.022 20.9159 101.062 21.0507L102.741 26.8071C103.33 28.9408 103.903 31.2792 104.321 33.4635H104.409C104.915 31.307 105.549 28.8523 106.179 26.7793L108.012 21.0355C108.054 20.9044 108.136 20.7899 108.248 20.7086C108.359 20.6273 108.493 20.5833 108.631 20.583H113.045C113.212 20.5828 113.372 20.6467 113.493 20.7616C113.614 20.8764 113.686 21.0333 113.695 21.1998L114.625 38.517C114.629 38.6052 114.616 38.6933 114.585 38.7761C114.555 38.8589 114.508 38.9347 114.447 38.9988C114.386 39.0628 114.313 39.1138 114.232 39.1488C114.151 39.1838 114.063 39.2019 113.975 39.2021H111.194C111.026 39.2023 110.865 39.1373 110.744 39.0209C110.622 38.9044 110.551 38.7456 110.545 38.5777L110.282 32.0806Z" fill="white"/>
<path d="M118.878 35.6301C118.901 35.5383 118.943 35.4526 119.002 35.379C119.062 35.3053 119.136 35.2454 119.221 35.2036C119.306 35.1617 119.398 35.1388 119.493 35.1365C119.587 35.1342 119.681 35.1525 119.768 35.1902C121.024 35.7257 122.372 36.01 123.737 36.027C125.668 36.027 126.695 35.2231 126.695 34.0046C126.695 32.8594 125.805 32.1869 123.578 31.4007C120.471 30.2984 118.441 28.6071 118.441 25.8869C118.441 22.7117 121.105 20.3 125.484 20.3C126.918 20.2726 128.345 20.5108 129.693 21.0027C129.844 21.0614 129.968 21.174 130.041 21.3188C130.114 21.4635 130.13 21.6302 130.087 21.7864L129.506 23.8923C129.483 23.9796 129.442 24.061 129.385 24.1313C129.328 24.2016 129.258 24.2593 129.177 24.3005C129.097 24.3417 129.009 24.3656 128.919 24.3707C128.829 24.3757 128.738 24.3617 128.654 24.3297C127.623 23.9297 126.526 23.7256 125.421 23.728C123.588 23.728 122.713 24.5774 122.713 25.528C122.713 26.7111 123.745 27.2344 126.159 28.1445C129.445 29.3782 130.982 31.0897 130.982 33.7214C130.982 36.8284 128.601 39.498 123.477 39.498C121.843 39.4972 120.224 39.1857 118.706 38.5803C118.565 38.518 118.451 38.4074 118.384 38.2683C118.317 38.1293 118.302 37.971 118.342 37.8219L118.878 35.6301Z" fill="white"/>
<path d="M139.042 24.1172H135.32C135.235 24.1176 135.15 24.101 135.071 24.0685C134.992 24.036 134.92 23.9882 134.859 23.9278C134.799 23.8675 134.75 23.7957 134.718 23.7167C134.685 23.6377 134.668 23.553 134.668 23.4675V21.2353C134.668 21.1495 134.684 21.0645 134.717 20.9852C134.75 20.906 134.798 20.8339 134.858 20.7733C134.919 20.7127 134.991 20.6646 135.07 20.632C135.15 20.5993 135.234 20.5827 135.32 20.583H148.347C148.433 20.583 148.518 20.5999 148.597 20.6327C148.676 20.6655 148.747 20.7136 148.808 20.7742C148.868 20.8348 148.916 20.9067 148.948 20.9859C148.981 21.065 148.997 21.1497 148.997 21.2353V23.4675C148.997 23.6398 148.929 23.8051 148.807 23.927C148.685 24.0488 148.52 24.1172 148.347 24.1172H144.555C144.47 24.1172 144.385 24.1341 144.306 24.1669C144.227 24.1997 144.155 24.2478 144.095 24.3084C144.035 24.369 143.987 24.441 143.954 24.5201C143.922 24.5992 143.905 24.684 143.906 24.7695V38.55C143.906 38.6355 143.889 38.7202 143.857 38.7994C143.824 38.8785 143.776 38.9504 143.716 39.011C143.656 39.0716 143.584 39.1197 143.505 39.1525C143.426 39.1853 143.341 39.2022 143.256 39.2022H140.343C140.258 39.2022 140.173 39.1853 140.094 39.1525C140.015 39.1197 139.944 39.0716 139.883 39.011C139.823 38.9504 139.775 38.8785 139.742 38.7994C139.71 38.7202 139.693 38.6355 139.694 38.55V24.7695C139.694 24.6838 139.677 24.599 139.644 24.5199C139.611 24.4408 139.563 24.3688 139.503 24.3083C139.442 24.2477 139.37 24.1997 139.291 24.1669C139.212 24.1341 139.127 24.1172 139.042 24.1172Z" fill="white"/>
<path d="M163.096 31.3247H157.535C157.362 31.3254 157.197 31.3944 157.075 31.5167C156.953 31.6389 156.885 31.8044 156.885 31.977V35.1016C156.885 35.1872 156.901 35.2719 156.934 35.351C156.966 35.4302 157.014 35.5021 157.074 35.5627C157.135 35.6233 157.206 35.6714 157.285 35.7042C157.364 35.737 157.449 35.7539 157.535 35.7539H163.893C164.065 35.7539 164.23 35.8223 164.352 35.9442C164.474 36.066 164.542 36.2313 164.542 36.4036V38.5499C164.543 38.6355 164.526 38.7202 164.494 38.7994C164.461 38.8785 164.413 38.9504 164.353 39.011C164.293 39.0716 164.221 39.1196 164.142 39.1525C164.063 39.1853 163.978 39.2021 163.893 39.2021H153.325C153.24 39.2021 153.155 39.1853 153.076 39.1525C152.997 39.1196 152.926 39.0716 152.865 39.011C152.805 38.9504 152.757 38.8785 152.725 38.7994C152.692 38.7202 152.675 38.6355 152.676 38.5499V21.2353C152.675 21.1497 152.692 21.065 152.725 20.9859C152.757 20.9067 152.805 20.8348 152.865 20.7742C152.926 20.7136 152.997 20.6655 153.076 20.6327C153.155 20.5999 153.24 20.583 153.325 20.583H163.493C163.666 20.583 163.832 20.6517 163.955 20.774C164.077 20.8964 164.146 21.0623 164.146 21.2353V23.3816C164.145 23.5541 164.076 23.7194 163.954 23.8412C163.831 23.9629 163.666 24.0313 163.493 24.0313H157.535C157.449 24.0313 157.364 24.0482 157.285 24.081C157.206 24.1138 157.135 24.1619 157.074 24.2225C157.014 24.2831 156.966 24.355 156.934 24.4341C156.901 24.5132 156.885 24.598 156.885 24.6835V27.2596C156.885 27.4319 156.953 27.5972 157.075 27.719C157.197 27.8409 157.362 27.9093 157.535 27.9093H163.096C163.269 27.91 163.435 27.9789 163.557 28.1011C163.679 28.2233 163.748 28.3888 163.749 28.5616V30.675C163.748 30.8475 163.679 31.0128 163.557 31.1346C163.435 31.2563 163.269 31.3247 163.096 31.3247V31.3247Z" fill="white"/>
<path d="M168.281 21.398C168.282 21.2402 168.339 21.088 168.443 20.9695C168.548 20.851 168.691 20.7741 168.848 20.7534C170.515 20.5367 172.195 20.4319 173.876 20.4399C176.636 20.4399 178.57 20.8621 179.9 21.9138C181.013 22.7986 181.624 24.1056 181.624 25.8171C181.624 28.1757 179.938 29.819 178.338 30.3929V30.4813C179.63 31.0021 180.36 32.2358 180.825 33.9473C181.255 35.5223 181.677 37.2768 182.016 38.3613C182.046 38.4586 182.053 38.5616 182.036 38.6621C182.019 38.7625 181.979 38.8576 181.918 38.9395C181.858 39.0215 181.779 39.088 181.688 39.1338C181.597 39.1796 181.496 39.2033 181.394 39.2031H178.442C178.312 39.2051 178.186 39.1676 178.078 39.0959C177.971 39.0241 177.888 38.9213 177.84 38.8012C177.387 37.5136 177.019 36.1979 176.738 34.8625C176.232 32.5367 175.436 31.9147 173.704 31.892H173.102C172.93 31.8927 172.764 31.9617 172.643 32.0839C172.521 32.2062 172.453 32.3717 172.453 32.5443V38.5509C172.453 38.6367 172.436 38.7216 172.404 38.8009C172.371 38.8802 172.323 38.9522 172.262 39.0128C172.202 39.0735 172.13 39.1215 172.05 39.1542C171.971 39.1868 171.886 39.2035 171.8 39.2031H168.931C168.845 39.2031 168.761 39.1863 168.682 39.1534C168.603 39.1206 168.531 39.0726 168.471 39.012C168.41 38.9514 168.362 38.8795 168.33 38.8003C168.297 38.7212 168.281 38.6365 168.281 38.5509V21.398ZM172.453 28.196C172.453 28.3683 172.521 28.5335 172.643 28.6554C172.765 28.7772 172.93 28.8457 173.102 28.8457H174.113C176.202 28.8457 177.451 27.7814 177.451 26.1634C177.451 24.4595 176.283 23.5873 174.359 23.5772C173.808 23.5772 173.38 23.5974 173.059 23.6278C172.897 23.6411 172.746 23.7151 172.636 23.8351C172.525 23.9551 172.465 24.1122 172.465 24.275L172.453 28.196Z" fill="white"/>
<path d="M18.3765 15.8435C17.6906 16.0176 16.9736 15.75 16.466 15.2567C15.3743 14.1955 13.8841 13.542 12.2413 13.542C8.89346 13.542 6.17945 16.256 6.17945 19.6039C6.17945 19.9681 6.2116 20.3249 6.2732 20.6714C6.35429 21.1276 6.19739 21.6043 5.83326 21.8909C2.6641 24.3848 0.628906 28.2552 0.628906 32.6009C0.628906 40.1233 6.72706 46.2215 14.2495 46.2215C18.1397 46.2215 21.649 44.5907 24.1309 41.9754C26.6128 44.5907 30.122 46.2215 34.0122 46.2215C41.5347 46.2215 47.6329 40.1233 47.6329 32.6009C47.6329 28.6151 45.9209 25.0291 43.1921 22.5383C42.8404 22.2173 42.7221 21.713 42.8515 21.2547C42.9997 20.7299 43.0791 20.1762 43.0791 19.6039C43.0791 16.256 40.3651 13.542 37.0171 13.542C35.4573 13.542 34.0351 14.1312 32.9609 15.099C32.4786 15.5336 31.8271 15.7705 31.1928 15.633C29.3131 15.2257 27.3105 15.0059 25.2322 15.0059C22.8205 15.0059 20.5105 15.302 18.3765 15.8435Z" fill="#A05E1C"/>
<path d="M6.21073 21.3723C6.13481 21.5739 6.00786 21.755 5.83326 21.8924C2.6641 24.3864 0.628906 28.2567 0.628906 32.6024C0.628906 40.1248 6.72706 46.223 14.2495 46.223C18.1397 46.223 21.649 44.5922 24.1309 41.9769C26.6128 44.5922 30.122 46.223 34.0122 46.223C41.5347 46.223 47.6329 40.1248 47.6329 32.6024C47.6329 28.6166 45.9209 25.0306 43.192 22.5398C42.9271 22.2979 42.7946 21.9521 42.8008 21.6002L42.7302 21.8021C42.7302 21.8021 34.6979 20.6559 30.1889 25.1741C23.8306 31.5454 23.8306 38.9897 23.8306 38.9897C23.8306 38.9897 23.8306 30.9939 17.6896 25.1741C12.6441 20.3924 6.23775 21.4038 6.23775 21.4038L6.21073 21.3723Z" fill="#E9C89C"/>
<path d="M22.974 42.0493C23.5105 42.675 24.4785 42.675 25.015 42.0493L26.19 40.6791C26.9377 39.8072 26.3181 38.4597 25.1695 38.4597H22.8196C21.6709 38.4597 21.0514 39.8072 21.7991 40.6791L22.974 42.0493Z" fill="black"/>
<path d="M33.7153 32.3853C34.7042 31.8864 35.2142 30.3709 34.8542 29.0004C34.4943 27.6298 33.4007 26.9231 32.4118 27.4219C31.4228 27.9208 30.9129 29.4363 31.2728 30.8069C31.6328 32.1774 32.7263 32.8841 33.7153 32.3853Z" fill="black"/>
<path d="M32.7107 29.3904C33.0802 29.2559 33.2707 28.8474 33.1362 28.4779C33.0017 28.1084 32.5932 27.9179 32.2237 28.0524C31.8542 28.1869 31.6637 28.5954 31.7982 28.9649C31.9327 29.3344 32.3412 29.5249 32.7107 29.3904Z" fill="white"/>
<path d="M14.519 32.3853C13.5301 31.8865 13.0201 30.371 13.3801 29.0004C13.7401 27.6298 14.8336 26.9231 15.8226 27.4219C16.8116 27.9208 17.3215 29.4363 16.9615 30.8069C16.6016 32.1775 15.508 32.8842 14.519 32.3853Z" fill="black"/>
<path d="M15.5237 29.3904C15.1542 29.256 14.9637 28.8474 15.0981 28.4779C15.2326 28.1084 15.6412 27.9179 16.0107 28.0524C16.3802 28.1869 16.5707 28.5954 16.4362 28.9649C16.3017 29.3344 15.8931 29.5249 15.5237 29.3904Z" fill="white"/>
<path fill-rule="evenodd" clip-rule="evenodd" d="M27.04 38.9331C26.2284 39.4596 25.6002 40.0976 25.2708 40.5235L25.2148 40.4802C25.5489 40.0484 26.1828 39.4048 27.0015 38.8738C27.8202 38.3428 28.8263 37.9225 29.9039 37.9421L29.9026 38.0128C28.844 37.9936 27.8517 38.4066 27.04 38.9331Z" fill="black"/>
<path fill-rule="evenodd" clip-rule="evenodd" d="M27.7702 39.8493C26.8163 40.0106 25.9866 40.347 25.5152 40.6072L25.481 40.5453C25.9589 40.2814 26.7962 39.9422 27.7584 39.7796C28.7205 39.6169 29.8109 39.6303 30.7922 40.0758L30.763 40.1402C29.7989 39.7026 28.7242 39.6881 27.7702 39.8493Z" fill="black"/>
<path fill-rule="evenodd" clip-rule="evenodd" d="M27.6639 40.9934C26.7052 40.8638 25.8129 40.9384 25.2855 41.0467L25.2713 40.9774C25.806 40.8675 26.7063 40.7926 27.6733 40.9233C28.6403 41.0541 29.6774 41.391 30.4819 42.1081L30.4348 42.1609C29.6445 41.4565 28.6226 41.1231 27.6639 40.9934Z" fill="black"/>
<path fill-rule="evenodd" clip-rule="evenodd" d="M21.0225 38.9331C21.8341 39.4596 22.4623 40.0976 22.7917 40.5235L22.8477 40.4802C22.5136 40.0484 21.8797 39.4048 21.061 38.8738C20.2423 38.3428 19.2362 37.9225 18.1586 37.9421L18.1599 38.0128C19.2185 37.9936 20.2108 38.4066 21.0225 38.9331Z" fill="black"/>
<path fill-rule="evenodd" clip-rule="evenodd" d="M20.2532 39.8493C21.2071 40.0106 22.0368 40.347 22.5082 40.6072L22.5424 40.5453C22.0645 40.2814 21.2272 39.9422 20.265 39.7796C19.3029 39.6169 18.2125 39.6303 17.2312 40.0758L17.2605 40.1402C18.2245 39.7026 19.2992 39.6881 20.2532 39.8493Z" fill="black"/>
<path fill-rule="evenodd" clip-rule="evenodd" d="M20.3518 40.9934C21.3105 40.8638 22.2027 40.9384 22.7301 41.0467L22.7444 40.9774C22.2096 40.8675 21.3093 40.7926 20.3423 40.9233C19.3753 41.0541 18.3382 41.391 17.5337 42.1081L17.5808 42.1609C18.3711 41.4565 19.393 41.1231 20.3518 40.9934Z" fill="black"/>
<path fill-rule="evenodd" clip-rule="evenodd" d="M178.542 0.223633H215.498V1.95139H217.229V0.223633H218.961V12.0711C218.961 15.4101 216.254 18.117 212.915 18.117H172.496V16.3853H174.227V18.1168H175.959V16.3852H174.228V14.6536H172.496V6.26951C172.496 2.93047 175.203 0.223633 178.542 0.223633ZM218.96 1.95151H217.229V3.68312H218.96V1.95151Z" fill="white"/>
<path d="M183.526 12.0403C183.515 12.0036 183.481 11.9786 183.442 11.9786H181.212C181.173 11.9786 181.139 12.0039 181.128 12.0409L180.833 13.0263C180.822 13.0633 180.788 13.0886 180.75 13.0886H178.826C178.765 13.0886 178.722 13.0276 178.744 12.9705L181.204 6.41509C181.217 6.38099 181.25 6.3584 181.286 6.3584H183.438C183.474 6.3584 183.507 6.38099 183.519 6.41509L185.98 12.9705C186.001 13.0276 185.959 13.0886 185.898 13.0886H183.912C183.874 13.0886 183.84 13.0636 183.829 13.0269L183.526 12.0403ZM182.96 10.5189C183.019 10.5189 183.061 10.462 183.044 10.4058L182.42 8.37168C182.394 8.28919 182.278 8.28938 182.253 8.37196L181.636 10.4061C181.619 10.4623 181.661 10.5189 181.719 10.5189H182.96Z" fill="#1D1C1A"/>
<path d="M186.633 6.4458C186.633 6.39753 186.672 6.3584 186.72 6.3584H188.416C188.464 6.3584 188.503 6.39753 188.503 6.4458V13.0012C188.503 13.0495 188.464 13.0886 188.416 13.0886H186.72C186.672 13.0886 186.633 13.0495 186.633 13.0012V6.4458Z" fill="#1D1C1A"/>
<path d="M189.703 13.1466V6.50377C189.703 6.4555 189.742 6.41636 189.791 6.41636H191.364C191.412 6.41636 191.451 6.4555 191.451 6.50377V6.88391C191.451 6.96653 191.557 7.00425 191.612 6.94284C191.793 6.74176 191.96 6.60259 192.116 6.52125C192.386 6.3814 192.692 6.30273 193.016 6.30273C193.671 6.30273 194.17 6.55621 194.528 7.05442C194.886 7.55263 195.061 8.17321 195.061 8.90741C195.061 9.72028 194.869 10.3409 194.475 10.7604C194.082 11.1799 193.593 11.3985 192.998 11.3985C192.71 11.3985 192.448 11.346 192.212 11.2499C192.038 11.179 191.878 11.0797 191.729 10.9554C191.669 10.9055 191.574 10.946 191.574 11.0239V13.0504C191.574 13.0987 191.534 13.1378 191.486 13.1378H189.712C189.707 13.1378 189.703 13.1417 189.703 13.1466V13.1466ZM191.574 8.87245C191.574 9.25703 191.652 9.54547 191.818 9.72902C191.984 9.91257 192.185 10.0087 192.43 10.0087C192.649 10.0087 192.832 9.92131 192.981 9.73776C193.129 9.56295 193.199 9.25703 193.199 8.82875C193.199 8.43542 193.121 8.14698 192.972 7.95469C192.815 7.77114 192.631 7.675 192.413 7.675C192.177 7.675 191.976 7.77114 191.818 7.95469C191.652 8.14698 191.574 8.4529 191.574 8.87245Z" fill="#1D1C1A"/>
<path d="M195.969 6.4458C195.969 6.39753 196.008 6.3584 196.056 6.3584H197.752C197.8 6.3584 197.839 6.39753 197.839 6.4458V8.62453C197.839 8.70312 197.936 8.74279 197.994 8.68956C198.196 8.50357 198.398 8.3631 198.6 8.27257C198.853 8.15895 199.15 8.1065 199.491 8.1065C199.998 8.1065 200.4 8.26383 200.689 8.56975C200.977 8.87567 201.126 9.3564 201.126 9.99446V13.0099C201.126 13.0582 201.087 13.0973 201.038 13.0973H199.334C199.286 13.0973 199.246 13.0582 199.246 13.0099V10.414C199.246 10.1081 199.194 9.88957 199.08 9.7672C198.967 9.6361 198.809 9.57491 198.6 9.57491C198.372 9.57491 198.189 9.66232 198.049 9.82839C197.909 10.0032 197.839 10.3091 197.839 10.7549V13.0099C197.839 13.0582 197.8 13.0973 197.752 13.0973H196.056C196.008 13.0973 195.969 13.0582 195.969 13.0099V6.4458Z" fill="#1D1C1A"/>
<path d="M203.957 9.72692C203.942 9.7658 203.904 9.79115 203.863 9.7867L202.248 9.61253C202.196 9.60694 202.16 9.55747 202.173 9.50692C202.24 9.23765 202.329 9.02463 202.439 8.86785C202.57 8.69304 202.745 8.53571 202.99 8.4046C203.164 8.30845 203.4 8.23853 203.698 8.18609C203.995 8.13364 204.318 8.10742 204.668 8.10742C205.227 8.10742 205.682 8.14238 206.014 8.20357C206.355 8.26475 206.634 8.39586 206.862 8.59689C207.019 8.73674 207.15 8.92903 207.237 9.18251C207.334 9.43598 207.377 9.67198 207.377 9.90797V12.0581C207.377 12.2854 207.395 12.4689 207.421 12.6001C207.442 12.7028 207.489 12.8269 207.555 12.9726C207.581 13.0312 207.539 13.0983 207.475 13.0983H205.907C205.876 13.0983 205.847 13.0815 205.832 13.054C205.776 12.9525 205.74 12.8711 205.717 12.8098C205.703 12.7734 205.692 12.7298 205.681 12.6766C205.668 12.6059 205.581 12.5747 205.526 12.6218C205.325 12.7963 205.123 12.9244 204.921 13.0109C204.589 13.142 204.204 13.2119 203.767 13.2119C203.182 13.2119 202.745 13.0808 202.439 12.8098C202.133 12.5389 201.984 12.2067 201.984 11.8134C201.984 11.4463 202.089 11.1404 202.308 10.8956C202.526 10.6509 202.928 10.4761 203.514 10.3625C204.213 10.2226 204.668 10.1265 204.877 10.0653C205.07 10.0171 205.27 9.94678 205.485 9.86787C205.519 9.85524 205.542 9.82249 205.541 9.78595C205.533 9.5898 205.489 9.44546 205.402 9.36606C205.306 9.26991 205.14 9.22621 204.904 9.22621C204.598 9.22621 204.371 9.27865 204.213 9.3748C204.112 9.42944 204.024 9.54681 203.957 9.72692ZM205.552 10.7733C205.551 10.7733 205.55 10.7734 205.549 10.7738C205.296 10.8697 205.026 10.9482 204.746 11.018C204.371 11.1229 204.126 11.219 204.03 11.3152C203.925 11.4201 203.872 11.5337 203.872 11.6561C203.872 11.8047 203.925 11.927 204.03 12.0144C204.135 12.1106 204.283 12.1543 204.484 12.1543C204.694 12.1543 204.886 12.1018 205.061 12.0057C205.236 11.9008 205.367 11.7784 205.446 11.6386C205.524 11.49 205.559 11.3065 205.559 11.0705V10.7807C205.559 10.7766 205.556 10.7733 205.552 10.7733V10.7733Z" fill="#1D1C1A"/>
<path d="M207.559 6.00924C207.559 5.96097 207.598 5.92184 207.646 5.92184H209.228C209.276 5.92184 209.315 5.8827 209.315 5.83443V4.24366C209.315 4.19538 209.355 4.15625 209.403 4.15625H210.714C210.762 4.15625 210.801 4.19538 210.801 4.24366V5.83443C210.801 5.8827 210.84 5.92184 210.889 5.92184H212.48C212.528 5.92184 212.567 5.96097 212.567 6.00924V7.32032C212.567 7.36859 212.528 7.40773 212.48 7.40773H210.889C210.84 7.40773 210.801 7.44686 210.801 7.49513V9.07717C210.801 9.12544 210.762 9.16457 210.714 9.16457H209.403C209.355 9.16457 209.315 9.12544 209.315 9.07717V7.49513C209.315 7.44686 209.276 7.40773 209.228 7.40773H207.646C207.598 7.40773 207.559 7.36859 207.559 7.32032V6.00924Z" fill="#1D1C1A"/>
</svg>
