<svg width="219" height="46" viewBox="0 0 219 46" fill="none" xmlns="http://www.w3.org/2000/svg">
<path d="M58.8293 21.0219V26.8823C58.8293 27.0553 58.898 27.2212 59.0203 27.3435C59.1426 27.4659 59.3085 27.5346 59.4815 27.5346H65.1221C65.2074 27.5343 65.2918 27.5172 65.3705 27.4842C65.4492 27.4512 65.5207 27.4031 65.5808 27.3425C65.6409 27.282 65.6885 27.2102 65.7208 27.1312C65.7532 27.0522 65.7696 26.9677 65.7693 26.8823V21.0244C65.769 20.9386 65.7856 20.8536 65.8183 20.7743C65.8509 20.695 65.899 20.623 65.9596 20.5624C66.0202 20.5017 66.0923 20.4537 66.1716 20.421C66.2509 20.3884 66.3358 20.3717 66.4216 20.3721H69.3291C69.4146 20.3721 69.4993 20.389 69.5783 20.4218C69.6573 20.4546 69.729 20.5027 69.7894 20.5633C69.8498 20.6239 69.8976 20.6958 69.9301 20.775C69.9626 20.8541 69.9792 20.9388 69.9789 21.0244V38.3404C69.9792 38.4259 69.9626 38.5107 69.9301 38.5898C69.8976 38.6689 69.8498 38.7409 69.7894 38.8015C69.729 38.8621 69.6573 38.9101 69.5783 38.9429C69.4993 38.9758 69.4146 38.9926 69.3291 38.9926H66.4216C66.3358 38.993 66.2509 38.9763 66.1716 38.9437C66.0923 38.911 66.0202 38.863 65.9596 38.8023C65.899 38.7417 65.8509 38.6697 65.8183 38.5904C65.7856 38.5111 65.769 38.4261 65.7693 38.3404V31.8503C65.7693 31.678 65.7009 31.5128 65.579 31.3909C65.4572 31.269 65.2919 31.2006 65.1196 31.2006H59.479C59.3065 31.2006 59.1409 31.2689 59.0187 31.3907C58.8964 31.5125 58.8274 31.6778 58.8267 31.8503V38.3404C58.8271 38.4259 58.8105 38.5107 58.778 38.5898C58.7455 38.6689 58.6977 38.7409 58.6373 38.8015C58.5769 38.8621 58.5052 38.9101 58.4262 38.9429C58.3472 38.9758 58.2625 38.9926 58.177 38.9926H55.2695C55.1837 38.993 55.0987 38.9763 55.0195 38.9437C54.9402 38.911 54.8681 38.863 54.8075 38.8023C54.7469 38.7417 54.6988 38.6697 54.6662 38.5904C54.6335 38.5111 54.6169 38.4261 54.6172 38.3404V21.0244C54.6169 20.9386 54.6335 20.8536 54.6662 20.7743C54.6988 20.695 54.7469 20.623 54.8075 20.5624C54.8681 20.5017 54.9402 20.4537 55.0195 20.421C55.0987 20.3884 55.1837 20.3717 55.2695 20.3721H58.1846C58.356 20.3734 58.52 20.4425 58.6407 20.5642C58.7615 20.6859 58.8293 20.8504 58.8293 21.0219V21.0219Z" fill="black"/>
<path d="M78.9721 34.6818L77.9204 38.507C77.8823 38.6441 77.8004 38.7651 77.6872 38.8514C77.574 38.9376 77.4357 38.9845 77.2933 38.9848H74.3151C74.2132 38.985 74.1127 38.9613 74.0217 38.9155C73.9307 38.8697 73.8517 38.8031 73.7912 38.7212C73.7307 38.6392 73.6903 38.5442 73.6732 38.4437C73.6562 38.3433 73.663 38.2403 73.6931 38.1429L78.9772 20.8244C79.0178 20.6912 79.1002 20.5745 79.2122 20.4917C79.3242 20.4088 79.4598 20.3642 79.5991 20.3643H84.15C84.2889 20.364 84.4244 20.4083 84.5363 20.4907C84.6482 20.573 84.7308 20.6891 84.7719 20.8219L90.1647 38.1404C90.1947 38.2379 90.2015 38.341 90.1845 38.4416C90.1674 38.5421 90.127 38.6373 90.0665 38.7194C90.0061 38.8015 89.9272 38.8683 89.8362 38.9144C89.7453 38.9605 89.6447 38.9846 89.5428 38.9848H86.3748C86.2349 38.9846 86.0988 38.9392 85.9867 38.8554C85.8747 38.7716 85.7927 38.6538 85.7529 38.5196L84.5975 34.6666C84.5576 34.5327 84.4755 34.4153 84.3634 34.3319C84.2513 34.2485 84.1153 34.2036 83.9755 34.2039H79.6016C79.4587 34.2028 79.3194 34.2491 79.2055 34.3356C79.0916 34.422 79.0095 34.5438 78.9721 34.6818ZM82.9642 31.0664C83.0652 31.0665 83.1648 31.043 83.2551 30.998C83.3454 30.9529 83.424 30.8874 83.4846 30.8067C83.5452 30.726 83.5862 30.6323 83.6042 30.5329C83.6223 30.4336 83.617 30.3315 83.5887 30.2346L82.6735 27.1096C82.3524 26.0098 82.0237 24.6142 81.738 23.5246H81.6799C81.4068 24.6193 81.1262 26.0326 80.8279 27.1147L79.9455 30.2396C79.9181 30.3364 79.9136 30.4382 79.9322 30.5371C79.9509 30.6359 79.9922 30.7291 80.053 30.8092C80.1138 30.8894 80.1923 30.9543 80.2825 30.999C80.3726 31.0436 80.4719 31.0666 80.5725 31.0664H82.9642Z" fill="black"/>
<path d="M110.002 31.8627C109.916 29.605 109.83 26.9225 109.84 24.192H109.764C109.17 26.5761 108.389 29.2232 107.688 31.4203L105.549 38.2238C105.508 38.3557 105.426 38.471 105.314 38.5528C105.203 38.6346 105.068 38.6788 104.93 38.6789H102.629C102.487 38.6787 102.349 38.6322 102.236 38.5464C102.123 38.4607 102.041 38.3403 102.002 38.2036L100.129 31.4835C99.5297 29.2915 98.9102 26.6469 98.4501 24.192H98.392C98.2984 26.7203 98.1948 29.5999 98.0835 31.9184L97.765 38.3654C97.7572 38.5324 97.6852 38.69 97.5642 38.8054C97.4432 38.9207 97.2824 38.985 97.1152 38.9848H94.5338C94.4449 38.9846 94.3569 38.9663 94.2753 38.9309C94.1937 38.8954 94.1202 38.8437 94.0594 38.7788C93.9985 38.7139 93.9516 38.6372 93.9214 38.5535C93.8913 38.4698 93.8786 38.3809 93.8841 38.2921L94.994 20.9735C95.0043 20.8083 95.0773 20.6533 95.198 20.5401C95.3188 20.4268 95.4782 20.3639 95.6438 20.3643H100.157C100.297 20.3645 100.434 20.4102 100.547 20.4944C100.659 20.5787 100.741 20.6972 100.781 20.832L102.46 26.5888C103.049 28.7227 103.623 31.0613 104.04 33.2457H104.129C104.634 31.0891 105.269 28.6342 105.898 26.561L107.731 20.8168C107.774 20.6856 107.856 20.5712 107.967 20.4899C108.079 20.4086 108.213 20.3646 108.351 20.3643H112.765C112.932 20.364 113.092 20.428 113.213 20.5428C113.334 20.6577 113.406 20.8146 113.415 20.9811L114.345 38.2997C114.35 38.3878 114.336 38.476 114.306 38.5588C114.275 38.6416 114.228 38.7174 114.167 38.7814C114.106 38.8455 114.033 38.8965 113.952 38.9315C113.871 38.9664 113.784 38.9846 113.695 38.9848H110.914C110.746 38.9849 110.585 38.92 110.464 38.8035C110.342 38.6871 110.271 38.5282 110.265 38.3603L110.002 31.8627Z" fill="black"/>
<path d="M118.593 35.4096C118.616 35.3178 118.658 35.2321 118.717 35.1584C118.776 35.0848 118.851 35.0249 118.936 34.983C119.02 34.9411 119.113 34.9182 119.208 34.9159C119.302 34.9136 119.396 34.932 119.483 34.9697C120.739 35.5052 122.087 35.7895 123.452 35.8065C125.384 35.8065 126.41 35.0026 126.41 33.7839C126.41 32.6386 125.52 31.9661 123.293 31.1798C120.186 30.0775 118.156 28.3861 118.156 25.6657C118.156 22.4902 120.82 20.0783 125.199 20.0783C126.634 20.0509 128.061 20.2891 129.409 20.7811C129.56 20.8398 129.684 20.9524 129.757 21.0972C129.829 21.242 129.846 21.4086 129.803 21.5649L129.222 23.6709C129.199 23.7582 129.157 23.8396 129.101 23.9099C129.044 23.9802 128.973 24.0379 128.893 24.0791C128.813 24.1203 128.725 24.1443 128.634 24.1493C128.544 24.1543 128.454 24.1404 128.37 24.1083C127.339 23.7083 126.242 23.5042 125.136 23.5066C123.303 23.5066 122.428 24.3561 122.428 25.3067C122.428 26.4899 123.46 27.0132 125.874 27.9234C129.161 29.1572 130.698 30.8688 130.698 33.5007C130.698 36.608 128.317 39.2778 123.192 39.2778C121.558 39.277 119.939 38.9655 118.421 38.36C118.28 38.2977 118.166 38.1871 118.099 38.048C118.032 37.909 118.017 37.7506 118.057 37.6016L118.593 35.4096Z" fill="black"/>
<path d="M138.761 23.8988H135.039C134.953 23.8991 134.869 23.8826 134.79 23.8501C134.71 23.8175 134.639 23.7697 134.578 23.7093C134.517 23.649 134.469 23.5772 134.436 23.4982C134.404 23.4192 134.387 23.3345 134.387 23.249V21.0166C134.386 20.9308 134.403 20.8458 134.436 20.7665C134.468 20.6872 134.516 20.6152 134.577 20.5546C134.638 20.4939 134.71 20.4459 134.789 20.4132C134.868 20.3805 134.953 20.3639 135.039 20.3643H148.067C148.153 20.3643 148.237 20.3811 148.316 20.414C148.395 20.4468 148.467 20.4949 148.527 20.5555C148.588 20.6161 148.636 20.688 148.668 20.7671C148.701 20.8463 148.717 20.931 148.717 21.0166V23.249C148.717 23.4213 148.648 23.5866 148.527 23.7085C148.405 23.8303 148.239 23.8988 148.067 23.8988H144.275C144.189 23.8988 144.104 23.9156 144.026 23.9484C143.947 23.9813 143.875 24.0294 143.814 24.09C143.754 24.1506 143.706 24.2225 143.674 24.3016C143.641 24.3808 143.625 24.4655 143.625 24.5511V38.3326C143.625 38.4181 143.609 38.5029 143.576 38.582C143.544 38.6611 143.496 38.7331 143.436 38.7937C143.375 38.8543 143.303 38.9023 143.224 38.9351C143.145 38.9679 143.061 38.9848 142.975 38.9848H140.063C139.977 38.9848 139.892 38.9679 139.813 38.9351C139.734 38.9023 139.663 38.8543 139.602 38.7937C139.542 38.7331 139.494 38.6611 139.462 38.582C139.429 38.5029 139.413 38.4181 139.413 38.3326V24.5511C139.413 24.4654 139.396 24.3806 139.363 24.3014C139.33 24.2223 139.282 24.1504 139.222 24.0898C139.161 24.0292 139.089 23.9812 139.01 23.9484C138.931 23.9157 138.846 23.8988 138.761 23.8988Z" fill="black"/>
<path d="M162.824 31.1068H157.262C157.089 31.1075 156.924 31.1765 156.802 31.2988C156.68 31.421 156.612 31.5865 156.612 31.7591V34.884C156.612 34.9695 156.628 35.0543 156.661 35.1334C156.693 35.2125 156.741 35.2845 156.801 35.3451C156.862 35.4057 156.933 35.4538 157.012 35.4866C157.091 35.5194 157.176 35.5363 157.262 35.5363H163.62C163.793 35.5363 163.958 35.6047 164.08 35.7266C164.202 35.8485 164.27 36.0137 164.27 36.1861V38.3326C164.27 38.4181 164.254 38.5029 164.221 38.582C164.189 38.6611 164.141 38.733 164.081 38.7936C164.02 38.8542 163.948 38.9023 163.869 38.9351C163.79 38.9679 163.706 38.9848 163.62 38.9848H153.052C152.967 38.9848 152.882 38.9679 152.803 38.9351C152.724 38.9023 152.652 38.8542 152.592 38.7936C152.531 38.733 152.484 38.6611 152.451 38.582C152.419 38.5029 152.402 38.4181 152.402 38.3326V21.0166C152.402 20.931 152.419 20.8463 152.451 20.7671C152.484 20.688 152.531 20.6161 152.592 20.5555C152.652 20.4949 152.724 20.4468 152.803 20.4139C152.882 20.3811 152.967 20.3643 153.052 20.3643H163.221C163.394 20.3643 163.56 20.433 163.682 20.5553C163.804 20.6776 163.873 20.8436 163.873 21.0166V23.163C163.872 23.3356 163.803 23.5009 163.681 23.6227C163.559 23.7444 163.393 23.8128 163.221 23.8128H157.262C157.176 23.8128 157.091 23.8297 157.012 23.8625C156.933 23.8953 156.862 23.9434 156.801 24.004C156.741 24.0646 156.693 24.1365 156.661 24.2156C156.628 24.2948 156.612 24.3795 156.612 24.4651V27.0413C156.612 27.2137 156.68 27.379 156.802 27.5008C156.924 27.6227 157.089 27.6911 157.262 27.6911H162.824C162.997 27.6918 163.162 27.7607 163.284 27.8829C163.406 28.0051 163.475 28.1706 163.476 28.3434V30.457C163.475 30.6296 163.406 30.7948 163.284 30.9166C163.162 31.0384 162.996 31.1068 162.824 31.1068V31.1068Z" fill="black"/>
<path d="M167.996 21.1784C167.997 21.0206 168.054 20.8683 168.158 20.7498C168.262 20.6313 168.406 20.5544 168.562 20.5336C170.23 20.3169 171.91 20.2122 173.591 20.2201C176.352 20.2201 178.286 20.6424 179.616 21.6941C180.728 22.579 181.34 23.8861 181.34 25.5977C181.34 27.9566 179.654 29.6 178.053 30.1739V30.2624C179.345 30.7832 180.076 32.017 180.541 33.7286C180.971 35.3037 181.393 37.0583 181.732 38.143C181.762 38.2403 181.769 38.3433 181.752 38.4437C181.735 38.5442 181.695 38.6393 181.634 38.7212C181.573 38.8031 181.495 38.8697 181.404 38.9155C181.313 38.9613 181.212 38.985 181.11 38.9848H178.157C178.028 38.9868 177.901 38.9494 177.794 38.8776C177.686 38.8058 177.603 38.703 177.555 38.5829C177.103 37.2952 176.735 35.9794 176.453 34.6438C175.947 32.3178 175.151 31.6959 173.419 31.6731H172.817C172.645 31.6738 172.48 31.7429 172.358 31.8651C172.236 31.9874 172.168 32.1529 172.168 32.3255V38.3326C172.168 38.4183 172.151 38.5033 172.119 38.5826C172.086 38.6619 172.038 38.7339 171.977 38.7945C171.917 38.8552 171.845 38.9032 171.765 38.9359C171.686 38.9685 171.601 38.9852 171.515 38.9848H168.646C168.56 38.9848 168.476 38.968 168.397 38.9351C168.318 38.9023 168.246 38.8543 168.186 38.7937C168.125 38.7331 168.077 38.6611 168.045 38.582C168.012 38.5029 167.996 38.4181 167.996 38.3326V21.1784ZM172.168 27.9769C172.168 28.1492 172.236 28.3144 172.358 28.4363C172.48 28.5581 172.645 28.6266 172.817 28.6266H173.829C175.917 28.6266 177.166 27.5622 177.166 25.9441C177.166 24.2401 175.998 23.3679 174.074 23.3577C173.523 23.3577 173.096 23.378 172.774 23.4083C172.612 23.4217 172.461 23.4957 172.351 23.6156C172.241 23.7356 172.18 23.8927 172.18 24.0555L172.168 27.9769Z" fill="black"/>
<path d="M18.1005 15.6191C17.4145 15.7931 16.6975 15.5255 16.1899 15.0322C15.098 13.9709 13.6078 13.3174 11.9648 13.3174C8.61674 13.3174 5.90253 16.0316 5.90253 19.3797C5.90253 19.744 5.93468 20.1008 5.99629 20.4474C6.07738 20.9036 5.92047 21.3803 5.55632 21.6669C2.38691 24.1611 0.351562 28.0317 0.351562 32.3777C0.351562 39.9007 6.45018 45.9994 13.9732 45.9994C17.8637 45.9994 21.3732 44.3684 23.8553 41.7529C26.3374 44.3684 29.8469 45.9994 33.7374 45.9994C41.2605 45.9994 47.3591 39.9007 47.3591 32.3777C47.3591 28.3916 45.647 24.8054 42.9179 22.3144C42.5662 21.9933 42.448 21.489 42.5774 21.0307C42.7256 20.5058 42.8049 19.9521 42.8049 19.3797C42.8049 16.0316 40.0907 13.3174 36.7425 13.3174C35.1826 13.3174 33.7603 13.9066 32.686 14.8745C32.2037 15.3091 31.5521 15.546 30.9177 15.4086C29.038 15.0012 27.0351 14.7814 24.9567 14.7814C22.5448 14.7814 20.2347 15.0775 18.1005 15.6191Z" fill="#A05E1C"/>
<path d="M5.93381 21.1477C5.85789 21.3493 5.73093 21.5304 5.55631 21.6678C2.38691 24.162 0.351562 28.0326 0.351562 32.3786C0.351562 39.9017 6.45018 46.0003 13.9732 46.0003C17.8637 46.0003 21.3732 44.3693 23.8553 41.7538C26.3374 44.3693 29.8469 46.0003 33.7374 46.0003C41.2605 46.0003 47.3591 39.9017 47.3591 32.3786C47.3591 28.3925 45.647 24.8063 42.9179 22.3153C42.653 22.0734 42.5205 21.7275 42.5266 21.3756L42.4561 21.5775C42.4561 21.5775 34.4232 20.4312 29.9138 24.9498C23.555 31.3215 23.555 38.7664 23.555 38.7664C23.555 38.7664 23.555 30.7701 17.4136 24.9498C12.3677 20.1677 5.96083 21.1792 5.96083 21.1792L5.93381 21.1477Z" fill="#E9C89C"/>
<path d="M22.6968 41.8276C23.2333 42.4533 24.2014 42.4533 24.7379 41.8276L25.913 40.4573C26.6608 39.5853 26.0412 38.2377 24.8924 38.2377H22.5423C21.3936 38.2377 20.774 39.5853 21.5218 40.4573L22.6968 41.8276Z" fill="black"/>
<path d="M33.4577 32.1678C34.4467 31.6689 34.9567 30.1533 34.5967 28.7826C34.2367 27.4119 33.1431 26.7052 32.1541 27.2041C31.1651 27.703 30.6551 29.2186 31.0151 30.5893C31.3751 31.96 32.4687 32.6667 33.4577 32.1678Z" fill="black"/>
<path d="M32.4608 29.1718C32.8303 29.0373 33.0208 28.6287 32.8863 28.2592C32.7518 27.8897 32.3433 27.6991 31.9737 27.8336C31.6042 27.9681 31.4137 28.3767 31.5482 28.7462C31.6827 29.1157 32.0913 29.3062 32.4608 29.1718Z" fill="white"/>
<path d="M14.2493 32.1679C13.2602 31.669 12.7503 30.1534 13.1102 28.7826C13.4702 27.4119 14.5639 26.7052 15.5529 27.2041C16.542 27.703 17.0519 29.2186 16.6919 30.5893C16.3319 31.96 15.2383 32.6668 14.2493 32.1679Z" fill="black"/>
<path d="M15.2462 29.1737C14.8767 29.0392 14.6862 28.6306 14.8207 28.2611C14.9552 27.8916 15.3638 27.7011 15.7333 27.8356C16.1028 27.9701 16.2933 28.3787 16.1588 28.7482C16.0243 29.1177 15.6157 29.3082 15.2462 29.1737Z" fill="white"/>
<path fill-rule="evenodd" clip-rule="evenodd" d="M26.7589 38.7145C25.9472 39.241 25.319 39.879 24.9896 40.3049L24.9336 40.2616C25.2676 39.8298 25.9017 39.1862 26.7204 38.6551C27.5391 38.1241 28.5454 37.7037 29.623 37.7233L29.6217 37.7941C28.5631 37.7748 27.5707 38.1879 26.7589 38.7145Z" fill="black"/>
<path fill-rule="evenodd" clip-rule="evenodd" d="M27.4891 39.6317C26.5351 39.7929 25.7053 40.1294 25.2339 40.3896L25.1997 40.3277C25.6777 40.0638 26.515 39.7246 27.4773 39.5619C28.4395 39.3993 29.5299 39.4126 30.5113 39.8582L30.4821 39.9226C29.5179 39.4849 28.4431 39.4704 27.4891 39.6317Z" fill="black"/>
<path fill-rule="evenodd" clip-rule="evenodd" d="M27.3983 40.7739C26.4395 40.6442 25.5472 40.7188 25.0198 40.8271L25.0055 40.7578C25.5403 40.648 26.4407 40.573 27.4078 40.7037C28.3748 40.8345 29.412 41.1714 30.2165 41.8886L30.1695 41.9414C29.3791 41.2369 28.3571 40.9035 27.3983 40.7739Z" fill="black"/>
<path fill-rule="evenodd" clip-rule="evenodd" d="M20.7333 38.7145C21.5449 39.241 22.1732 39.879 22.5026 40.3049L22.5586 40.2616C22.2246 39.8298 21.5905 39.1862 20.7718 38.6551C19.9531 38.1241 18.9468 37.7037 17.8692 37.7233L17.8705 37.7941C18.9291 37.7748 19.9215 38.1879 20.7333 38.7145Z" fill="black"/>
<path fill-rule="evenodd" clip-rule="evenodd" d="M19.9875 39.6317C20.9414 39.7929 21.7713 40.1294 22.2427 40.3896L22.2768 40.3277C21.7989 40.0638 20.9616 39.7246 19.9993 39.5619C19.0371 39.3993 17.9467 39.4126 16.9653 39.8582L16.9945 39.9226C17.9586 39.4849 19.0334 39.4704 19.9875 39.6317Z" fill="black"/>
<path fill-rule="evenodd" clip-rule="evenodd" d="M20.0666 40.7739C21.0253 40.6442 21.9176 40.7188 22.4451 40.8271L22.4593 40.7578C21.9246 40.648 21.0242 40.573 20.0571 40.7037C19.09 40.8345 18.0529 41.1714 17.2483 41.8886L17.2954 41.9414C18.0858 41.2369 19.1077 40.9035 20.0666 40.7739Z" fill="black"/>
<path fill-rule="evenodd" clip-rule="evenodd" d="M178.277 0H215.235V1.72788H216.967V0H218.699V11.8484C218.699 15.1877 215.992 17.8947 212.653 17.8947H172.23V16.1629H173.962V17.8945H175.694V16.1628H173.962V14.4311H172.23V6.04633C172.23 2.70704 174.938 0 178.277 0ZM218.698 1.72801H216.967V3.45975H218.698V1.72801Z" fill="black"/>
<path d="M183.272 11.822C183.261 11.7853 183.227 11.7602 183.189 11.7602H180.958C180.92 11.7602 180.886 11.7856 180.875 11.8226L180.58 12.808C180.569 12.845 180.535 12.8704 180.496 12.8704H178.572C178.511 12.8704 178.469 12.8094 178.49 12.7522L180.951 6.19634C180.963 6.16224 180.996 6.13965 181.032 6.13965H183.184C183.22 6.13965 183.253 6.16224 183.266 6.19634L185.726 12.7522C185.748 12.8094 185.706 12.8704 185.645 12.8704H183.659C183.62 12.8704 183.587 12.8453 183.575 12.8086L183.272 11.822ZM182.707 10.3005C182.766 10.3005 182.808 10.2436 182.79 10.1874L182.166 8.15308C182.141 8.07058 182.024 8.07078 181.999 8.15336L181.382 10.1877C181.365 10.2438 181.407 10.3005 181.466 10.3005H182.707Z" fill="white"/>
<path d="M186.375 6.22706C186.375 6.17878 186.414 6.13965 186.462 6.13965H188.158C188.206 6.13965 188.246 6.17878 188.246 6.22706V12.783C188.246 12.8312 188.206 12.8704 188.158 12.8704H186.462C186.414 12.8704 186.375 12.8312 186.375 12.783V6.22706Z" fill="white"/>
<path d="M189.449 12.9264V6.28308C189.449 6.2348 189.488 6.19567 189.537 6.19567H191.11C191.158 6.19567 191.197 6.2348 191.197 6.28308V6.66325C191.197 6.74588 191.303 6.7836 191.358 6.72219C191.539 6.52109 191.706 6.38191 191.862 6.30056C192.133 6.1607 192.439 6.08203 192.762 6.08203C193.418 6.08203 193.916 6.33553 194.274 6.83377C194.633 7.33202 194.808 7.95265 194.808 8.68691C194.808 9.49984 194.615 10.1205 194.222 10.54C193.829 10.9596 193.339 11.1781 192.745 11.1781C192.456 11.1781 192.194 11.1257 191.958 11.0295C191.784 10.9587 191.624 10.8593 191.475 10.735C191.416 10.6851 191.32 10.7256 191.32 10.8035V12.8302C191.32 12.8785 191.281 12.9176 191.232 12.9176H189.458C189.453 12.9176 189.449 12.9216 189.449 12.9264V12.9264ZM191.32 8.65194C191.32 9.03655 191.399 9.32501 191.565 9.50858C191.731 9.69214 191.932 9.7883 192.176 9.7883C192.395 9.7883 192.579 9.70089 192.727 9.51732C192.876 9.3425 192.946 9.03655 192.946 8.60823C192.946 8.21488 192.867 7.92642 192.718 7.73412C192.561 7.55055 192.378 7.4544 192.159 7.4544C191.923 7.4544 191.722 7.55055 191.565 7.73412C191.399 7.92642 191.32 8.23236 191.32 8.65194Z" fill="white"/>
<path d="M195.711 6.22706C195.711 6.17878 195.75 6.13965 195.798 6.13965H197.494C197.542 6.13965 197.582 6.17878 197.582 6.22706V8.40595C197.582 8.48454 197.678 8.52422 197.736 8.47098C197.938 8.28499 198.14 8.14451 198.342 8.05397C198.596 7.94033 198.893 7.88789 199.234 7.88789C199.741 7.88789 200.143 8.04523 200.431 8.35117C200.72 8.65711 200.868 9.13788 200.868 9.77598V12.7917C200.868 12.84 200.829 12.8791 200.781 12.8791H199.076C199.028 12.8791 198.989 12.84 198.989 12.7917V10.1956C198.989 9.88962 198.936 9.67109 198.823 9.54871C198.709 9.41759 198.552 9.3564 198.342 9.3564C198.115 9.3564 197.931 9.44382 197.791 9.6099C197.651 9.78472 197.582 10.0907 197.582 10.5365V12.7917C197.582 12.84 197.542 12.8791 197.494 12.8791H195.798C195.75 12.8791 195.711 12.84 195.711 12.7917V6.22706Z" fill="white"/>
<path d="M203.715 9.50732C203.7 9.5462 203.662 9.57155 203.621 9.5671L202.005 9.39292C201.954 9.38733 201.918 9.33785 201.931 9.2873C201.998 9.01801 202.087 8.80497 202.197 8.64818C202.328 8.47335 202.503 8.31601 202.747 8.1849C202.922 8.08874 203.158 8.01881 203.455 7.96637C203.753 7.91392 204.076 7.8877 204.426 7.8877C204.985 7.8877 205.44 7.92266 205.772 7.98385C206.113 8.04504 206.393 8.17616 206.62 8.3772C206.777 8.51706 206.908 8.70937 206.996 8.96286C207.092 9.21636 207.136 9.45237 207.136 9.68838V11.8387C207.136 12.066 207.153 12.2495 207.179 12.3807C207.2 12.4834 207.247 12.6076 207.313 12.7532C207.339 12.8118 207.297 12.8789 207.233 12.8789H205.665C205.634 12.8789 205.605 12.8622 205.59 12.8347C205.534 12.7331 205.498 12.6517 205.475 12.5905C205.461 12.554 205.45 12.5104 205.44 12.4572C205.426 12.3865 205.339 12.3553 205.285 12.4024C205.083 12.577 204.881 12.705 204.679 12.7915C204.347 12.9226 203.962 12.9925 203.525 12.9925C202.94 12.9925 202.503 12.8614 202.197 12.5905C201.891 12.3195 201.742 11.9873 201.742 11.594C201.742 11.2268 201.847 10.9209 202.066 10.6761C202.284 10.4314 202.686 10.2566 203.272 10.1429C203.971 10.0031 204.426 9.90691 204.636 9.84572C204.828 9.79753 205.028 9.72719 205.243 9.64828C205.277 9.63564 205.3 9.60289 205.299 9.56635C205.291 9.37018 205.247 9.22584 205.16 9.14643C205.064 9.05027 204.898 9.00657 204.662 9.00657C204.356 9.00657 204.129 9.05901 203.971 9.15517C203.87 9.20981 203.782 9.3272 203.715 9.50732ZM205.31 10.5538C205.309 10.5538 205.308 10.5539 205.307 10.5542C205.054 10.6502 204.784 10.7287 204.504 10.7985C204.129 10.9034 203.884 10.9996 203.788 11.0957C203.683 11.2006 203.63 11.3142 203.63 11.4366C203.63 11.5852 203.683 11.7076 203.788 11.795C203.893 11.8912 204.041 11.9349 204.242 11.9349C204.452 11.9349 204.644 11.8824 204.819 11.7863C204.994 11.6814 205.125 11.559 205.204 11.4191C205.282 11.2705 205.317 11.087 205.317 10.851V10.5611C205.317 10.5571 205.314 10.5538 205.31 10.5538V10.5538Z" fill="white"/>
<path d="M207.32 5.79063C207.32 5.74236 207.359 5.70322 207.408 5.70322H208.99C209.038 5.70322 209.077 5.66409 209.077 5.61581V4.02491C209.077 3.97664 209.116 3.9375 209.165 3.9375H210.476C210.524 3.9375 210.563 3.97664 210.563 4.02491V5.61581C210.563 5.66409 210.602 5.70322 210.651 5.70322H212.242C212.29 5.70322 212.329 5.74236 212.329 5.79063V7.10181C212.329 7.15009 212.29 7.18922 212.242 7.18922H210.651C210.602 7.18922 210.563 7.22836 210.563 7.27663V8.85879C210.563 8.90707 210.524 8.9462 210.476 8.9462H209.165C209.116 8.9462 209.077 8.90707 209.077 8.85879V7.27663C209.077 7.22836 209.038 7.18922 208.99 7.18922H207.408C207.359 7.18922 207.32 7.15009 207.32 7.10181V5.79063Z" fill="white"/>
</svg>
