<svg width="225" height="40" viewBox="0 0 225 40" fill="none" xmlns="http://www.w3.org/2000/svg">
<path d="M57.3858 14.5522V20.2903C57.3858 20.4597 57.4531 20.6221 57.5729 20.7419C57.6927 20.8617 57.8551 20.929 58.0245 20.929H63.5472C63.6308 20.9287 63.7134 20.9119 63.7905 20.8796C63.8676 20.8474 63.9375 20.8002 63.9964 20.7409C64.0552 20.6816 64.1018 20.6113 64.1335 20.534C64.1651 20.4567 64.1813 20.3739 64.1809 20.2903V14.5547C64.1806 14.4707 64.1969 14.3875 64.2289 14.3099C64.2609 14.2322 64.3079 14.1617 64.3673 14.1023C64.4266 14.043 64.4972 13.9959 64.5748 13.9639C64.6524 13.932 64.7356 13.9157 64.8196 13.916H67.6664C67.7501 13.916 67.8331 13.9325 67.9104 13.9647C67.9878 13.9968 68.058 14.0439 68.1171 14.1033C68.1762 14.1626 68.223 14.233 68.2549 14.3105C68.2867 14.388 68.3029 14.471 68.3026 14.5547V31.5091C68.3029 31.5928 68.2867 31.6758 68.2549 31.7533C68.223 31.8308 68.1762 31.9012 68.1171 31.9605C68.058 32.0199 67.9878 32.0669 67.9104 32.0991C67.8331 32.1312 67.7501 32.1477 67.6664 32.1477H64.8196C64.7356 32.148 64.6524 32.1318 64.5748 32.0998C64.4972 32.0678 64.4266 32.0208 64.3673 31.9614C64.3079 31.902 64.2609 31.8315 64.2289 31.7539C64.1969 31.6762 64.1806 31.593 64.1809 31.5091V25.1546C64.1809 24.9858 64.1139 24.824 63.9946 24.7047C63.8753 24.5854 63.7135 24.5184 63.5448 24.5184H58.022C57.8531 24.5184 57.691 24.5853 57.5713 24.7045C57.4516 24.8238 57.384 24.9856 57.3834 25.1546V31.5091C57.3837 31.5928 57.3675 31.6758 57.3356 31.7533C57.3038 31.8308 57.257 31.9012 57.1979 31.9605C57.1388 32.0199 57.0685 32.0669 56.9912 32.0991C56.9138 32.1312 56.8309 32.1477 56.7472 32.1477H53.9004C53.8164 32.148 53.7332 32.1318 53.6556 32.0998C53.5779 32.0678 53.5074 32.0208 53.448 31.9614C53.3887 31.902 53.3417 31.8315 53.3097 31.7539C53.2777 31.6762 53.2614 31.593 53.2617 31.5091V14.5547C53.2614 14.4707 53.2777 14.3875 53.3097 14.3099C53.3417 14.2322 53.3887 14.1617 53.448 14.1023C53.5074 14.043 53.5779 13.9959 53.6556 13.9639C53.7332 13.932 53.8164 13.9157 53.9004 13.916H56.7546C56.9225 13.9173 57.083 13.9849 57.2012 14.1041C57.3195 14.2233 57.3858 14.3844 57.3858 14.5522V14.5522Z" fill="white"/>
<path d="M76.2636 27.9277L75.2338 31.673C75.1966 31.8073 75.1164 31.9257 75.0055 32.0102C74.8947 32.0947 74.7593 32.1405 74.6199 32.1409H71.7038C71.6041 32.1411 71.5057 32.1178 71.4166 32.073C71.3275 32.0281 71.2502 31.963 71.1909 31.8827C71.1316 31.8025 71.092 31.7094 71.0754 31.6111C71.0587 31.5127 71.0654 31.4119 71.0949 31.3166L76.2686 14.3597C76.3084 14.2293 76.389 14.115 76.4987 14.0339C76.6083 13.9528 76.7411 13.9091 76.8775 13.9092H81.3333C81.4694 13.9089 81.602 13.9523 81.7116 14.033C81.8212 14.1136 81.9021 14.2273 81.9423 14.3573L87.2224 31.3141C87.2519 31.4095 87.2585 31.5105 87.2418 31.609C87.2251 31.7074 87.1856 31.8006 87.1263 31.881C87.0671 31.9614 86.9899 32.0268 86.9008 32.0719C86.8118 32.117 86.7133 32.1407 86.6135 32.1409H83.5117C83.3747 32.1406 83.2414 32.0962 83.1317 32.0141C83.022 31.9321 82.9417 31.8168 82.9028 31.6854L81.7715 27.9128C81.7325 27.7817 81.6521 27.6667 81.5423 27.5851C81.4326 27.5034 81.2993 27.4595 81.1625 27.4598H76.88C76.74 27.4588 76.6036 27.5041 76.4921 27.5887C76.3806 27.6734 76.3002 27.7926 76.2636 27.9277ZM80.1724 24.3878C80.2712 24.3879 80.3687 24.365 80.4571 24.3208C80.5456 24.2767 80.6225 24.2126 80.6818 24.1335C80.7412 24.0545 80.7813 23.9627 80.799 23.8655C80.8167 23.7683 80.8115 23.6682 80.7838 23.5734L79.8877 20.5137C79.5733 19.4368 79.2515 18.0704 78.9718 17.0035H78.9148C78.6475 18.0754 78.3727 19.4591 78.0806 20.5186L77.2166 23.5783C77.1898 23.6731 77.1854 23.7728 77.2037 23.8696C77.2219 23.9663 77.2624 24.0575 77.3219 24.136C77.3814 24.2145 77.4583 24.2781 77.5466 24.3218C77.6349 24.3655 77.7321 24.3881 77.8306 24.3878H80.1724Z" fill="white"/>
<path d="M105.786 25.1675C105.702 22.957 105.618 20.3305 105.628 17.657H105.553C104.972 19.9913 104.207 22.5832 103.521 24.7343L101.427 31.3958C101.386 31.5249 101.306 31.6377 101.197 31.7179C101.088 31.798 100.956 31.8412 100.82 31.8413H98.5677C98.4287 31.8412 98.2935 31.7956 98.1827 31.7117C98.0719 31.6277 97.9916 31.5098 97.9538 31.376L96.1195 24.7962C95.5328 22.65 94.9263 20.0607 94.4758 17.657H94.4189C94.3273 20.1324 94.2258 22.952 94.1169 25.222L93.805 31.5344C93.7973 31.6979 93.7269 31.8522 93.6084 31.9652C93.49 32.0781 93.3325 32.141 93.1688 32.1409H90.6413C90.5542 32.1407 90.4681 32.1227 90.3882 32.088C90.3083 32.0534 90.2364 32.0027 90.1768 31.9391C90.1172 31.8756 90.0712 31.8006 90.0417 31.7186C90.0122 31.6367 89.9997 31.5495 90.0051 31.4626L91.0919 14.5057C91.102 14.344 91.1734 14.1922 91.2917 14.0813C91.4099 13.9704 91.566 13.9089 91.7281 13.9092H96.1467C96.2844 13.9094 96.4183 13.9541 96.5285 14.0366C96.6387 14.1192 96.7192 14.2351 96.7582 14.3672L98.4019 20.0038C98.9787 22.0931 99.5406 24.3828 99.949 26.5216H100.036C100.531 24.41 101.152 22.0064 101.768 19.9765L103.563 14.3523C103.605 14.2238 103.685 14.1118 103.794 14.0322C103.903 13.9526 104.035 13.9095 104.17 13.9092H108.492C108.655 13.909 108.812 13.9716 108.931 14.084C109.049 14.1965 109.12 14.3501 109.128 14.5132L110.039 31.47C110.043 31.5564 110.03 31.6427 110 31.7237C109.97 31.8048 109.924 31.879 109.865 31.9417C109.805 32.0045 109.733 32.0544 109.654 32.0887C109.575 32.1229 109.489 32.1406 109.403 32.1409H106.68C106.515 32.141 106.357 32.0774 106.238 31.9634C106.12 31.8494 106.05 31.6938 106.044 31.5294L105.786 25.1675Z" fill="white"/>
<path d="M113.355 28.6392C113.377 28.5493 113.418 28.4654 113.476 28.3933C113.534 28.3211 113.607 28.2625 113.69 28.2215C113.773 28.1805 113.864 28.1581 113.957 28.1558C114.049 28.1536 114.141 28.1715 114.226 28.2085C115.456 28.7328 116.776 29.0112 118.113 29.0278C120.004 29.0278 121.009 28.2406 121.009 27.0475C121.009 25.9261 120.137 25.2676 117.957 24.4977C114.914 23.4184 112.926 21.7624 112.926 19.0988C112.926 15.9896 115.536 13.6281 119.823 13.6281C121.228 13.6012 122.625 13.8345 123.945 14.3162C124.093 14.3736 124.214 14.4839 124.285 14.6257C124.357 14.7674 124.373 14.9306 124.331 15.0836L123.761 17.1457C123.739 17.2311 123.698 17.3108 123.643 17.3797C123.588 17.4485 123.518 17.505 123.44 17.5453C123.361 17.5857 123.275 17.6091 123.186 17.614C123.098 17.619 123.01 17.6053 122.927 17.5739C121.918 17.1822 120.844 16.9824 119.761 16.9847C117.966 16.9847 117.11 17.8165 117.11 18.7473C117.11 19.9058 118.12 20.4182 120.484 21.3093C123.702 22.5174 125.207 24.1932 125.207 26.7702C125.207 29.8125 122.875 32.4266 117.858 32.4266C116.258 32.4258 114.672 32.1208 113.186 31.528C113.048 31.467 112.936 31.3587 112.871 31.2225C112.806 31.0864 112.791 30.9313 112.83 30.7854L113.355 28.6392Z" fill="white"/>
<path d="M132.243 17.3699H128.6C128.516 17.3702 128.433 17.354 128.355 17.3222C128.278 17.2904 128.208 17.2435 128.148 17.1844C128.089 17.1253 128.042 17.055 128.01 16.9777C127.977 16.9003 127.961 16.8174 127.961 16.7337V14.5479C127.961 14.4639 127.977 14.3807 128.009 14.303C128.041 14.2254 128.088 14.1549 128.147 14.0955C128.207 14.0361 128.277 13.9891 128.355 13.9571C128.432 13.9251 128.516 13.9089 128.6 13.9092H141.356C141.439 13.9092 141.522 13.9257 141.6 13.9578C141.677 13.99 141.747 14.0371 141.806 14.0964C141.865 14.1558 141.912 14.2262 141.944 14.3036C141.976 14.3811 141.992 14.4641 141.992 14.5479V16.7337C141.992 16.9024 141.925 17.0642 141.806 17.1835C141.686 17.3028 141.524 17.3699 141.356 17.3699H137.642C137.559 17.3699 137.476 17.3864 137.398 17.4185C137.321 17.4506 137.251 17.4978 137.192 17.5571C137.133 17.6164 137.086 17.6869 137.054 17.7643C137.022 17.8418 137.006 17.9248 137.006 18.0086V31.5023C137.007 31.586 136.99 31.669 136.959 31.7465C136.927 31.8239 136.88 31.8944 136.821 31.9537C136.762 32.013 136.691 32.0601 136.614 32.0922C136.537 32.1244 136.454 32.1409 136.37 32.1409H133.518C133.435 32.1409 133.352 32.1244 133.274 32.0922C133.197 32.0601 133.127 32.013 133.068 31.9537C133.009 31.8944 132.962 31.8239 132.93 31.7465C132.898 31.669 132.882 31.586 132.882 31.5023V18.0086C132.882 17.9247 132.866 17.8416 132.834 17.7641C132.801 17.6867 132.754 17.6162 132.695 17.5569C132.636 17.4976 132.565 17.4506 132.488 17.4185C132.41 17.3864 132.327 17.3699 132.243 17.3699Z" fill="white"/>
<path d="M154.962 24.4274H149.516C149.347 24.428 149.185 24.4956 149.066 24.6153C148.946 24.735 148.879 24.8971 148.879 25.0661V28.1257C148.879 28.2094 148.895 28.2924 148.927 28.3699C148.959 28.4474 149.006 28.5178 149.065 28.5771C149.124 28.6365 149.194 28.6836 149.272 28.7157C149.349 28.7479 149.432 28.7644 149.516 28.7644H155.741C155.91 28.7644 156.072 28.8314 156.191 28.9507C156.311 29.07 156.378 29.2319 156.378 29.4006V31.5022C156.378 31.586 156.362 31.669 156.33 31.7465C156.298 31.8239 156.251 31.8944 156.192 31.9537C156.133 32.013 156.063 32.0601 155.985 32.0922C155.908 32.1243 155.825 32.1409 155.741 32.1409H145.394C145.31 32.1409 145.227 32.1243 145.15 32.0922C145.073 32.0601 145.002 32.013 144.943 31.9537C144.884 31.8944 144.837 31.8239 144.806 31.7465C144.774 31.669 144.757 31.586 144.758 31.5022V14.5479C144.757 14.4641 144.774 14.3811 144.806 14.3036C144.837 14.2262 144.884 14.1557 144.943 14.0964C145.002 14.0371 145.073 13.99 145.15 13.9578C145.227 13.9257 145.31 13.9092 145.394 13.9092H155.35C155.52 13.9092 155.682 13.9765 155.802 14.0962C155.922 14.216 155.989 14.3785 155.989 14.5479V16.6495C155.988 16.8185 155.921 16.9803 155.801 17.0995C155.681 17.2188 155.519 17.2857 155.35 17.2857H149.516C149.432 17.2857 149.349 17.3023 149.272 17.3344C149.194 17.3665 149.124 17.4136 149.065 17.4729C149.006 17.5322 148.959 17.6027 148.927 17.6801C148.895 17.7576 148.879 17.8406 148.879 17.9244V20.4468C148.879 20.6156 148.946 20.7774 149.066 20.8967C149.185 21.016 149.347 21.083 149.516 21.083H154.962C155.131 21.0837 155.293 21.1512 155.413 21.2708C155.532 21.3904 155.6 21.5525 155.6 21.7217V23.7912C155.6 23.9601 155.532 24.1219 155.412 24.2412C155.293 24.3604 155.131 24.4274 154.962 24.4274V24.4274Z" fill="white"/>
<path d="M159.145 14.7052C159.145 14.5507 159.201 14.4017 159.303 14.2856C159.405 14.1695 159.546 14.0943 159.699 14.074C161.332 13.8618 162.976 13.7592 164.623 13.767C167.326 13.767 169.22 14.1804 170.522 15.2102C171.611 16.0766 172.21 17.3564 172.21 19.0323C172.21 21.3419 170.559 22.951 168.992 23.5129V23.5995C170.257 24.1095 170.972 25.3175 171.428 26.9934C171.849 28.5356 172.262 30.2536 172.594 31.3155C172.623 31.4108 172.63 31.5117 172.613 31.61C172.596 31.7084 172.557 31.8015 172.498 31.8817C172.438 31.9619 172.361 32.0271 172.272 32.072C172.183 32.1168 172.084 32.14 171.985 32.1398H169.093C168.967 32.1417 168.843 32.1051 168.737 32.0348C168.632 31.9645 168.551 31.8639 168.504 31.7463C168.061 30.4854 167.701 29.1971 167.425 27.8895C166.93 25.6121 166.15 25.0031 164.454 24.9808H163.865C163.696 24.9815 163.534 25.0491 163.415 25.1688C163.296 25.2885 163.229 25.4506 163.229 25.6195V31.5012C163.229 31.5852 163.213 31.6683 163.181 31.746C163.149 31.8236 163.102 31.8941 163.043 31.9535C162.983 32.0129 162.913 32.0599 162.835 32.0919C162.758 32.1239 162.674 32.1401 162.59 32.1398H159.781C159.697 32.1398 159.614 32.1233 159.537 32.0912C159.459 32.059 159.389 32.012 159.33 31.9527C159.271 31.8933 159.224 31.8229 159.192 31.7454C159.16 31.6679 159.144 31.585 159.145 31.5012V14.7052ZM163.229 21.3617C163.229 21.5305 163.296 21.6923 163.415 21.8116C163.535 21.9309 163.696 21.9979 163.865 21.9979H164.855C166.9 21.9979 168.123 20.9558 168.123 19.3715C168.123 17.703 166.979 16.849 165.096 16.8391C164.556 16.8391 164.138 16.8589 163.823 16.8886C163.664 16.9017 163.516 16.9741 163.408 17.0916C163.3 17.209 163.241 17.3629 163.241 17.5223L163.229 21.3617Z" fill="white"/>
<path d="M17.4837 9.26142C16.8121 9.43187 16.11 9.16985 15.613 8.68686C14.544 7.64771 13.0848 7.00781 11.4762 7.00781C8.19804 7.00781 5.54051 9.66534 5.54051 12.9436C5.54051 13.3002 5.572 13.6495 5.63231 13.9889C5.71171 14.4356 5.55808 14.9024 5.20153 15.183C2.09831 17.625 0.105469 21.4148 0.105469 25.6701C0.105469 33.036 6.07673 39.0073 13.4426 39.0073C17.2518 39.0073 20.6881 37.4104 23.1184 34.8495C25.5487 37.4104 28.9848 39.0073 32.7941 39.0073C40.1601 39.0073 46.1313 33.036 46.1313 25.6701C46.1313 21.7672 44.4549 18.2559 41.7829 15.8169C41.4385 15.5026 41.3228 15.0088 41.4495 14.5601C41.5946 14.0461 41.6723 13.5039 41.6723 12.9436C41.6723 9.66534 39.0147 7.00781 35.7365 7.00781C34.2091 7.00781 32.8165 7.58474 31.7646 8.53245C31.2924 8.95794 30.6545 9.18993 30.0333 9.05534C28.1928 8.65649 26.2318 8.44128 24.1968 8.44128C21.8352 8.44128 19.5734 8.73116 17.4837 9.26142Z" fill="#A05E1C"/>
<path d="M5.57114 14.6738C5.4968 14.8712 5.37249 15.0486 5.20153 15.1831C2.09831 17.6252 0.105469 21.415 0.105469 25.6702C0.105469 33.0361 6.07673 39.0074 13.4426 39.0074C17.2518 39.0074 20.6881 37.4105 23.1184 34.8497C25.5487 37.4105 28.9848 39.0074 32.794 39.0074C40.1601 39.0074 46.1313 33.0361 46.1313 25.6702C46.1313 21.7674 44.4549 18.256 41.7829 15.817C41.5235 15.5802 41.3938 15.2415 41.3998 14.897L41.3307 15.0947C41.3307 15.0947 33.4655 13.9723 29.0503 18.3965C22.8243 24.6352 22.8243 31.9246 22.8243 31.9246C22.8243 31.9246 22.8243 24.0952 16.8112 18.3965C11.8706 13.7143 5.5976 14.7047 5.5976 14.7047L5.57114 14.6738Z" fill="#E9C89C"/>
<path d="M21.9857 34.9302C22.5111 35.5428 23.4589 35.5428 23.9843 34.9302L25.1348 33.5885C25.8669 32.7347 25.2603 31.4153 24.1355 31.4153H21.8345C20.7098 31.4153 20.1031 32.7347 20.8352 33.5885L21.9857 34.9302Z" fill="black"/>
<path d="M32.5689 25.4727C33.5372 24.9842 34.0366 23.5002 33.6841 22.1582C33.3316 20.8161 32.2609 20.1241 31.2925 20.6126C30.3241 21.1011 29.8248 22.585 30.1773 23.9271C30.5297 25.2692 31.6005 25.9611 32.5689 25.4727Z" fill="black"/>
<path d="M31.5929 22.5395C31.9547 22.4078 32.1412 22.0078 32.0095 21.646C31.8779 21.2842 31.4778 21.0977 31.116 21.2293C30.7542 21.361 30.5677 21.7611 30.6994 22.1229C30.8311 22.4847 31.2311 22.6712 31.5929 22.5395Z" fill="white"/>
<path d="M13.7436 25.4776C12.7752 24.9891 12.2759 23.5052 12.6283 22.1631C12.9808 20.821 14.0516 20.129 15.02 20.6175C15.9884 21.106 16.4877 22.5899 16.1352 23.932C15.7828 25.2741 14.712 25.9661 13.7436 25.4776Z" fill="black"/>
<path d="M14.7196 22.5444C14.3578 22.4127 14.1712 22.0127 14.3029 21.6509C14.4346 21.2891 14.8347 21.1025 15.1965 21.2342C15.5583 21.3659 15.7448 21.766 15.6131 22.1278C15.4814 22.4896 15.0814 22.6761 14.7196 22.5444Z" fill="white"/>
<path fill-rule="evenodd" clip-rule="evenodd" d="M25.9591 31.8822C25.1644 32.3977 24.5492 33.0225 24.2267 33.4395L24.1719 33.3971C24.4989 32.9743 25.1197 32.3441 25.9214 31.8241C26.723 31.3042 27.7082 30.8926 28.7633 30.9118L28.7621 30.981C27.7256 30.9622 26.7539 31.3667 25.9591 31.8822Z" fill="black"/>
<path fill-rule="evenodd" clip-rule="evenodd" d="M26.6732 32.7792C25.7392 32.9371 24.9267 33.2665 24.4652 33.5213L24.4317 33.4606C24.8996 33.2023 25.7195 32.8701 26.6617 32.7109C27.6038 32.5516 28.6714 32.5647 29.6324 33.0009L29.6037 33.064C28.6597 32.6355 27.6074 32.6213 26.6732 32.7792Z" fill="black"/>
<path fill-rule="evenodd" clip-rule="evenodd" d="M26.586 33.8983C25.6473 33.7714 24.7736 33.8444 24.2571 33.9505L24.2432 33.8826C24.7668 33.7751 25.6484 33.7017 26.5953 33.8297C27.5421 33.9577 28.5576 34.2876 29.3454 34.9898L29.2993 35.0415C28.5254 34.3517 27.5248 34.0253 26.586 33.8983Z" fill="black"/>
<path fill-rule="evenodd" clip-rule="evenodd" d="M20.0565 31.8822C20.8513 32.3977 21.4664 33.0225 21.789 33.4395L21.8438 33.3971C21.5167 32.9743 20.8959 32.3441 20.0942 31.8241C19.2926 31.3042 18.3074 30.8926 17.2523 30.9118L17.2536 30.981C18.2901 30.9622 19.2617 31.3667 20.0565 31.8822Z" fill="black"/>
<path fill-rule="evenodd" clip-rule="evenodd" d="M19.3268 32.7792C20.2608 32.9371 21.0733 33.2665 21.5348 33.5213L21.5683 33.4606C21.1004 33.2023 20.2805 32.8701 19.3383 32.7109C18.3962 32.5516 17.3286 32.5647 16.3676 33.0009L16.3963 33.064C17.3403 32.6355 18.3926 32.6213 19.3268 32.7792Z" fill="black"/>
<path fill-rule="evenodd" clip-rule="evenodd" d="M19.4062 33.8983C20.3449 33.7714 21.2186 33.8444 21.735 33.9505L21.749 33.8826C21.2254 33.7751 20.3438 33.7017 19.3969 33.8297C18.4501 33.9577 17.4346 34.2876 16.6468 34.9898L16.6929 35.0415C17.4668 34.3517 18.4674 34.0253 19.4062 33.8983Z" fill="black"/>
<path fill-rule="evenodd" clip-rule="evenodd" d="M181.73 0.956055H221.053V2.79448H222.895V0.956055H224.738V13.5624C224.738 17.1154 221.858 19.9956 218.305 19.9956H175.297V18.1529H177.139V19.9954H178.982V18.1528H177.139V16.3104H175.297V7.38921C175.297 3.83628 178.177 0.956055 181.73 0.956055ZM224.738 2.79461H222.895V4.63715H224.738V2.79461Z" fill="white"/>
<path d="M212.578 6.58802C212.578 6.5333 212.622 6.48893 212.677 6.48893H214.471C214.525 6.48893 214.57 6.44457 214.57 6.38984V4.5864C214.57 4.53167 214.614 4.4873 214.669 4.4873H216.155C216.21 4.4873 216.254 4.53167 216.254 4.5864V6.38984C216.254 6.44457 216.299 6.48893 216.353 6.48893H218.157C218.212 6.48893 218.256 6.5333 218.256 6.58802V8.07438C218.256 8.1291 218.212 8.17347 218.157 8.17347H216.353C216.299 8.17347 216.254 8.21783 216.254 8.27256V10.0661C216.254 10.1208 216.21 10.1652 216.155 10.1652H214.669C214.614 10.1652 214.57 10.1208 214.57 10.0661V8.27256C214.57 8.21783 214.525 8.17347 214.471 8.17347H212.677C212.622 8.17347 212.578 8.1291 212.578 8.07438V6.58802Z" fill="#1D1C1A"/>
<path d="M185.022 7.77561C185.78 7.77561 186.372 7.96329 186.797 8.33864C187.223 8.714 187.436 9.24816 187.436 9.94112V13.6723C187.436 13.7823 187.347 13.8715 187.237 13.8715H186.129C186.054 13.8715 185.986 13.8293 185.952 13.7624L185.617 13.1027C185.611 13.0895 185.597 13.0811 185.582 13.0811V13.0811C185.57 13.0811 185.559 13.0866 185.551 13.096C185.389 13.2987 185.22 13.467 185.043 13.6008C184.87 13.7308 184.668 13.8246 184.437 13.8824C184.206 13.9473 183.925 13.9798 183.592 13.9798C183.246 13.9798 182.936 13.9112 182.661 13.7741C182.387 13.6297 182.17 13.4168 182.012 13.1353C181.853 12.8465 181.773 12.482 181.773 12.0417C181.773 11.3992 181.994 10.9228 182.434 10.6124C182.881 10.302 183.528 10.1288 184.372 10.0927L185.282 10.0631C185.33 10.0615 185.368 10.0219 185.368 9.97361V9.97361C185.368 9.70653 185.303 9.51885 185.173 9.41057C185.043 9.29508 184.867 9.23733 184.643 9.23733C184.405 9.23733 184.141 9.28064 183.852 9.36726C183.624 9.43017 183.393 9.50894 183.159 9.60357C183.057 9.64499 182.94 9.59926 182.895 9.49825L182.454 8.4875C182.412 8.39149 182.452 8.27893 182.547 8.23516C182.85 8.0956 183.184 7.98934 183.549 7.91637C183.989 7.82253 184.48 7.77561 185.022 7.77561ZM184.903 11.2188C184.527 11.2332 184.26 11.3018 184.101 11.4245C183.95 11.54 183.874 11.706 183.874 11.9226C183.874 12.1247 183.928 12.2763 184.036 12.3773C184.145 12.4712 184.289 12.5181 184.47 12.5181C184.722 12.5181 184.935 12.4387 185.108 12.2799C185.289 12.1211 185.379 11.9154 185.379 11.6627V11.4057C185.379 11.292 185.284 11.2014 185.171 11.2066L184.903 11.2188Z" fill="#1D1C1A"/>
<path d="M190.912 13.6723C190.912 13.7823 190.823 13.8715 190.713 13.8715H189.044C188.934 13.8715 188.844 13.7823 188.844 13.6723V5.84184C188.844 5.73179 188.934 5.64258 189.044 5.64258H190.713C190.823 5.64258 190.912 5.73179 190.912 5.84184V13.6723Z" fill="#1D1C1A"/>
<path d="M196.004 7.77561C196.668 7.77561 197.188 8.04269 197.563 8.57685C197.939 9.10379 198.126 9.86533 198.126 10.8615C198.126 11.54 198.029 12.1139 197.834 12.5831C197.646 13.045 197.386 13.3951 197.054 13.6333C196.729 13.8643 196.358 13.9798 195.939 13.9798C195.658 13.9798 195.419 13.9437 195.224 13.8715C195.03 13.7993 194.867 13.7127 194.737 13.6117C194.613 13.5085 194.509 13.4053 194.425 13.3021C194.417 13.2925 194.405 13.2868 194.393 13.2868V13.2868C194.368 13.2868 194.35 13.3078 194.352 13.3319C194.365 13.4563 194.378 13.5892 194.391 13.7308C194.405 13.8896 194.412 14.0736 194.412 14.283V16.2709C194.412 16.3809 194.323 16.4701 194.213 16.4701H192.544C192.433 16.4701 192.344 16.3809 192.344 16.2709V8.08315C192.344 7.9731 192.433 7.88389 192.544 7.88389H193.886C193.968 7.88389 194.042 7.93458 194.072 8.01144L194.295 8.59131C194.307 8.62174 194.336 8.64182 194.369 8.64182V8.64182C194.396 8.64182 194.421 8.62798 194.436 8.60549C194.532 8.46093 194.643 8.32867 194.77 8.20871C194.914 8.07878 195.087 7.97412 195.289 7.89471C195.491 7.81531 195.73 7.77561 196.004 7.77561ZM195.224 9.39975C195.022 9.39975 194.863 9.45027 194.748 9.55133C194.633 9.64517 194.549 9.78593 194.499 9.97361C194.448 10.1613 194.42 10.3995 194.412 10.6882V10.8506C194.412 11.1682 194.434 11.4353 194.477 11.6519C194.528 11.8684 194.614 12.0345 194.737 12.1499C194.86 12.2582 195.026 12.3124 195.235 12.3124C195.408 12.3124 195.553 12.2654 195.668 12.1716C195.791 12.0705 195.881 11.9117 195.939 11.6952C195.997 11.4786 196.026 11.1935 196.026 10.8398C196.026 10.3129 195.957 9.94112 195.82 9.72457C195.683 9.50802 195.484 9.39975 195.224 9.39975Z" fill="#1D1C1A"/>
<path d="M201.37 6.81196C201.37 7.25228 201.359 7.62402 201.337 7.9272C201.319 8.19166 201.302 8.4012 201.289 8.55581C201.286 8.59038 201.313 8.62016 201.348 8.62016V8.62016C201.368 8.62016 201.387 8.60957 201.398 8.59236C201.524 8.39608 201.662 8.23932 201.814 8.12209C201.98 7.99938 202.164 7.91276 202.366 7.86223C202.568 7.80448 202.788 7.77561 203.027 7.77561C203.424 7.77561 203.781 7.8514 204.098 8.00299C204.416 8.15457 204.669 8.39278 204.856 8.71761C205.051 9.03522 205.149 9.45388 205.149 9.97361V13.6723C205.149 13.7823 205.06 13.8715 204.949 13.8715H203.269C203.159 13.8715 203.07 13.7823 203.07 13.6723V10.6016C203.07 10.2046 203.012 9.90503 202.897 9.70292C202.781 9.5008 202.601 9.39975 202.355 9.39975C202.11 9.39975 201.915 9.47193 201.771 9.6163C201.626 9.76066 201.521 9.97 201.457 10.2443C201.399 10.5114 201.37 10.8434 201.37 11.2404V13.6723C201.37 13.7823 201.281 13.8715 201.171 13.8715H199.501C199.391 13.8715 199.302 13.7823 199.302 13.6723V5.84184C199.302 5.73179 199.391 5.64258 199.501 5.64258H201.171C201.281 5.64258 201.37 5.73179 201.37 5.84184V6.81196Z" fill="#1D1C1A"/>
<path d="M209.479 7.77561C210.237 7.77561 210.829 7.96329 211.255 8.33864C211.681 8.714 211.893 9.24816 211.893 9.94112V13.6723C211.893 13.7823 211.804 13.8715 211.694 13.8715H210.587C210.512 13.8715 210.443 13.8293 210.409 13.7624L210.075 13.1027C210.068 13.0895 210.054 13.0811 210.039 13.0811V13.0811C210.027 13.0811 210.016 13.0866 210.008 13.096C209.846 13.2987 209.677 13.467 209.501 13.6008C209.327 13.7308 209.125 13.8246 208.894 13.8824C208.663 13.9473 208.382 13.9798 208.05 13.9798C207.703 13.9798 207.393 13.9112 207.118 13.7741C206.844 13.6297 206.628 13.4168 206.469 13.1353C206.31 12.8465 206.231 12.482 206.231 12.0417C206.231 11.3992 206.451 10.9228 206.891 10.6124C207.339 10.302 207.985 10.1288 208.829 10.0927L209.739 10.0631C209.787 10.0615 209.825 10.0219 209.825 9.97361V9.97361C209.825 9.70653 209.76 9.51885 209.63 9.41057C209.501 9.29508 209.324 9.23733 209.1 9.23733C208.862 9.23733 208.598 9.28064 208.31 9.36726C208.081 9.43017 207.85 9.50894 207.616 9.60357C207.514 9.64499 207.397 9.59926 207.353 9.49825L206.911 8.4875C206.87 8.39149 206.909 8.27893 207.004 8.23516C207.307 8.0956 207.642 7.98934 208.006 7.91637C208.447 7.82253 208.938 7.77561 209.479 7.77561ZM209.36 11.2188C208.984 11.2332 208.717 11.3018 208.559 11.4245C208.407 11.54 208.331 11.706 208.331 11.9226C208.331 12.1247 208.385 12.2763 208.494 12.3773C208.602 12.4712 208.746 12.5181 208.927 12.5181C209.179 12.5181 209.392 12.4387 209.566 12.2799C209.746 12.1211 209.836 11.9154 209.836 11.6627V11.4057C209.836 11.292 209.741 11.2014 209.628 11.2066L209.36 11.2188Z" fill="#1D1C1A"/>
</svg>
