<svg width="204" height="37" viewBox="0 0 204 37" fill="none" xmlns="http://www.w3.org/2000/svg">
<path d="M55.7571 12.4609V18.0361C55.7571 18.2007 55.8224 18.3585 55.9388 18.4749C56.0552 18.5913 56.213 18.6567 56.3776 18.6567H61.7436C61.8247 18.6564 61.9051 18.6401 61.9799 18.6087C62.0548 18.5774 62.1228 18.5316 62.18 18.474C62.2371 18.4163 62.2824 18.348 62.3132 18.2729C62.3439 18.1978 62.3596 18.1173 62.3593 18.0361V12.4633C62.359 12.3818 62.3748 12.3009 62.4059 12.2255C62.437 12.15 62.4827 12.0815 62.5403 12.0238C62.598 11.9661 62.6666 11.9204 62.742 11.8893C62.8174 11.8583 62.8983 11.8425 62.9798 11.8428H65.7458C65.8272 11.8428 65.9078 11.8588 65.9829 11.89C66.0581 11.9213 66.1263 11.967 66.1837 12.0247C66.2412 12.0823 66.2867 12.1508 66.3176 12.226C66.3485 12.3013 66.3643 12.382 66.364 12.4633V28.9365C66.3643 29.0179 66.3485 29.0985 66.3176 29.1738C66.2867 29.2491 66.2412 29.3175 66.1837 29.3751C66.1263 29.4328 66.0581 29.4785 65.9829 29.5097C65.9078 29.5409 65.8272 29.557 65.7458 29.557H62.9798C62.8983 29.5573 62.8174 29.5415 62.742 29.5104C62.6666 29.4794 62.598 29.4336 62.5403 29.376C62.4827 29.3183 62.437 29.2497 62.4059 29.1743C62.3748 29.0989 62.359 29.0181 62.3593 28.9365V22.7623C62.3593 22.5984 62.2942 22.4412 62.1783 22.3253C62.0623 22.2093 61.9051 22.1442 61.7412 22.1442H56.3752C56.211 22.1442 56.0536 22.2092 55.9372 22.3251C55.8209 22.4409 55.7553 22.5982 55.7547 22.7623V28.9365C55.755 29.0179 55.7392 29.0985 55.7083 29.1738C55.6774 29.2491 55.6319 29.3175 55.5744 29.3751C55.517 29.4328 55.4488 29.4785 55.3736 29.5097C55.2985 29.5409 55.2179 29.557 55.1365 29.557H52.3705C52.289 29.5573 52.2081 29.5415 52.1327 29.5104C52.0573 29.4794 51.9887 29.4336 51.931 29.376C51.8734 29.3183 51.8277 29.2497 51.7966 29.1743C51.7655 29.0989 51.7497 29.0181 51.75 28.9365V12.4633C51.7497 12.3818 51.7655 12.3009 51.7966 12.2255C51.8277 12.15 51.8734 12.0815 51.931 12.0238C51.9887 11.9661 52.0573 11.9204 52.1327 11.8893C52.2081 11.8583 52.289 11.8425 52.3705 11.8428H55.1437C55.3068 11.844 55.4628 11.9097 55.5777 12.0255C55.6926 12.1413 55.7571 12.2978 55.7571 12.4609V12.4609Z" fill="white"/>
<path d="M74.1005 25.4566L73.0999 29.0956C73.0637 29.2261 72.9858 29.3411 72.8781 29.4232C72.7704 29.5053 72.6388 29.5498 72.5034 29.5502H69.6701C69.5732 29.5503 69.4776 29.5278 69.391 29.4842C69.3045 29.4406 69.2293 29.3773 69.1717 29.2994C69.1141 29.2214 69.0757 29.131 69.0595 29.0354C69.0433 28.9399 69.0498 28.8418 69.0784 28.7493L74.1053 12.2737C74.144 12.147 74.2223 12.036 74.3289 11.9571C74.4354 11.8783 74.5644 11.8358 74.697 11.8359H79.0263C79.1585 11.8357 79.2873 11.8778 79.3938 11.9562C79.5003 12.0346 79.5789 12.145 79.618 12.2713L84.7483 28.7469C84.7768 28.8396 84.7833 28.9377 84.7671 29.0334C84.7509 29.129 84.7124 29.2195 84.6549 29.2977C84.5974 29.3758 84.5223 29.4393 84.4358 29.4832C84.3492 29.527 84.2536 29.5499 84.1566 29.5502H81.1429C81.0097 29.5499 80.8803 29.5068 80.7736 29.427C80.667 29.3473 80.589 29.2353 80.5512 29.1076L79.452 25.4421C79.4141 25.3147 79.336 25.203 79.2294 25.1237C79.1227 25.0443 78.9933 25.0016 78.8604 25.002H74.6994C74.5633 25.0009 74.4308 25.045 74.3225 25.1272C74.2141 25.2094 74.1361 25.3253 74.1005 25.4566ZM77.8983 22.0171C77.9943 22.0172 78.089 21.9949 78.175 21.9521C78.2609 21.9092 78.3356 21.8469 78.3933 21.7701C78.4509 21.6933 78.4899 21.6041 78.5071 21.5097C78.5243 21.4152 78.5193 21.318 78.4924 21.2258L77.6217 18.253C77.3162 17.2067 77.0036 15.8791 76.7318 14.8424H76.6764C76.4167 15.8839 76.1497 17.2284 75.8659 18.2578L75.0265 21.2306C75.0004 21.3227 74.9961 21.4196 75.0138 21.5136C75.0316 21.6076 75.0709 21.6963 75.1287 21.7725C75.1865 21.8487 75.2613 21.9106 75.347 21.953C75.4328 21.9955 75.5273 22.0174 75.623 22.0171H77.8983Z" fill="white"/>
<path d="M102.784 22.7747C102.702 20.6269 102.62 18.075 102.63 15.4774H102.557C101.992 17.7455 101.249 20.2637 100.583 22.3538L98.548 28.8262C98.5086 28.9516 98.4302 29.0613 98.3242 29.1392C98.2182 29.217 98.0902 29.259 97.9587 29.2591H95.77C95.6349 29.259 95.5035 29.2147 95.3959 29.1331C95.2882 29.0515 95.2102 28.937 95.1735 28.807L93.3913 22.414C92.8212 20.3287 92.2319 17.8128 91.7942 15.4774H91.7389C91.6499 17.8826 91.5513 20.6221 91.4455 22.8277L91.1424 28.9609C91.135 29.1198 91.0666 29.2697 90.9514 29.3795C90.8363 29.4892 90.6833 29.5503 90.5243 29.5502H88.0686C87.9839 29.55 87.9002 29.5325 87.8226 29.4988C87.745 29.4651 87.6751 29.4159 87.6172 29.3541C87.5593 29.2924 87.5146 29.2195 87.4859 29.1399C87.4573 29.0602 87.4452 28.9756 87.4504 28.8911L88.5063 12.4156C88.5161 12.2584 88.5855 12.1109 88.7004 12.0032C88.8153 11.8954 88.967 11.8356 89.1244 11.8359H93.4177C93.5515 11.8362 93.6816 11.8796 93.7886 11.9598C93.8957 12.04 93.9739 12.1526 94.0118 12.2809L95.6088 17.7575C96.1692 19.7875 96.7152 22.0123 97.1121 24.0904H97.1963C97.6773 22.0387 98.281 19.7033 98.8799 17.7311L100.624 12.2665C100.664 12.1417 100.742 12.0328 100.848 11.9554C100.954 11.8781 101.082 11.8362 101.213 11.8359H105.412C105.571 11.8357 105.724 11.8966 105.839 12.0058C105.954 12.1151 106.022 12.2643 106.031 12.4228L106.916 28.8984C106.92 28.9822 106.907 29.0661 106.878 29.1449C106.849 29.2236 106.804 29.2957 106.746 29.3567C106.688 29.4176 106.619 29.4662 106.542 29.4994C106.465 29.5327 106.382 29.5499 106.298 29.5502H103.652C103.492 29.5503 103.338 29.4885 103.223 29.3777C103.108 29.2669 103.04 29.1158 103.034 28.9561L102.784 22.7747Z" fill="white"/>
<path d="M110.14 26.1476C110.162 26.0603 110.202 25.9788 110.258 25.9087C110.315 25.8386 110.385 25.7817 110.466 25.7418C110.547 25.702 110.635 25.6802 110.725 25.678C110.815 25.6758 110.904 25.6933 110.987 25.7291C112.181 26.2386 113.464 26.509 114.763 26.5253C116.6 26.5253 117.577 25.7604 117.577 24.6011C117.577 23.5116 116.73 22.8718 114.611 22.1237C111.655 21.0751 109.724 19.466 109.724 16.878C109.724 13.8571 112.259 11.5626 116.425 11.5626C117.789 11.5365 119.147 11.7632 120.429 12.2312C120.573 12.287 120.691 12.3941 120.76 12.5319C120.83 12.6696 120.845 12.8281 120.805 12.9768L120.251 14.9803C120.229 15.0634 120.19 15.1408 120.136 15.2077C120.082 15.2746 120.015 15.3294 119.939 15.3687C119.862 15.4079 119.778 15.4306 119.693 15.4354C119.607 15.4402 119.521 15.4269 119.441 15.3964C118.46 15.0159 117.417 14.8217 116.365 14.824C114.621 14.824 113.789 15.6321 113.789 16.5365C113.789 17.6621 114.77 18.16 117.067 19.0258C120.194 20.1996 121.656 21.8279 121.656 24.3317C121.656 27.2877 119.39 29.8276 114.515 29.8276C112.96 29.8268 111.42 29.5305 109.976 28.9545C109.842 28.8952 109.734 28.7899 109.67 28.6576C109.607 28.5253 109.592 28.3747 109.63 28.2329L110.14 26.1476Z" fill="white"/>
<path d="M128.489 15.1984H124.949C124.867 15.1987 124.787 15.183 124.711 15.1521C124.636 15.1211 124.568 15.0756 124.51 15.0182C124.452 14.9608 124.407 14.8925 124.375 14.8174C124.344 14.7422 124.328 14.6616 124.328 14.5802V12.4565C124.328 12.3749 124.344 12.2941 124.375 12.2186C124.406 12.1432 124.452 12.0747 124.509 12.017C124.567 11.9593 124.635 11.9136 124.711 11.8825C124.786 11.8514 124.867 11.8356 124.949 11.8359H137.343C137.424 11.8359 137.505 11.852 137.58 11.8832C137.655 11.9144 137.723 11.9602 137.781 12.0179C137.838 12.0755 137.883 12.1439 137.914 12.2192C137.945 12.2945 137.961 12.3751 137.961 12.4565V14.5802C137.961 14.7442 137.896 14.9014 137.78 15.0174C137.664 15.1333 137.507 15.1984 137.343 15.1984H133.735C133.653 15.1984 133.573 15.2145 133.498 15.2457C133.423 15.2769 133.354 15.3227 133.297 15.3803C133.239 15.438 133.194 15.5064 133.163 15.5817C133.132 15.6569 133.116 15.7376 133.117 15.819V28.9297C133.117 29.011 133.101 29.0917 133.07 29.167C133.039 29.2422 132.994 29.3107 132.937 29.3683C132.879 29.426 132.811 29.4717 132.736 29.5029C132.661 29.5341 132.58 29.5502 132.499 29.5502H129.728C129.646 29.5502 129.566 29.5341 129.491 29.5029C129.416 29.4717 129.347 29.426 129.29 29.3683C129.232 29.3107 129.187 29.2422 129.156 29.167C129.125 29.0917 129.109 29.011 129.11 28.9297V15.819C129.11 15.7375 129.094 15.6568 129.062 15.5815C129.031 15.5062 128.986 15.4378 128.928 15.3801C128.87 15.3225 128.802 15.2769 128.727 15.2457C128.651 15.2145 128.571 15.1984 128.489 15.1984Z" fill="white"/>
<path d="M150.563 22.0556H145.271C145.107 22.0562 144.95 22.1219 144.834 22.2382C144.718 22.3545 144.653 22.512 144.653 22.6762V25.6489C144.653 25.7303 144.669 25.811 144.699 25.8862C144.73 25.9615 144.776 26.0299 144.833 26.0876C144.891 26.1452 144.959 26.191 145.034 26.2222C145.109 26.2534 145.19 26.2695 145.271 26.2695H151.32C151.484 26.2695 151.641 26.3346 151.757 26.4505C151.873 26.5665 151.938 26.7237 151.938 26.8876V28.9297C151.939 29.011 151.923 29.0917 151.892 29.1669C151.861 29.2422 151.816 29.3106 151.758 29.3683C151.701 29.4259 151.633 29.4717 151.557 29.5029C151.482 29.5341 151.402 29.5502 151.32 29.5502H141.267C141.185 29.5502 141.105 29.5341 141.029 29.5029C140.954 29.4717 140.886 29.4259 140.829 29.3683C140.771 29.3106 140.726 29.2422 140.695 29.1669C140.664 29.0917 140.648 29.011 140.648 28.9297V12.4565C140.648 12.3751 140.664 12.2945 140.695 12.2192C140.726 12.1439 140.771 12.0755 140.829 12.0179C140.886 11.9602 140.954 11.9144 141.029 11.8832C141.105 11.852 141.185 11.8359 141.267 11.8359H150.94C151.105 11.8359 151.263 11.9013 151.379 12.0177C151.495 12.1341 151.561 12.2919 151.561 12.4565V14.4985C151.56 14.6627 151.494 14.8199 151.378 14.9357C151.262 15.0516 151.104 15.1166 150.94 15.1166H145.271C145.19 15.1166 145.109 15.1327 145.034 15.1639C144.959 15.1951 144.891 15.2409 144.833 15.2985C144.776 15.3562 144.73 15.4246 144.699 15.4999C144.669 15.5751 144.653 15.6558 144.653 15.7372V18.188C144.653 18.352 144.718 18.5092 144.834 18.6251C144.95 18.7411 145.107 18.8062 145.271 18.8062H150.563C150.727 18.8068 150.884 18.8724 151.001 18.9886C151.117 19.1049 151.183 19.2624 151.183 19.4267V21.4374C151.183 21.6016 151.117 21.7588 151.001 21.8747C150.884 21.9905 150.727 22.0556 150.563 22.0556V22.0556Z" fill="white"/>
<path d="M154.625 12.6092C154.625 12.4591 154.68 12.3143 154.779 12.2015C154.878 12.0888 155.015 12.0157 155.164 11.9959C156.75 11.7897 158.348 11.6901 159.948 11.6977C162.574 11.6977 164.414 12.0994 165.679 13.0999C166.738 13.9417 167.32 15.1852 167.32 16.8135C167.32 19.0576 165.715 20.621 164.193 21.1669V21.2511C165.422 21.7466 166.117 22.9203 166.56 24.5487C166.968 26.0471 167.37 27.7163 167.692 28.7481C167.721 28.8407 167.728 28.9387 167.711 29.0343C167.695 29.1298 167.657 29.2202 167.599 29.2982C167.542 29.3762 167.466 29.4395 167.38 29.4831C167.293 29.5266 167.198 29.5492 167.101 29.549H164.291C164.169 29.5508 164.048 29.5152 163.946 29.4469C163.843 29.3786 163.764 29.2809 163.719 29.1666C163.289 27.9416 162.938 26.6898 162.67 25.4193C162.189 23.2065 161.432 22.6148 159.784 22.5932H159.212C159.048 22.5938 158.89 22.6595 158.774 22.7758C158.659 22.8921 158.594 23.0496 158.594 23.2138V28.9285C158.594 29.0101 158.578 29.0909 158.547 29.1663C158.516 29.2417 158.47 29.3103 158.413 29.368C158.355 29.4256 158.286 29.4714 158.211 29.5024C158.135 29.5335 158.055 29.5493 157.973 29.549H155.243C155.162 29.549 155.081 29.5329 155.006 29.5017C154.931 29.4705 154.863 29.4248 154.805 29.3671C154.748 29.3095 154.702 29.2411 154.671 29.1658C154.64 29.0905 154.625 29.0099 154.625 28.9285V12.6092ZM158.594 19.0768C158.594 19.2408 158.659 19.398 158.775 19.5139C158.891 19.6298 159.048 19.6949 159.212 19.6949H160.174C162.16 19.6949 163.349 18.6824 163.349 17.1431C163.349 15.522 162.237 14.6922 160.407 14.6825C159.883 14.6825 159.476 14.7018 159.171 14.7306C159.016 14.7433 158.872 14.8138 158.768 14.9279C158.663 15.042 158.605 15.1915 158.606 15.3464L158.594 19.0768Z" fill="white"/>
<path d="M16.9905 7.32051C16.3379 7.48611 15.6558 7.23153 15.1729 6.76225C14.1342 5.7526 12.7164 5.13086 11.1535 5.13086C7.96835 5.13086 5.38625 7.71296 5.38625 10.8981C5.38625 11.2447 5.41684 11.5841 5.47544 11.9138C5.55259 12.3478 5.40332 12.8014 5.05689 13.074C2.04175 15.4467 0.105469 19.129 0.105469 23.2635C0.105469 30.4203 5.90724 36.2221 13.0641 36.2221C16.7652 36.2221 20.1039 34.6705 22.4652 32.1823C24.8265 34.6705 28.1651 36.2221 31.8662 36.2221C39.0232 36.2221 44.825 30.4203 44.825 23.2635C44.825 19.4714 43.1962 16.0597 40.6 13.6899C40.2654 13.3845 40.1529 12.9047 40.276 12.4688C40.417 11.9694 40.4925 11.4426 40.4925 10.8981C40.4925 7.71296 37.9104 5.13086 34.7251 5.13086C33.2411 5.13086 31.8881 5.69141 30.8661 6.61222C30.4072 7.02564 29.7874 7.25104 29.1839 7.12027C27.3956 6.73274 25.4902 6.52364 23.513 6.52364C21.2185 6.52364 19.0208 6.8053 16.9905 7.32051Z" fill="#A05E1C"/>
<path d="M5.41601 12.5794C5.34378 12.7712 5.223 12.9436 5.05689 13.0743C2.04175 15.447 0.105469 19.1292 0.105469 23.2637C0.105469 30.4206 5.90724 36.2224 13.0641 36.2224C16.7652 36.2224 20.1039 34.6708 22.4652 32.1826C24.8265 34.6708 28.1651 36.2224 31.8662 36.2224C39.0232 36.2224 44.825 30.4206 44.825 23.2637C44.825 19.4716 43.1962 16.06 40.6 13.6902C40.3479 13.4601 40.2219 13.131 40.2277 12.7963L40.1606 12.9883C40.1606 12.9883 32.5187 11.8978 28.2288 16.1965C22.1795 22.2581 22.1795 29.3406 22.1795 29.3406C22.1795 29.3406 22.1795 21.7335 16.337 16.1965C11.5367 11.6472 5.44171 12.6095 5.44171 12.6095L5.41601 12.5794Z" fill="#E9C89C"/>
<path d="M21.3659 32.2596C21.8763 32.8549 22.7973 32.8549 23.3077 32.2596L24.4255 30.956C25.1369 30.1264 24.5475 28.8445 23.4546 28.8445H21.219C20.1261 28.8445 19.5367 30.1264 20.2481 30.956L21.3659 32.2596Z" fill="black"/>
<path d="M31.6469 23.0688C32.5878 22.5942 33.073 21.1524 32.7305 19.8484C32.388 18.5444 31.3477 17.8721 30.4068 18.3467C29.4659 18.8213 28.9807 20.2631 29.3232 21.5671C29.6657 22.8711 30.706 23.5434 31.6469 23.0688Z" fill="black"/>
<path d="M30.7014 20.2191C31.0529 20.0911 31.2342 19.7024 31.1062 19.3509C30.9783 18.9994 30.5896 18.8181 30.2381 18.9461C29.8865 19.074 29.7053 19.4627 29.8332 19.8142C29.9612 20.1658 30.3499 20.347 30.7014 20.2191Z" fill="white"/>
<path d="M13.3569 23.0737C12.416 22.5991 11.9309 21.1573 12.2733 19.8533C12.6158 18.5493 13.6562 17.877 14.5971 18.3516C15.538 18.8262 16.0232 20.268 15.6807 21.572C15.3382 22.876 14.2978 23.5484 13.3569 23.0737Z" fill="black"/>
<path d="M14.3025 20.224C13.951 20.096 13.7697 19.7073 13.8977 19.3558C14.0256 19.0043 14.4143 18.823 14.7658 18.9509C15.1174 19.0789 15.2986 19.4676 15.1707 19.8191C15.0427 20.1707 14.654 20.3519 14.3025 20.224Z" fill="white"/>
<path fill-rule="evenodd" clip-rule="evenodd" d="M25.2248 29.298C24.4526 29.7989 23.8549 30.4059 23.5415 30.8111L23.4883 30.7699C23.8061 30.3591 24.4092 29.7468 25.1881 29.2415C25.967 28.7364 26.9243 28.3365 27.9494 28.3551L27.9482 28.4224C26.9411 28.4041 25.997 28.7971 25.2248 29.298Z" fill="black"/>
<path fill-rule="evenodd" clip-rule="evenodd" d="M25.9189 30.1693C25.0113 30.3227 24.2219 30.6428 23.7735 30.8903L23.7409 30.8314C24.1956 30.5804 24.9922 30.2577 25.9076 30.1029C26.823 29.9482 27.8604 29.9609 28.794 30.3848L28.7662 30.446C27.849 30.0297 26.8265 30.0159 25.9189 30.1693Z" fill="black"/>
<path fill-rule="evenodd" clip-rule="evenodd" d="M25.835 31.2575C24.9229 31.1341 24.074 31.2051 23.5723 31.3081L23.5587 31.2422C24.0675 31.1377 24.924 31.0664 25.844 31.1908C26.764 31.3152 27.7507 31.6357 28.5161 32.3179L28.4713 32.3682C27.7194 31.698 26.7472 31.3808 25.835 31.2575Z" fill="black"/>
<path fill-rule="evenodd" clip-rule="evenodd" d="M19.4901 29.298C20.2622 29.7989 20.8599 30.4059 21.1733 30.8111L21.2266 30.7699C20.9088 30.3591 20.3056 29.7468 19.5267 29.2415C18.7479 28.7364 17.7906 28.3365 16.7654 28.3551L16.7666 28.4224C17.7737 28.4041 18.7178 28.7971 19.4901 29.298Z" fill="black"/>
<path fill-rule="evenodd" clip-rule="evenodd" d="M18.7843 30.1693C19.6918 30.3227 20.4812 30.6428 20.9297 30.8903L20.9622 30.8314C20.5075 30.5804 19.7109 30.2577 18.7955 30.1029C17.8801 29.9482 16.8428 29.9609 15.9091 30.3848L15.937 30.446C16.8541 30.0297 17.8767 30.0159 18.7843 30.1693Z" fill="black"/>
<path fill-rule="evenodd" clip-rule="evenodd" d="M18.8603 31.2575C19.7724 31.1341 20.6213 31.2051 21.1231 31.3081L21.1366 31.2422C20.6279 31.1377 19.7713 31.0664 18.8513 31.1908C17.9313 31.3152 16.9446 31.6357 16.1792 32.3179L16.224 32.3682C16.9759 31.698 17.9481 31.3808 18.8603 31.2575Z" fill="black"/>
<path fill-rule="evenodd" clip-rule="evenodd" d="M174.268 0.22168H200.482V1.62895H201.893V0.22168H203.303V9.87152C203.303 12.5912 201.099 14.7959 198.379 14.7959H169.344V13.3854H170.754V14.7958H172.164V13.3854L170.754 13.3854L170.754 11.975H169.344V5.14609C169.344 2.42641 171.548 0.22168 174.268 0.22168ZM203.303 1.62905L201.893 1.62895L201.892 3.03946H203.303V1.62905Z" fill="white"/>
<path d="M194.801 4.88242C194.801 4.84547 194.831 4.81551 194.868 4.81551H196.079C196.116 4.81551 196.146 4.78555 196.146 4.74859V3.53078C196.146 3.49383 196.176 3.46387 196.213 3.46387H197.216C197.253 3.46387 197.283 3.49383 197.283 3.53078V4.74859C197.283 4.78555 197.313 4.81551 197.35 4.81551H198.568C198.605 4.81551 198.635 4.84547 198.635 4.88242V5.88611C198.635 5.92307 198.605 5.95303 198.568 5.95303H197.35C197.313 5.95303 197.283 5.98298 197.283 6.01994V7.23106C197.283 7.26802 197.253 7.29797 197.216 7.29797H196.213C196.176 7.29797 196.146 7.26802 196.146 7.23106V6.01994C196.146 5.98298 196.116 5.95303 196.079 5.95303H194.868C194.831 5.95303 194.801 5.92307 194.801 5.88611V4.88242Z" fill="#1D1C1A"/>
<path d="M176.193 5.68549C176.705 5.68549 177.105 5.81222 177.393 6.06569C177.68 6.31916 177.824 6.67986 177.824 7.1478V9.66733C177.824 9.74164 177.764 9.80189 177.689 9.80189H176.941C176.891 9.80189 176.844 9.77339 176.821 9.72816L176.596 9.28275C176.591 9.27379 176.582 9.26814 176.572 9.26814V9.26814C176.564 9.26814 176.556 9.27187 176.551 9.27822C176.441 9.41507 176.327 9.52869 176.208 9.6191C176.091 9.70684 175.955 9.7702 175.799 9.8092C175.643 9.85307 175.453 9.875 175.228 9.875C174.994 9.875 174.785 9.8287 174.6 9.73608C174.414 9.6386 174.268 9.4948 174.161 9.3047C174.054 9.10973 174 8.86357 174 8.56624C174 8.13242 174.149 7.81071 174.446 7.60111C174.748 7.39152 175.184 7.27453 175.755 7.25016L176.369 7.23013C176.402 7.22907 176.427 7.20234 176.427 7.16973V7.16973C176.427 6.98938 176.384 6.86265 176.296 6.78953C176.208 6.71154 176.089 6.67255 175.938 6.67255C175.777 6.67255 175.599 6.70179 175.404 6.76029C175.249 6.80277 175.093 6.85596 174.936 6.91986C174.867 6.94783 174.787 6.91695 174.758 6.84874L174.46 6.16621C174.431 6.10138 174.458 6.02537 174.522 5.99581C174.727 5.90157 174.953 5.82981 175.199 5.78054C175.496 5.71717 175.828 5.68549 176.193 5.68549ZM176.113 8.01056C175.86 8.02031 175.679 8.06661 175.572 8.14948C175.47 8.22747 175.418 8.33958 175.418 8.48581C175.418 8.62229 175.455 8.72465 175.528 8.79289C175.601 8.85626 175.699 8.88794 175.821 8.88794C175.991 8.88794 176.135 8.83433 176.252 8.72709C176.374 8.61985 176.435 8.48094 176.435 8.31033V8.13675C176.435 8.06004 176.371 7.99885 176.294 8.00233L176.113 8.01056Z" fill="#1D1C1A"/>
<path d="M180.171 9.66733C180.171 9.74164 180.111 9.80189 180.037 9.80189H178.909C178.835 9.80189 178.775 9.74164 178.775 9.66733V4.37967C178.775 4.30536 178.835 4.24512 178.909 4.24512H180.037C180.111 4.24512 180.171 4.30536 180.171 4.37968V9.66733Z" fill="#1D1C1A"/>
<path d="M183.609 5.68549C184.058 5.68549 184.409 5.86584 184.662 6.22654C184.916 6.58237 185.043 7.09662 185.043 7.76928C185.043 8.22747 184.977 8.61498 184.845 8.93181C184.718 9.24377 184.543 9.48018 184.319 9.64103C184.099 9.79701 183.848 9.875 183.566 9.875C183.376 9.875 183.215 9.85063 183.083 9.80189C182.951 9.75314 182.842 9.69465 182.754 9.62641C182.67 9.55673 182.6 9.48704 182.543 9.41736C182.538 9.41088 182.53 9.40706 182.521 9.40706V9.40706C182.505 9.40706 182.492 9.42123 182.494 9.43751C182.503 9.52148 182.511 9.61125 182.52 9.70684C182.53 9.81407 182.535 9.93837 182.535 10.0797V11.4221C182.535 11.4964 182.474 11.5567 182.4 11.5567H181.273C181.198 11.5567 181.138 11.4964 181.138 11.4221V5.89316C181.138 5.81885 181.198 5.75861 181.273 5.75861H182.179C182.235 5.75861 182.285 5.79284 182.305 5.84474L182.456 6.23631C182.464 6.25686 182.483 6.27041 182.505 6.27041V6.27041C182.524 6.27041 182.541 6.26107 182.551 6.24589C182.615 6.14827 182.69 6.05895 182.776 5.97795C182.873 5.89021 182.99 5.81954 183.127 5.76592C183.263 5.7123 183.424 5.68549 183.609 5.68549ZM183.083 6.78222C182.947 6.78222 182.839 6.81634 182.761 6.88458C182.683 6.94795 182.627 7.043 182.593 7.16973C182.559 7.29647 182.54 7.45732 182.535 7.65229V7.76197C182.535 7.97644 182.549 8.15679 182.579 8.30302C182.613 8.44925 182.671 8.56136 182.754 8.63935C182.837 8.71247 182.949 8.74902 183.09 8.74902C183.207 8.74902 183.305 8.71734 183.383 8.65398C183.466 8.58573 183.527 8.4785 183.566 8.33227C183.605 8.18604 183.624 7.9935 183.624 7.75466C183.624 7.39883 183.578 7.1478 183.485 7.00157C183.393 6.85534 183.259 6.78222 183.083 6.78222Z" fill="#1D1C1A"/>
<path d="M187.233 5.03476C187.233 5.3321 187.226 5.58313 187.211 5.78785C187.198 5.96644 187.187 6.10793 187.178 6.21234C187.176 6.23568 187.195 6.25579 187.218 6.25579V6.25579C187.232 6.25579 187.245 6.24864 187.252 6.23702C187.337 6.10448 187.43 5.99862 187.533 5.91946C187.645 5.8366 187.769 5.7781 187.906 5.74398C188.042 5.70499 188.191 5.68549 188.352 5.68549C188.62 5.68549 188.861 5.73667 189.075 5.83903C189.29 5.94139 189.46 6.10225 189.587 6.32159C189.719 6.53607 189.785 6.81878 189.785 7.16973V9.66733C189.785 9.74164 189.724 9.80189 189.65 9.80189H188.515C188.441 9.80189 188.381 9.74164 188.381 9.66733V7.5938C188.381 7.32571 188.342 7.12343 188.264 6.98694C188.186 6.85046 188.064 6.78222 187.898 6.78222C187.733 6.78222 187.601 6.83096 187.503 6.92845C187.406 7.02594 187.335 7.1673 187.291 7.35252C187.252 7.53287 187.233 7.75709 187.233 8.02518V9.66733C187.233 9.74164 187.173 9.80189 187.098 9.80189H185.971C185.897 9.80189 185.836 9.74164 185.836 9.66733V4.37967C185.836 4.30536 185.897 4.24512 185.971 4.24512H187.098C187.173 4.24512 187.233 4.30536 187.233 4.37968V5.03476Z" fill="#1D1C1A"/>
<path d="M192.709 5.68549C193.22 5.68549 193.62 5.81222 193.908 6.06569C194.195 6.31916 194.339 6.67986 194.339 7.1478V9.66733C194.339 9.74164 194.279 9.80189 194.205 9.80189H193.457C193.406 9.80189 193.36 9.77339 193.337 9.72816L193.111 9.28274C193.106 9.27379 193.097 9.26814 193.087 9.26814V9.26814C193.079 9.26814 193.071 9.27187 193.066 9.27822C192.957 9.41507 192.842 9.52869 192.723 9.6191C192.606 9.70684 192.47 9.7702 192.314 9.8092C192.158 9.85307 191.968 9.875 191.744 9.875C191.51 9.875 191.3 9.8287 191.115 9.73608C190.93 9.6386 190.783 9.4948 190.676 9.3047C190.569 9.10973 190.515 8.86357 190.515 8.56624C190.515 8.13242 190.664 7.81071 190.961 7.60111C191.263 7.39152 191.7 7.27453 192.27 7.25016L192.884 7.23013C192.917 7.22907 192.943 7.20234 192.943 7.16973V7.16973C192.943 6.98938 192.899 6.86265 192.811 6.78953C192.723 6.71154 192.604 6.67255 192.453 6.67255C192.292 6.67255 192.114 6.70179 191.919 6.76029C191.765 6.80277 191.609 6.85596 191.451 6.91986C191.382 6.94783 191.303 6.91695 191.273 6.84874L190.975 6.16621C190.947 6.10138 190.973 6.02537 191.037 5.99581C191.242 5.90157 191.468 5.82981 191.714 5.78054C192.012 5.71717 192.343 5.68549 192.709 5.68549ZM192.628 8.01056C192.375 8.02031 192.194 8.06661 192.087 8.14948C191.985 8.22747 191.934 8.33958 191.934 8.48581C191.934 8.62229 191.97 8.72465 192.043 8.79289C192.116 8.85626 192.214 8.88794 192.336 8.88794C192.506 8.88794 192.65 8.83433 192.767 8.72709C192.889 8.61985 192.95 8.48094 192.95 8.31033V8.13675C192.95 8.06004 192.886 7.99885 192.809 8.00233L192.628 8.01056Z" fill="#1D1C1A"/>
</svg>
