<svg width="225" height="39" viewBox="0 0 225 39" fill="none" xmlns="http://www.w3.org/2000/svg">
<path d="M57.3858 13.5962V19.3343C57.3858 19.5036 57.4531 19.6661 57.5729 19.7858C57.6927 19.9056 57.8551 19.9729 58.0245 19.9729H63.5472C63.6308 19.9726 63.7134 19.9558 63.7905 19.9236C63.8676 19.8913 63.9375 19.8442 63.9964 19.7849C64.0552 19.7256 64.1018 19.6552 64.1335 19.5779C64.1651 19.5006 64.1813 19.4178 64.1809 19.3343V13.5987C64.1806 13.5147 64.1969 13.4315 64.2289 13.3538C64.2609 13.2762 64.3079 13.2057 64.3673 13.1463C64.4266 13.0869 64.4972 13.0399 64.5748 13.0079C64.6524 12.9759 64.7356 12.9596 64.8196 12.96H67.6664C67.7501 12.96 67.8331 12.9765 67.9104 13.0086C67.9878 13.0407 68.058 13.0879 68.1171 13.1472C68.1762 13.2065 68.223 13.277 68.2549 13.3544C68.2867 13.4319 68.3029 13.5149 68.3026 13.5987V30.553C68.3029 30.6368 68.2867 30.7198 68.2549 30.7973C68.223 30.8747 68.1762 30.9451 68.1171 31.0045C68.058 31.0638 67.9878 31.1109 67.9104 31.143C67.8331 31.1751 67.7501 31.1917 67.6664 31.1917H64.8196C64.7356 31.192 64.6524 31.1757 64.5748 31.1437C64.4972 31.1118 64.4266 31.0647 64.3673 31.0053C64.3079 30.946 64.2609 30.8754 64.2289 30.7978C64.1969 30.7202 64.1806 30.637 64.1809 30.553V24.1985C64.1809 24.0298 64.1139 23.868 63.9946 23.7487C63.8753 23.6294 63.7135 23.5624 63.5448 23.5624H58.022C57.8531 23.5624 57.691 23.6293 57.5713 23.7485C57.4516 23.8677 57.384 24.0295 57.3834 24.1985V30.553C57.3837 30.6368 57.3675 30.7198 57.3356 30.7973C57.3038 30.8747 57.257 30.9451 57.1979 31.0045C57.1388 31.0638 57.0685 31.1109 56.9912 31.143C56.9138 31.1751 56.8309 31.1917 56.7472 31.1917H53.9004C53.8164 31.192 53.7332 31.1757 53.6556 31.1437C53.5779 31.1118 53.5074 31.0647 53.448 31.0053C53.3887 30.946 53.3417 30.8754 53.3097 30.7978C53.2777 30.7202 53.2614 30.637 53.2617 30.553V13.5987C53.2614 13.5147 53.2777 13.4315 53.3097 13.3538C53.3417 13.2762 53.3887 13.2057 53.448 13.1463C53.5074 13.0869 53.5779 13.0399 53.6556 13.0079C53.7332 12.9759 53.8164 12.9596 53.9004 12.96H56.7546C56.9225 12.9613 57.083 13.0289 57.2012 13.148C57.3195 13.2672 57.3858 13.4283 57.3858 13.5962V13.5962Z" fill="black"/>
<path d="M76.2636 26.9716L75.2338 30.717C75.1966 30.8513 75.1164 30.9697 75.0055 31.0541C74.8947 31.1386 74.7593 31.1845 74.6199 31.1848H71.7038C71.6041 31.185 71.5057 31.1618 71.4166 31.1169C71.3275 31.0721 71.2502 31.0069 71.1909 30.9267C71.1316 30.8465 71.092 30.7534 71.0754 30.655C71.0587 30.5567 71.0654 30.4558 71.0949 30.3605L76.2686 13.4037C76.3084 13.2732 76.389 13.159 76.4987 13.0779C76.6083 12.9967 76.7411 12.953 76.8775 12.9531H81.3333C81.4694 12.9529 81.602 12.9963 81.7116 13.0769C81.8212 13.1575 81.9021 13.2712 81.9423 13.4012L87.2224 30.358C87.2519 30.4535 87.2585 30.5545 87.2418 30.6529C87.2251 30.7514 87.1856 30.8445 87.1263 30.9249C87.0671 31.0053 86.9899 31.0707 86.9008 31.1159C86.8118 31.161 86.7133 31.1846 86.6135 31.1848H83.5117C83.3747 31.1846 83.2414 31.1401 83.1317 31.0581C83.022 30.976 82.9417 30.8607 82.9028 30.7294L81.7715 26.9568C81.7325 26.8257 81.6521 26.7107 81.5423 26.629C81.4326 26.5474 81.2993 26.5034 81.1625 26.5038H76.88C76.74 26.5027 76.6036 26.548 76.4921 26.6327C76.3806 26.7173 76.3002 26.8365 76.2636 26.9716ZM80.1724 23.4317C80.2712 23.4318 80.3687 23.4089 80.4571 23.3648C80.5456 23.3206 80.6225 23.2565 80.6818 23.1775C80.7412 23.0984 80.7813 23.0067 80.799 22.9095C80.8167 22.8122 80.8115 22.7122 80.7838 22.6173L79.8877 19.5576C79.5733 18.4808 79.2515 17.1144 78.9718 16.0474H78.9148C78.6475 17.1193 78.3727 18.5031 78.0806 19.5626L77.2166 22.6223C77.1898 22.717 77.1854 22.8167 77.2037 22.9135C77.2219 23.0103 77.2624 23.1015 77.3219 23.18C77.3814 23.2584 77.4583 23.3221 77.5466 23.3657C77.6349 23.4094 77.7321 23.432 77.8306 23.4317H80.1724Z" fill="black"/>
<path d="M105.786 24.2115C105.702 22.0009 105.618 19.3744 105.628 16.7009H105.553C104.972 19.0353 104.207 21.6271 103.521 23.7783L101.427 30.4397C101.386 30.5688 101.306 30.6817 101.197 30.7618C101.088 30.842 100.956 30.8852 100.82 30.8853H98.5677C98.4287 30.8851 98.2935 30.8396 98.1827 30.7556C98.0719 30.6716 97.9916 30.5538 97.9538 30.4199L96.1195 23.8402C95.5328 21.6939 94.9263 19.1046 94.4758 16.7009H94.4189C94.3273 19.1764 94.2258 21.9959 94.1169 24.2659L93.805 30.5783C93.7973 30.7419 93.7269 30.8962 93.6084 31.0091C93.49 31.1221 93.3325 31.185 93.1688 31.1848H90.6413C90.5542 31.1846 90.4681 31.1667 90.3882 31.132C90.3083 31.0973 90.2364 31.0466 90.1768 30.9831C90.1172 30.9195 90.0712 30.8445 90.0417 30.7625C90.0122 30.6806 89.9997 30.5935 90.0051 30.5065L91.0919 13.5497C91.102 13.3879 91.1734 13.2361 91.2917 13.1252C91.4099 13.0144 91.566 12.9528 91.7281 12.9531H96.1467C96.2844 12.9534 96.4183 12.9981 96.5285 13.0806C96.6387 13.1631 96.7192 13.2791 96.7582 13.4111L98.4019 19.0477C98.9787 21.137 99.5406 23.4268 99.949 25.5655H100.036C100.531 23.454 101.152 21.0503 101.768 19.0205L103.563 13.3962C103.605 13.2678 103.685 13.1557 103.794 13.0761C103.903 12.9965 104.035 12.9534 104.17 12.9531H108.492C108.655 12.9529 108.812 13.0155 108.931 13.128C109.049 13.2404 109.12 13.394 109.128 13.5571L110.039 30.514C110.043 30.6003 110.03 30.6866 110 30.7677C109.97 30.8488 109.924 30.923 109.865 30.9857C109.805 31.0484 109.733 31.0984 109.654 31.1326C109.575 31.1668 109.489 31.1846 109.403 31.1848H106.68C106.515 31.1849 106.357 31.1213 106.238 31.0073C106.12 30.8933 106.05 30.7378 106.044 30.5734L105.786 24.2115Z" fill="black"/>
<path d="M113.355 27.6831C113.377 27.5933 113.418 27.5093 113.476 27.4372C113.534 27.3651 113.607 27.3065 113.69 27.2654C113.773 27.2244 113.864 27.202 113.957 27.1998C114.049 27.1975 114.141 27.2155 114.226 27.2524C115.456 27.7767 116.776 28.0551 118.113 28.0718C120.004 28.0718 121.009 27.2846 121.009 26.0914C121.009 24.97 120.137 24.3116 117.957 23.5417C114.914 22.4624 112.926 20.8063 112.926 18.1427C112.926 15.0335 115.536 12.672 119.823 12.672C121.228 12.6452 122.625 12.8784 123.945 13.3601C124.093 13.4176 124.214 13.5279 124.285 13.6696C124.357 13.8114 124.373 13.9745 124.331 14.1275L123.761 16.1896C123.739 16.2751 123.698 16.3548 123.643 16.4236C123.588 16.4925 123.518 16.5489 123.44 16.5893C123.361 16.6296 123.275 16.6531 123.186 16.658C123.098 16.6629 123.01 16.6492 122.927 16.6179C121.918 16.2262 120.844 16.0263 119.761 16.0287C117.966 16.0287 117.11 16.8604 117.11 17.7912C117.11 18.9497 118.12 19.4621 120.484 20.3533C123.702 21.5613 125.207 23.2372 125.207 25.8141C125.207 28.8565 122.875 31.4706 117.858 31.4706C116.258 31.4697 114.672 31.1648 113.186 30.572C113.048 30.511 112.936 30.4026 112.871 30.2665C112.806 30.1303 112.791 29.9753 112.83 29.8293L113.355 27.6831Z" fill="black"/>
<path d="M132.243 16.4138H128.6C128.516 16.4141 128.433 16.398 128.355 16.3661C128.278 16.3343 128.208 16.2874 128.148 16.2283C128.089 16.1692 128.042 16.099 128.01 16.0216C127.977 15.9443 127.961 15.8614 127.961 15.7776V13.5918C127.961 13.5079 127.977 13.4246 128.009 13.347C128.041 13.2694 128.088 13.1988 128.147 13.1395C128.207 13.0801 128.277 13.033 128.355 13.0011C128.432 12.9691 128.516 12.9528 128.6 12.9531H141.356C141.439 12.9531 141.522 12.9697 141.6 13.0018C141.677 13.0339 141.747 13.081 141.806 13.1404C141.865 13.1997 141.912 13.2701 141.944 13.3476C141.976 13.4251 141.992 13.5081 141.992 13.5918V15.7776C141.992 15.9463 141.925 16.1082 141.806 16.2275C141.686 16.3468 141.524 16.4138 141.356 16.4138H137.642C137.559 16.4138 137.476 16.4303 137.398 16.4625C137.321 16.4946 137.251 16.5417 137.192 16.601C137.133 16.6604 137.086 16.7308 137.054 16.8083C137.022 16.8857 137.006 16.9687 137.006 17.0525V30.5462C137.007 30.63 136.99 30.7129 136.959 30.7904C136.927 30.8679 136.88 30.9383 136.821 30.9977C136.762 31.057 136.691 31.104 136.614 31.1362C136.537 31.1683 136.454 31.1848 136.37 31.1848H133.518C133.435 31.1848 133.352 31.1683 133.274 31.1362C133.197 31.104 133.127 31.057 133.068 30.9977C133.009 30.9383 132.962 30.8679 132.93 30.7904C132.898 30.7129 132.882 30.63 132.882 30.5462V17.0525C132.882 16.9686 132.866 16.8856 132.834 16.8081C132.801 16.7306 132.754 16.6602 132.695 16.6009C132.636 16.5416 132.565 16.4946 132.488 16.4625C132.41 16.4304 132.327 16.4138 132.243 16.4138Z" fill="black"/>
<path d="M154.962 23.4713H149.516C149.347 23.472 149.185 23.5396 149.066 23.6593C148.946 23.779 148.879 23.9411 148.879 24.11V27.1696C148.879 27.2534 148.895 27.3364 148.927 27.4139C148.959 27.4913 149.006 27.5618 149.065 27.6211C149.124 27.6804 149.194 27.7275 149.272 27.7597C149.349 27.7918 149.432 27.8083 149.516 27.8083H155.741C155.91 27.8083 156.072 27.8753 156.191 27.9946C156.311 28.114 156.378 28.2758 156.378 28.4445V30.5462C156.378 30.6299 156.362 30.7129 156.33 30.7904C156.298 30.8679 156.251 30.9383 156.192 30.9976C156.133 31.057 156.063 31.104 155.985 31.1362C155.908 31.1683 155.825 31.1848 155.741 31.1848H145.394C145.31 31.1848 145.227 31.1683 145.15 31.1362C145.073 31.104 145.002 31.057 144.943 30.9976C144.884 30.9383 144.837 30.8679 144.806 30.7904C144.774 30.7129 144.757 30.6299 144.758 30.5462V13.5918C144.757 13.5081 144.774 13.4251 144.806 13.3476C144.837 13.2701 144.884 13.1997 144.943 13.1404C145.002 13.081 145.073 13.0339 145.15 13.0018C145.227 12.9696 145.31 12.9531 145.394 12.9531H155.35C155.52 12.9531 155.682 13.0204 155.802 13.1402C155.922 13.2599 155.989 13.4224 155.989 13.5918V15.6935C155.988 15.8624 155.921 16.0242 155.801 16.1435C155.681 16.2627 155.519 16.3296 155.35 16.3296H149.516C149.432 16.3296 149.349 16.3462 149.272 16.3783C149.194 16.4105 149.124 16.4575 149.065 16.5168C149.006 16.5762 148.959 16.6466 148.927 16.7241C148.895 16.8016 148.879 16.8845 148.879 16.9683V19.4908C148.879 19.6595 148.946 19.8213 149.066 19.9407C149.185 20.06 149.347 20.127 149.516 20.127H154.962C155.131 20.1276 155.293 20.1951 155.413 20.3148C155.532 20.4344 155.6 20.5965 155.6 20.7657V22.8351C155.6 23.0041 155.532 23.1659 155.412 23.2851C155.293 23.4044 155.131 23.4713 154.962 23.4713V23.4713Z" fill="black"/>
<path d="M159.145 13.7492C159.145 13.5947 159.201 13.4456 159.303 13.3296C159.405 13.2135 159.546 13.1383 159.699 13.1179C161.332 12.9057 162.976 12.8032 164.623 12.811C167.326 12.811 169.22 13.2244 170.522 14.2542C171.611 15.1206 172.21 16.4004 172.21 18.0763C172.21 20.3859 170.559 21.9949 168.992 22.5568V22.6435C170.257 23.1534 170.972 24.3615 171.428 26.0374C171.849 27.5796 172.262 29.2975 172.594 30.3595C172.623 30.4548 172.63 30.5556 172.613 30.654C172.596 30.7523 172.557 30.8454 172.498 30.9256C172.438 31.0059 172.361 31.071 172.272 31.1159C172.183 31.1607 172.084 31.184 171.985 31.1838H169.093C168.967 31.1857 168.843 31.149 168.737 31.0787C168.632 31.0084 168.551 30.9078 168.504 30.7902C168.061 29.5294 167.701 28.2411 167.425 26.9334C166.93 24.656 166.15 24.0471 164.454 24.0248H163.865C163.696 24.0254 163.534 24.093 163.415 24.2127C163.296 24.3324 163.229 24.4945 163.229 24.6635V30.5451C163.229 30.6291 163.213 30.7123 163.181 30.7899C163.149 30.8675 163.102 30.9381 163.043 30.9974C162.983 31.0568 162.913 31.1039 162.835 31.1358C162.758 31.1678 162.674 31.1841 162.59 31.1838H159.781C159.697 31.1838 159.614 31.1672 159.537 31.1351C159.459 31.103 159.389 31.0559 159.33 30.9966C159.271 30.9373 159.224 30.8668 159.192 30.7894C159.16 30.7119 159.144 30.6289 159.145 30.5451V13.7492ZM163.229 20.4057C163.229 20.5744 163.296 20.7362 163.415 20.8555C163.535 20.9748 163.696 21.0418 163.865 21.0418H164.855C166.9 21.0418 168.123 19.9997 168.123 18.4154C168.123 16.747 166.979 15.8929 165.096 15.883C164.556 15.883 164.138 15.9028 163.823 15.9325C163.664 15.9456 163.516 16.0181 163.408 16.1355C163.3 16.253 163.241 16.4068 163.241 16.5663L163.229 20.4057Z" fill="black"/>
<path d="M17.4837 8.30537C16.8121 8.47581 16.11 8.21379 15.613 7.73081C14.544 6.69166 13.0848 6.05176 11.4762 6.05176C8.19804 6.05176 5.54051 8.70929 5.54051 11.9875C5.54051 12.3442 5.572 12.6935 5.63231 13.0328C5.71171 13.4795 5.55808 13.9463 5.20153 14.2269C2.09831 16.669 0.105469 20.4588 0.105469 24.7141C0.105469 32.08 6.07673 38.0512 13.4426 38.0512C17.2518 38.0512 20.6881 36.4543 23.1184 33.8935C25.5487 36.4543 28.9848 38.0512 32.7941 38.0512C40.1601 38.0512 46.1313 32.08 46.1313 24.7141C46.1313 20.8112 44.4549 17.2999 41.7829 14.8608C41.4385 14.5465 41.3228 14.0527 41.4495 13.604C41.5946 13.0901 41.6723 12.5479 41.6723 11.9875C41.6723 8.70929 39.0147 6.05176 35.7365 6.05176C34.2091 6.05176 32.8165 6.62869 31.7646 7.57639C31.2924 8.00189 30.6545 8.23388 30.0333 8.09928C28.1928 7.70044 26.2318 7.48522 24.1968 7.48522C21.8352 7.48522 19.5734 7.77511 17.4837 8.30537Z" fill="#A05E1C"/>
<path d="M5.57114 13.7177C5.4968 13.9152 5.37249 14.0925 5.20153 14.2271C2.09831 16.6691 0.105469 20.4589 0.105469 24.7142C0.105469 32.0801 6.07673 38.0513 13.4426 38.0513C17.2518 38.0513 20.6881 36.4545 23.1184 33.8936C25.5487 36.4545 28.9848 38.0513 32.794 38.0513C40.1601 38.0513 46.1313 32.0801 46.1313 24.7142C46.1313 20.8113 44.4549 17.3 41.7829 14.861C41.5235 14.6241 41.3938 14.2855 41.3998 13.941L41.3307 14.1386C41.3307 14.1386 33.4655 13.0162 29.0503 17.4405C22.8243 23.6791 22.8243 30.9686 22.8243 30.9686C22.8243 30.9686 22.8243 23.1392 16.8112 17.4405C11.8706 12.7583 5.5976 13.7487 5.5976 13.7487L5.57114 13.7177Z" fill="#E9C89C"/>
<path d="M21.9857 33.9741C22.5111 34.5868 23.4589 34.5868 23.9843 33.9741L25.1348 32.6324C25.8669 31.7786 25.2603 30.4592 24.1355 30.4592H21.8345C20.7098 30.4592 20.1031 31.7786 20.8352 32.6324L21.9857 33.9741Z" fill="black"/>
<path d="M32.5689 24.5166C33.5372 24.0281 34.0366 22.5442 33.6841 21.2021C33.3316 19.8601 32.2609 19.1681 31.2925 19.6566C30.3241 20.145 29.8248 21.629 30.1773 22.971C30.5297 24.3131 31.6005 25.0051 32.5689 24.5166Z" fill="black"/>
<path d="M31.5929 21.5835C31.9547 21.4518 32.1412 21.0517 32.0095 20.6899C31.8779 20.3281 31.4778 20.1416 31.116 20.2733C30.7542 20.405 30.5677 20.805 30.6994 21.1668C30.8311 21.5286 31.2311 21.7151 31.5929 21.5835Z" fill="white"/>
<path d="M13.7436 24.5215C12.7752 24.0331 12.2759 22.5491 12.6283 21.207C12.9808 19.8649 14.0516 19.173 15.02 19.6614C15.9884 20.1499 16.4877 21.6339 16.1352 22.976C15.7828 24.318 14.712 25.01 13.7436 24.5215Z" fill="black"/>
<path d="M14.7196 21.5884C14.3578 21.4567 14.1712 21.0566 14.3029 20.6948C14.4346 20.333 14.8347 20.1465 15.1965 20.2782C15.5583 20.4099 15.7448 20.8099 15.6131 21.1717C15.4814 21.5335 15.0814 21.7201 14.7196 21.5884Z" fill="white"/>
<path fill-rule="evenodd" clip-rule="evenodd" d="M25.9591 30.9262C25.1644 31.4417 24.5492 32.0664 24.2267 32.4834L24.1719 32.441C24.4989 32.0182 25.1197 31.388 25.9214 30.868C26.723 30.3481 27.7082 29.9365 28.7633 29.9557L28.7621 30.025C27.7256 30.0062 26.7539 30.4106 25.9591 30.9262Z" fill="black"/>
<path fill-rule="evenodd" clip-rule="evenodd" d="M26.6732 31.8231C25.7392 31.981 24.9267 32.3104 24.4652 32.5652L24.4317 32.5046C24.8996 32.2462 25.7195 31.9141 26.6617 31.7548C27.6038 31.5956 28.6714 31.6087 29.6324 32.0449L29.6037 32.108C28.6597 31.6794 27.6074 31.6652 26.6732 31.8231Z" fill="black"/>
<path fill-rule="evenodd" clip-rule="evenodd" d="M26.586 32.9423C25.6473 32.8154 24.7736 32.8884 24.2571 32.9944L24.2432 32.9266C24.7668 32.819 25.6484 32.7456 26.5953 32.8736C27.5421 33.0017 28.5576 33.3316 29.3454 34.0337L29.2993 34.0855C28.5254 33.3957 27.5248 33.0692 26.586 32.9423Z" fill="black"/>
<path fill-rule="evenodd" clip-rule="evenodd" d="M20.0565 30.9262C20.8513 31.4417 21.4664 32.0664 21.789 32.4834L21.8438 32.441C21.5167 32.0182 20.8959 31.388 20.0942 30.868C19.2926 30.3481 18.3074 29.9365 17.2523 29.9557L17.2536 30.025C18.2901 30.0062 19.2617 30.4106 20.0565 30.9262Z" fill="black"/>
<path fill-rule="evenodd" clip-rule="evenodd" d="M19.3268 31.8231C20.2608 31.981 21.0733 32.3104 21.5348 32.5652L21.5683 32.5046C21.1004 32.2462 20.2805 31.9141 19.3383 31.7548C18.3962 31.5956 17.3286 31.6087 16.3676 32.0449L16.3963 32.108C17.3403 31.6794 18.3926 31.6652 19.3268 31.8231Z" fill="black"/>
<path fill-rule="evenodd" clip-rule="evenodd" d="M19.4062 32.9423C20.3449 32.8154 21.2186 32.8884 21.735 32.9944L21.749 32.9266C21.2254 32.819 20.3438 32.7456 19.3969 32.8736C18.4501 33.0017 17.4346 33.3316 16.6468 34.0337L16.6929 34.0855C17.4668 33.3957 18.4674 33.0692 19.4062 32.9423Z" fill="black"/>
<path fill-rule="evenodd" clip-rule="evenodd" d="M181.73 0H221.053V1.83843H222.895V0H224.738V12.6064C224.738 16.1593 221.858 19.0395 218.305 19.0395H175.297V17.1969H177.139V19.0393H178.982V17.1968H177.139V15.3544H175.297V6.43315C175.297 2.88022 178.177 0 181.73 0ZM224.738 1.83856H222.895V3.68109H224.738V1.83856Z" fill="black"/>
<path d="M212.578 5.63197C212.578 5.57724 212.622 5.53288 212.677 5.53288H214.471C214.525 5.53288 214.57 5.48851 214.57 5.43379V3.63034C214.57 3.57561 214.614 3.53125 214.669 3.53125H216.155C216.21 3.53125 216.254 3.57561 216.254 3.63034V5.43379C216.254 5.48851 216.299 5.53288 216.353 5.53288H218.157C218.212 5.53288 218.256 5.57724 218.256 5.63197V7.11832C218.256 7.17305 218.212 7.21741 218.157 7.21741H216.353C216.299 7.21741 216.254 7.26178 216.254 7.31651V9.11004C216.254 9.16477 216.21 9.20913 216.155 9.20913H214.669C214.614 9.20913 214.57 9.16477 214.57 9.11004V7.31651C214.57 7.26178 214.525 7.21741 214.471 7.21741H212.677C212.622 7.21741 212.578 7.17305 212.578 7.11832V5.63197Z" fill="white"/>
<path d="M185.022 6.81955C185.78 6.81955 186.372 7.00723 186.797 7.38259C187.223 7.75794 187.436 8.2921 187.436 8.98507V12.7162C187.436 12.8263 187.347 12.9155 187.237 12.9155H186.129C186.054 12.9155 185.986 12.8733 185.952 12.8063L185.617 12.1467C185.611 12.1334 185.597 12.1251 185.582 12.1251V12.1251C185.57 12.1251 185.559 12.1306 185.551 12.14C185.389 12.3426 185.22 12.5109 185.043 12.6448C184.87 12.7747 184.668 12.8686 184.437 12.9263C184.206 12.9913 183.925 13.0238 183.592 13.0238C183.246 13.0238 182.936 12.9552 182.661 12.818C182.387 12.6737 182.17 12.4607 182.012 12.1792C181.853 11.8905 181.773 11.5259 181.773 11.0856C181.773 10.4432 181.994 9.96677 182.434 9.65638C182.881 9.34599 183.528 9.17275 184.372 9.13666L185.282 9.107C185.33 9.10542 185.368 9.06584 185.368 9.01755V9.01755C185.368 8.75047 185.303 8.56279 185.173 8.45452C185.043 8.33902 184.867 8.28128 184.643 8.28128C184.405 8.28128 184.141 8.32459 183.852 8.41121C183.624 8.47412 183.393 8.55289 183.159 8.64751C183.057 8.68894 182.94 8.64321 182.895 8.5422L182.454 7.53144C182.412 7.43544 182.452 7.32288 182.547 7.2791C182.85 7.13954 183.184 7.03328 183.549 6.96031C183.989 6.86647 184.48 6.81955 185.022 6.81955ZM184.903 10.2627C184.527 10.2772 184.26 10.3457 184.101 10.4684C183.95 10.5839 183.874 10.75 183.874 10.9665C183.874 11.1686 183.928 11.3202 184.036 11.4213C184.145 11.5151 184.289 11.562 184.47 11.562C184.722 11.562 184.935 11.4826 185.108 11.3238C185.289 11.165 185.379 10.9593 185.379 10.7067V10.4496C185.379 10.336 185.284 10.2454 185.171 10.2505L184.903 10.2627Z" fill="white"/>
<path d="M190.912 12.7162C190.912 12.8263 190.823 12.9155 190.713 12.9155H189.044C188.934 12.9155 188.844 12.8263 188.844 12.7162V4.88579C188.844 4.77574 188.934 4.68652 189.044 4.68652H190.713C190.823 4.68652 190.912 4.77574 190.912 4.88579V12.7162Z" fill="white"/>
<path d="M196.004 6.81955C196.668 6.81955 197.188 7.08663 197.563 7.6208C197.939 8.14774 198.126 8.90928 198.126 9.90541C198.126 10.5839 198.029 11.1578 197.834 11.627C197.646 12.089 197.386 12.4391 197.054 12.6773C196.729 12.9083 196.358 13.0238 195.939 13.0238C195.658 13.0238 195.419 12.9877 195.224 12.9155C195.03 12.8433 194.867 12.7567 194.737 12.6556C194.613 12.5524 194.509 12.4492 194.425 12.346C194.417 12.3364 194.405 12.3308 194.393 12.3308V12.3308C194.368 12.3308 194.35 12.3518 194.352 12.3759C194.365 12.5002 194.378 12.6332 194.391 12.7747C194.405 12.9335 194.412 13.1176 194.412 13.3269V15.3148C194.412 15.4249 194.323 15.5141 194.213 15.5141H192.544C192.433 15.5141 192.344 15.4249 192.344 15.3148V7.1271C192.344 7.01704 192.433 6.92783 192.544 6.92783H193.886C193.968 6.92783 194.042 6.97852 194.072 7.05539L194.295 7.63525C194.307 7.66569 194.336 7.68576 194.369 7.68576V7.68576C194.396 7.68576 194.421 7.67192 194.436 7.64944C194.532 7.50487 194.643 7.37261 194.77 7.25266C194.914 7.12273 195.087 7.01806 195.289 6.93866C195.491 6.85926 195.73 6.81955 196.004 6.81955ZM195.224 8.44369C195.022 8.44369 194.863 8.49422 194.748 8.59528C194.633 8.68912 194.549 8.82987 194.499 9.01755C194.448 9.20523 194.42 9.44344 194.412 9.73217V9.89459C194.412 10.2122 194.434 10.4793 194.477 10.6958C194.528 10.9124 194.614 11.0784 194.737 11.1939C194.86 11.3022 195.026 11.3563 195.235 11.3563C195.408 11.3563 195.553 11.3094 195.668 11.2155C195.791 11.1145 195.881 10.9557 195.939 10.7391C195.997 10.5226 196.026 10.2375 196.026 9.88376C196.026 9.35682 195.957 8.98507 195.82 8.76852C195.683 8.55197 195.484 8.44369 195.224 8.44369Z" fill="white"/>
<path d="M201.37 5.8559C201.37 6.29622 201.359 6.66797 201.337 6.97114C201.319 7.23561 201.302 7.44515 201.289 7.59975C201.286 7.63433 201.313 7.66411 201.348 7.66411V7.66411C201.368 7.66411 201.387 7.65351 201.398 7.63631C201.524 7.44002 201.662 7.28327 201.814 7.16604C201.98 7.04332 202.164 6.9567 202.366 6.90618C202.568 6.84843 202.788 6.81955 203.027 6.81955C203.424 6.81955 203.781 6.89535 204.098 7.04693C204.416 7.19852 204.669 7.43673 204.856 7.76155C205.051 8.07916 205.149 8.49783 205.149 9.01755V12.7162C205.149 12.8263 205.06 12.9155 204.949 12.9155H203.269C203.159 12.9155 203.07 12.8263 203.07 12.7162V9.64555C203.07 9.24854 203.012 8.94898 202.897 8.74686C202.781 8.54475 202.601 8.44369 202.355 8.44369C202.11 8.44369 201.915 8.51587 201.771 8.66024C201.626 8.80461 201.521 9.01394 201.457 9.28824C201.399 9.55532 201.37 9.88737 201.37 10.2844V12.7162C201.37 12.8263 201.281 12.9155 201.171 12.9155H199.501C199.391 12.9155 199.302 12.8263 199.302 12.7162V4.88579C199.302 4.77574 199.391 4.68652 199.501 4.68652H201.171C201.281 4.68652 201.37 4.77574 201.37 4.88579V5.8559Z" fill="white"/>
<path d="M209.479 6.81955C210.237 6.81955 210.829 7.00723 211.255 7.38259C211.681 7.75794 211.893 8.2921 211.893 8.98507V12.7162C211.893 12.8263 211.804 12.9155 211.694 12.9155H210.587C210.512 12.9155 210.443 12.8733 210.409 12.8063L210.075 12.1467C210.068 12.1334 210.054 12.1251 210.039 12.1251V12.1251C210.027 12.1251 210.016 12.1306 210.008 12.14C209.846 12.3426 209.677 12.5109 209.501 12.6448C209.327 12.7747 209.125 12.8686 208.894 12.9263C208.663 12.9913 208.382 13.0238 208.05 13.0238C207.703 13.0238 207.393 12.9552 207.118 12.818C206.844 12.6737 206.628 12.4607 206.469 12.1792C206.31 11.8905 206.231 11.5259 206.231 11.0856C206.231 10.4432 206.451 9.96677 206.891 9.65638C207.339 9.34599 207.985 9.17275 208.829 9.13666L209.739 9.107C209.787 9.10542 209.825 9.06584 209.825 9.01755V9.01755C209.825 8.75047 209.76 8.56279 209.63 8.45452C209.501 8.33902 209.324 8.28128 209.1 8.28128C208.862 8.28128 208.598 8.32459 208.31 8.41121C208.081 8.47412 207.85 8.55289 207.616 8.64751C207.514 8.68894 207.397 8.64321 207.353 8.5422L206.911 7.53144C206.87 7.43544 206.909 7.32288 207.004 7.2791C207.307 7.13954 207.642 7.03328 208.006 6.96031C208.447 6.86647 208.938 6.81955 209.479 6.81955ZM209.36 10.2627C208.984 10.2772 208.717 10.3457 208.559 10.4684C208.407 10.5839 208.331 10.75 208.331 10.9665C208.331 11.1686 208.385 11.3202 208.494 11.4213C208.602 11.5151 208.746 11.562 208.927 11.562C209.179 11.562 209.392 11.4826 209.566 11.3238C209.746 11.165 209.836 10.9593 209.836 10.7067V10.4496C209.836 10.336 209.741 10.2454 209.628 10.2505L209.36 10.2627Z" fill="white"/>
</svg>
