<svg width="247" height="41" viewBox="0 0 247 41" fill="none" xmlns="http://www.w3.org/2000/svg">
<path d="M62.2394 13.6523V19.8877C62.2394 20.0718 62.3125 20.2483 62.4426 20.3784C62.5728 20.5086 62.7493 20.5817 62.9334 20.5817H68.9347C69.0255 20.5814 69.1154 20.5631 69.1991 20.5281C69.2829 20.493 69.3589 20.4418 69.4228 20.3774C69.4868 20.3129 69.5374 20.2365 69.5718 20.1525C69.6062 20.0685 69.6238 19.9785 69.6234 19.8877V13.655C69.623 13.5637 69.6408 13.4733 69.6755 13.3889C69.7103 13.3046 69.7614 13.2279 69.8259 13.1634C69.8904 13.0989 69.967 13.0478 70.0514 13.013C70.1358 12.9783 70.2262 12.9606 70.3174 12.9609H73.4109C73.5019 12.9609 73.592 12.9789 73.6761 13.0138C73.7601 13.0487 73.8365 13.0999 73.9007 13.1644C73.9649 13.2289 74.0158 13.3054 74.0504 13.3896C74.085 13.4738 74.1026 13.564 74.1023 13.655V32.0788C74.1026 32.1698 74.085 32.26 74.0504 32.3442C74.0158 32.4284 73.9649 32.5049 73.9007 32.5694C73.8365 32.6339 73.7601 32.685 73.6761 32.7199C73.592 32.7548 73.5019 32.7728 73.4109 32.7728H70.3174C70.2262 32.7731 70.1358 32.7554 70.0514 32.7207C69.967 32.6859 69.8904 32.6348 69.8259 32.5703C69.7614 32.5058 69.7103 32.4291 69.6755 32.3448C69.6408 32.2604 69.623 32.17 69.6234 32.0788V25.1735C69.6234 24.9902 69.5506 24.8144 69.4209 24.6847C69.2913 24.5551 69.1154 24.4822 68.9321 24.4822H62.9307C62.7471 24.4822 62.571 24.5549 62.4409 24.6845C62.3108 24.8141 62.2374 24.9899 62.2367 25.1735V32.0788C62.237 32.1698 62.2194 32.26 62.1848 32.3442C62.1502 32.4284 62.0993 32.5049 62.0351 32.5694C61.9709 32.6339 61.8946 32.685 61.8105 32.7199C61.7265 32.7548 61.6363 32.7728 61.5453 32.7728H58.4518C58.3606 32.7731 58.2702 32.7554 58.1858 32.7207C58.1015 32.6859 58.0248 32.6348 57.9603 32.5703C57.8958 32.5058 57.8447 32.4291 57.8099 32.3448C57.7752 32.2604 57.7575 32.17 57.7578 32.0788V13.655C57.7575 13.5637 57.7752 13.4733 57.8099 13.3889C57.8447 13.3046 57.8958 13.2279 57.9603 13.1634C58.0248 13.0989 58.1015 13.0478 58.1858 13.013C58.2702 12.9783 58.3606 12.9606 58.4518 12.9609H61.5534C61.7358 12.9624 61.9103 13.0358 62.0388 13.1653C62.1673 13.2948 62.2394 13.4699 62.2394 13.6523V13.6523Z" fill="white"/>
<path d="M83.675 28.1876L82.556 32.2575C82.5155 32.4035 82.4283 32.5321 82.3079 32.6239C82.1874 32.7157 82.0403 32.7656 81.8888 32.7659H78.72C78.6116 32.7661 78.5047 32.7409 78.4079 32.6922C78.3111 32.6434 78.227 32.5726 78.1626 32.4854C78.0982 32.3982 78.0552 32.2971 78.0371 32.1902C78.019 32.0833 78.0262 31.9737 78.0583 31.8702L83.6804 13.4437C83.7236 13.3019 83.8113 13.1778 83.9304 13.0897C84.0496 13.0015 84.1939 12.954 84.3421 12.9541H89.1841C89.332 12.9538 89.476 13.001 89.5951 13.0886C89.7143 13.1762 89.8021 13.2998 89.8459 13.441L95.5836 31.8675C95.6156 31.9712 95.6228 32.0809 95.6047 32.1879C95.5865 32.2949 95.5435 32.3961 95.4792 32.4835C95.4148 32.5709 95.3309 32.6419 95.2341 32.691C95.1373 32.74 95.0304 32.7657 94.9219 32.7659H91.5513C91.4024 32.7657 91.2576 32.7174 91.1383 32.6282C91.0191 32.539 90.9319 32.4138 90.8896 32.271L89.6602 28.1714C89.6178 28.029 89.5305 27.904 89.4112 27.8153C89.292 27.7266 89.1472 27.6788 88.9985 27.6792H84.3448C84.1927 27.678 84.0445 27.7273 83.9233 27.8192C83.8021 27.9112 83.7148 28.0408 83.675 28.1876ZM87.9225 24.3409C88.0299 24.341 88.1359 24.3161 88.232 24.2681C88.3281 24.2202 88.4116 24.1505 88.4761 24.0646C88.5406 23.9787 88.5842 23.879 88.6034 23.7733C88.6227 23.6677 88.617 23.559 88.5869 23.4559L87.6131 20.131C87.2715 18.9608 86.9218 17.476 86.6179 16.3166H86.556C86.2655 17.4814 85.9669 18.9851 85.6495 20.1364L84.7106 23.4613C84.6815 23.5642 84.6767 23.6726 84.6965 23.7777C84.7163 23.8829 84.7603 23.982 84.825 24.0673C84.8897 24.1526 84.9732 24.2217 85.0692 24.2692C85.1651 24.3166 85.2707 24.3412 85.3778 24.3409H87.9225Z" fill="white"/>
<path d="M116.685 25.1882C116.594 22.786 116.502 19.9319 116.513 17.0267H116.432C115.8 19.5634 114.969 22.3799 114.224 24.7175L111.948 31.9562C111.904 32.0965 111.816 32.2192 111.698 32.3063C111.579 32.3933 111.436 32.4403 111.289 32.4404H108.841C108.69 32.4402 108.543 32.3908 108.423 32.2995C108.302 32.2082 108.215 32.0802 108.174 31.9347L106.181 24.7847C105.543 22.4525 104.884 19.6387 104.395 17.0267H104.333C104.233 19.7167 104.123 22.7807 104.005 25.2474L103.666 32.1069C103.657 32.2846 103.581 32.4523 103.452 32.575C103.323 32.6977 103.152 32.7661 102.974 32.7659H100.228C100.133 32.7657 100.04 32.7462 99.9528 32.7085C99.8659 32.6708 99.7878 32.6157 99.723 32.5467C99.6583 32.4777 99.6083 32.3961 99.5762 32.3071C99.5442 32.218 99.5306 32.1233 99.5365 32.0289L100.717 13.6024C100.728 13.4266 100.806 13.2616 100.935 13.1411C101.063 13.0207 101.233 12.9538 101.409 12.9541H106.21C106.36 12.9544 106.505 13.0029 106.625 13.0926C106.745 13.1823 106.832 13.3083 106.875 13.4518L108.661 19.5769C109.288 21.8473 109.898 24.3355 110.342 26.6596H110.436C110.974 24.3651 111.65 21.7531 112.319 19.5473L114.27 13.4356C114.315 13.296 114.402 13.1743 114.521 13.0877C114.639 13.0012 114.782 12.9544 114.929 12.9541H119.625C119.803 12.9539 119.974 13.0219 120.102 13.1441C120.231 13.2663 120.308 13.4332 120.317 13.6104L121.307 32.0369C121.311 32.1307 121.297 32.2245 121.264 32.3126C121.232 32.4007 121.182 32.4814 121.117 32.5495C121.052 32.6177 120.975 32.672 120.888 32.7092C120.802 32.7464 120.709 32.7657 120.615 32.7659H117.656C117.478 32.7661 117.306 32.6969 117.177 32.573C117.048 32.4491 116.972 32.2801 116.965 32.1015L116.685 25.1882Z" fill="white"/>
<path d="M125.832 28.9609C125.856 28.8632 125.901 28.772 125.964 28.6936C126.027 28.6153 126.106 28.5516 126.196 28.507C126.287 28.4624 126.385 28.4381 126.486 28.4356C126.586 28.4332 126.686 28.4527 126.779 28.4928C128.115 29.0626 129.549 29.3651 131.002 29.3832C133.057 29.3832 134.149 28.5278 134.149 27.2312C134.149 26.0126 133.202 25.2971 130.832 24.4605C127.526 23.2877 125.366 21.488 125.366 18.5936C125.366 15.215 128.202 12.6487 132.861 12.6487C134.387 12.6196 135.905 12.8731 137.34 13.3965C137.5 13.4589 137.632 13.5788 137.71 13.7328C137.787 13.8869 137.805 14.0641 137.759 14.2304L137.14 16.4712C137.116 16.5641 137.072 16.6507 137.012 16.7255C136.951 16.8003 136.876 16.8616 136.791 16.9055C136.705 16.9494 136.612 16.9748 136.516 16.9802C136.42 16.9855 136.324 16.9707 136.234 16.9366C135.137 16.511 133.97 16.2938 132.793 16.2963C130.843 16.2963 129.912 17.2002 129.912 18.2116C129.912 19.4706 131.01 20.0273 133.579 20.9957C137.076 22.3085 138.711 24.1296 138.711 26.9299C138.711 30.2359 136.177 33.0766 130.725 33.0766C128.986 33.0757 127.264 32.7443 125.649 32.1001C125.499 32.0338 125.377 31.9161 125.306 31.7681C125.235 31.6201 125.219 31.4517 125.261 31.2931L125.832 28.9609Z" fill="white"/>
<path d="M147.287 16.7147H143.327C143.236 16.7151 143.146 16.6975 143.061 16.6629C142.977 16.6283 142.901 16.5774 142.836 16.5132C142.772 16.4489 142.721 16.3726 142.686 16.2886C142.651 16.2045 142.633 16.1144 142.633 16.0234V13.6481C142.632 13.5569 142.65 13.4665 142.685 13.3821C142.72 13.2977 142.771 13.2211 142.835 13.1566C142.9 13.0921 142.976 13.0409 143.061 13.0062C143.145 12.9714 143.236 12.9538 143.327 12.9541H157.188C157.279 12.9541 157.37 12.9721 157.454 13.007C157.538 13.0419 157.614 13.0931 157.678 13.1576C157.742 13.222 157.793 13.2986 157.828 13.3828C157.862 13.4669 157.88 13.5571 157.88 13.6481V16.0234C157.88 16.2067 157.807 16.3826 157.677 16.5122C157.548 16.6419 157.372 16.7147 157.188 16.7147H153.153C153.062 16.7147 152.972 16.7327 152.888 16.7676C152.804 16.8025 152.728 16.8537 152.664 16.9182C152.599 16.9827 152.549 17.0592 152.514 17.1434C152.479 17.2276 152.462 17.3177 152.462 17.4088V32.072C152.462 32.163 152.445 32.2532 152.41 32.3373C152.376 32.4215 152.325 32.4981 152.261 32.5625C152.196 32.627 152.12 32.6781 152.036 32.7131C151.952 32.748 151.862 32.7659 151.771 32.7659H148.672C148.581 32.7659 148.491 32.748 148.407 32.7131C148.323 32.6781 148.246 32.627 148.182 32.5625C148.118 32.4981 148.067 32.4215 148.032 32.3373C147.998 32.2532 147.98 32.163 147.981 32.072V17.4088C147.981 17.3176 147.963 17.2274 147.928 17.1432C147.893 17.059 147.842 16.9824 147.777 16.918C147.713 16.8535 147.636 16.8025 147.552 16.7676C147.468 16.7327 147.378 16.7147 147.287 16.7147Z" fill="white"/>
<path d="M172.885 24.3839H166.967C166.783 24.3846 166.608 24.4581 166.478 24.5881C166.348 24.7182 166.276 24.8943 166.276 25.0779V28.4027C166.275 28.4938 166.293 28.5839 166.328 28.6681C166.362 28.7523 166.413 28.8288 166.477 28.8933C166.541 28.9578 166.618 29.009 166.702 29.0439C166.786 29.0788 166.876 29.0968 166.967 29.0968H173.732C173.916 29.0968 174.092 29.1696 174.221 29.2993C174.351 29.4289 174.424 29.6048 174.424 29.7881V32.0719C174.424 32.163 174.406 32.2531 174.372 32.3373C174.337 32.4215 174.286 32.498 174.222 32.5625C174.158 32.627 174.082 32.6781 173.998 32.713C173.914 32.748 173.823 32.7659 173.732 32.7659H162.488C162.397 32.7659 162.307 32.748 162.223 32.713C162.139 32.6781 162.063 32.627 161.998 32.5625C161.934 32.498 161.883 32.4215 161.849 32.3373C161.814 32.2531 161.797 32.163 161.797 32.0719V13.6481C161.797 13.5571 161.814 13.4669 161.849 13.3828C161.883 13.2986 161.934 13.222 161.998 13.1576C162.063 13.0931 162.139 13.0419 162.223 13.007C162.307 12.9721 162.397 12.9541 162.488 12.9541H173.307C173.491 12.9541 173.668 13.0272 173.798 13.1574C173.928 13.2875 174.001 13.4641 174.001 13.6481V15.9319C174.001 16.1155 173.927 16.2914 173.797 16.421C173.667 16.5505 173.491 16.6232 173.307 16.6232H166.967C166.876 16.6232 166.786 16.6413 166.702 16.6762C166.618 16.7111 166.541 16.7622 166.477 16.8267C166.413 16.8912 166.362 16.9677 166.328 17.0519C166.293 17.1361 166.275 17.2263 166.276 17.3173V20.0584C166.276 20.2417 166.349 20.4176 166.478 20.5472C166.608 20.6769 166.784 20.7497 166.967 20.7497H172.885C173.069 20.7504 173.245 20.8238 173.375 20.9538C173.505 21.0838 173.578 21.2599 173.579 21.4438V23.6926C173.578 23.8762 173.505 24.052 173.375 24.1816C173.245 24.3111 173.069 24.3839 172.885 24.3839V24.3839Z" fill="white"/>
<path d="M178.414 13.8198C178.415 13.6519 178.476 13.4899 178.587 13.3638C178.697 13.2377 178.85 13.1559 179.017 13.1338C180.791 12.9032 182.578 12.7918 184.367 12.8003C187.305 12.8003 189.362 13.2495 190.777 14.3685C191.961 15.31 192.612 16.7008 192.612 18.5219C192.612 21.0317 190.818 22.7802 189.115 23.3908V23.4849C190.489 24.0391 191.267 25.3518 191.762 27.173C192.219 28.8488 192.668 30.7157 193.029 31.8697C193.061 31.9732 193.068 32.0828 193.05 32.1897C193.032 32.2966 192.989 32.3977 192.924 32.4849C192.86 32.5721 192.776 32.6429 192.679 32.6917C192.582 32.7404 192.475 32.7656 192.367 32.7654H189.225C189.088 32.7675 188.953 32.7277 188.838 32.6513C188.724 32.5749 188.636 32.4656 188.585 32.3377C188.104 30.9676 187.712 29.5677 187.412 28.1467C186.874 25.6719 186.027 25.0102 184.184 24.986H183.544C183.36 24.9867 183.184 25.0601 183.055 25.1902C182.925 25.3203 182.853 25.4964 182.853 25.68V32.0714C182.853 32.1627 182.835 32.2531 182.8 32.3374C182.766 32.4218 182.715 32.4984 182.65 32.5629C182.586 32.6275 182.509 32.6786 182.425 32.7133C182.34 32.7481 182.25 32.7658 182.159 32.7654H179.105C179.014 32.7654 178.924 32.7475 178.84 32.7125C178.756 32.6776 178.68 32.6265 178.616 32.562C178.551 32.4975 178.501 32.421 178.466 32.3368C178.431 32.2526 178.414 32.1625 178.414 32.0714V13.8198ZM182.853 21.0532C182.853 21.2366 182.925 21.4124 183.055 21.542C183.185 21.6717 183.361 21.7445 183.544 21.7445H184.62C186.842 21.7445 188.171 20.612 188.171 18.8904C188.171 17.0774 186.928 16.1493 184.881 16.1386C184.294 16.1386 183.84 16.1601 183.498 16.1924C183.325 16.2066 183.164 16.2853 183.047 16.413C182.93 16.5406 182.865 16.7078 182.866 16.881L182.853 21.0532Z" fill="white"/>
<path d="M18.8844 7.90401C18.1546 8.08922 17.3917 7.80449 16.8516 7.27965C15.6899 6.15044 14.1043 5.45508 12.3562 5.45508C8.79395 5.45508 5.90609 8.34293 5.90609 11.9053C5.90609 12.2928 5.94031 12.6724 6.00585 13.0412C6.09213 13.5266 5.92518 14.0339 5.53773 14.3388C2.16556 16.9925 0 21.1107 0 25.7348C0 33.7391 6.48878 40.2279 14.4931 40.2279C18.6324 40.2279 22.3665 38.4926 25.0074 35.7098C27.6484 38.4926 31.3823 40.2279 35.5217 40.2279C43.5261 40.2279 50.0149 33.7391 50.0149 25.7348C50.0149 21.4937 48.1932 17.678 45.2896 15.0276C44.9154 14.6861 44.7895 14.1495 44.9272 13.6619C45.085 13.1034 45.1694 12.5142 45.1694 11.9053C45.1694 8.34293 42.2815 5.45508 38.7191 5.45508C37.0594 5.45508 35.5461 6.08201 34.403 7.11185C33.8899 7.57423 33.1967 7.82632 32.5217 7.68006C30.5217 7.24665 28.3907 7.01278 26.1793 7.01278C23.6131 7.01278 21.1552 7.32779 18.8844 7.90401Z" fill="#A05E1C"/>
<path d="M5.93938 13.7861C5.8586 14.0007 5.72351 14.1934 5.53773 14.3396C2.16556 16.9933 0 21.1115 0 25.7356C0 33.7399 6.48878 40.2287 14.4931 40.2287C18.6324 40.2287 22.3665 38.4934 25.0074 35.7106C27.6484 38.4934 31.3823 40.2287 35.5217 40.2287C43.5261 40.2287 50.0149 33.7399 50.0149 25.7356C50.0149 21.4945 48.1932 17.6788 45.2896 15.0284C45.0077 14.7711 44.8667 14.4031 44.8732 14.0287L44.7982 14.2435C44.7982 14.2435 36.2514 13.0238 31.4535 17.8315C24.6879 24.6109 24.6879 32.5321 24.6879 32.5321C24.6879 32.5321 24.6879 24.0241 18.1536 17.8315C12.7848 12.7435 5.96813 13.8197 5.96813 13.8197L5.93938 13.7861Z" fill="#E9C89C"/>
<path d="M23.7733 35.7956C24.3442 36.4614 25.3742 36.4614 25.9451 35.7956L27.1953 34.3377C27.9909 33.4098 27.3316 31.9761 26.1094 31.9761H23.609C22.3867 31.9761 21.7275 33.4098 22.5231 34.3377L23.7733 35.7956Z" fill="black"/>
<path d="M35.2611 25.5155C36.3135 24.9847 36.856 23.3721 36.473 21.9137C36.09 20.4553 34.9264 19.7034 33.8741 20.2342C32.8218 20.765 32.2792 22.3776 32.6623 23.8359C33.0453 25.2943 34.2088 26.0463 35.2611 25.5155Z" fill="black"/>
<path d="M34.1949 22.3287C34.5881 22.1856 34.7908 21.7509 34.6477 21.3577C34.5046 20.9646 34.0699 20.7619 33.6767 20.905C33.2836 21.0481 33.0808 21.4828 33.2239 21.8759C33.367 22.2691 33.8018 22.4718 34.1949 22.3287Z" fill="white"/>
<path d="M14.8052 25.5233C13.7529 24.9925 13.2103 23.3799 13.5933 21.9215C13.9763 20.4631 15.1399 19.7112 16.1922 20.242C17.2446 20.7728 17.7872 22.3854 17.4041 23.8438C17.0211 25.3022 15.8575 26.0542 14.8052 25.5233Z" fill="black"/>
<path d="M15.8715 22.3365C15.4783 22.1934 15.2756 21.7587 15.4187 21.3655C15.5618 20.9724 15.9965 20.7697 16.3897 20.9128C16.7828 21.0559 16.9856 21.4906 16.8425 21.8838C16.6994 22.2769 16.2646 22.4796 15.8715 22.3365Z" fill="white"/>
<path fill-rule="evenodd" clip-rule="evenodd" d="M28.0945 32.483C27.2308 33.0432 26.5624 33.7221 26.2119 34.1752L26.1523 34.1291C26.5077 33.6697 27.1823 32.9849 28.0535 32.4198C28.9246 31.8548 29.9952 31.4076 31.1417 31.4284L31.1404 31.5037C30.014 31.4832 28.9582 31.9228 28.0945 32.483Z" fill="black"/>
<path fill-rule="evenodd" clip-rule="evenodd" d="M28.8719 33.4579C27.8569 33.6295 26.974 33.9875 26.4724 34.2644L26.4361 34.1984C26.9446 33.9177 27.8355 33.5568 28.8593 33.3837C29.8831 33.2106 31.0433 33.2249 32.0875 33.6989L32.0563 33.7674C31.0305 33.3018 29.887 33.2863 28.8719 33.4579Z" fill="black"/>
<path fill-rule="evenodd" clip-rule="evenodd" d="M28.7736 34.6745C27.7535 34.5365 26.8041 34.6159 26.2429 34.7311L26.2278 34.6574C26.7968 34.5405 27.7547 34.4607 28.7837 34.5999C29.8126 34.739 30.9161 35.0975 31.7722 35.8605L31.7221 35.9167C30.8811 35.1671 29.7938 34.8124 28.7736 34.6745Z" fill="black"/>
<path fill-rule="evenodd" clip-rule="evenodd" d="M21.6829 32.483C22.5465 33.0432 23.2149 33.7221 23.5655 34.1752L23.625 34.1291C23.2696 33.6697 22.595 32.9849 21.7239 32.4198C20.8528 31.8548 19.7822 31.4076 18.6356 31.4284L18.637 31.5037C19.7633 31.4832 20.8192 31.9228 21.6829 32.483Z" fill="black"/>
<path fill-rule="evenodd" clip-rule="evenodd" d="M20.8898 33.4579C21.9048 33.6295 22.7877 33.9875 23.2893 34.2644L23.3257 34.1984C22.8171 33.9177 21.9262 33.5568 20.9024 33.3837C19.8786 33.2106 18.7185 33.2249 17.6743 33.6989L17.7054 33.7674C18.7312 33.3018 19.8748 33.2863 20.8898 33.4579Z" fill="black"/>
<path fill-rule="evenodd" clip-rule="evenodd" d="M20.9725 34.6745C21.9926 34.5365 22.942 34.6159 23.5032 34.7311L23.5183 34.6574C22.9493 34.5405 21.9914 34.4607 20.9624 34.5999C19.9335 34.739 18.83 35.0975 17.9739 35.8605L18.024 35.9167C18.865 35.1671 19.9523 34.8124 20.9725 34.6745Z" fill="black"/>
<path fill-rule="evenodd" clip-rule="evenodd" d="M203.945 0.229492H243.268V2.06792H245.11V0.229492H246.953V12.8359C246.953 16.3888 244.073 19.269 240.52 19.269H197.512V17.4264H199.354V19.2688H201.196V17.4263H199.354V15.5838H197.512V6.66265C197.512 3.10972 200.392 0.229492 203.945 0.229492ZM246.952 2.06805H245.11V3.91059H246.952V2.06805Z" fill="white"/>
<path d="M234.793 5.86146C234.793 5.80673 234.837 5.76237 234.892 5.76237H236.686C236.74 5.76237 236.785 5.71801 236.785 5.66328V3.85983C236.785 3.80511 236.829 3.76074 236.884 3.76074H238.37C238.425 3.76074 238.469 3.80511 238.469 3.85983V5.66328C238.469 5.71801 238.514 5.76237 238.568 5.76237H240.372C240.426 5.76237 240.471 5.80673 240.471 5.86146V7.34782C240.471 7.40254 240.426 7.44691 240.372 7.44691H238.568C238.514 7.44691 238.469 7.49127 238.469 7.546V9.33953C238.469 9.39426 238.425 9.43862 238.37 9.43862H236.884C236.829 9.43862 236.785 9.39426 236.785 9.33953V7.546C236.785 7.49127 236.74 7.44691 236.686 7.44691H234.892C234.837 7.44691 234.793 7.40254 234.793 7.34782V5.86146Z" fill="#1D1C1A"/>
<path d="M207.237 7.04905C207.994 7.04905 208.586 7.23672 209.012 7.61208C209.438 7.98744 209.651 8.5216 209.651 9.21456V12.9457C209.651 13.0558 209.562 13.145 209.452 13.145H208.344C208.269 13.145 208.2 13.1028 208.167 13.0358L207.832 12.3762C207.825 12.3629 207.812 12.3546 207.797 12.3546V12.3546C207.785 12.3546 207.774 12.3601 207.766 12.3695C207.604 12.5721 207.434 12.7404 207.258 12.8743C207.085 13.0042 206.883 13.0981 206.652 13.1558C206.421 13.2208 206.139 13.2532 205.807 13.2532C205.461 13.2532 205.15 13.1847 204.876 13.0475C204.602 12.9032 204.385 12.6902 204.226 12.4087C204.068 12.12 203.988 11.7554 203.988 11.3151C203.988 10.6727 204.208 10.1963 204.649 9.88587C205.096 9.57548 205.742 9.40224 206.587 9.36615L207.496 9.33649C207.545 9.33491 207.583 9.29533 207.583 9.24704V9.24704C207.583 8.97996 207.518 8.79229 207.388 8.68401C207.258 8.56852 207.081 8.51077 206.858 8.51077C206.619 8.51077 206.356 8.55408 206.067 8.6407C205.838 8.70361 205.607 8.78238 205.374 8.877C205.272 8.91843 205.154 8.8727 205.11 8.77169L204.669 7.76093C204.627 7.66493 204.667 7.55237 204.762 7.50859C205.065 7.36904 205.399 7.26277 205.764 7.18981C206.204 7.09597 206.695 7.04905 207.237 7.04905ZM207.117 10.4922C206.742 10.5067 206.475 10.5752 206.316 10.6979C206.165 10.8134 206.089 10.9795 206.089 11.196C206.089 11.3981 206.143 11.5497 206.251 11.6508C206.36 11.7446 206.504 11.7915 206.684 11.7915C206.937 11.7915 207.15 11.7121 207.323 11.5533C207.504 11.3945 207.594 11.1888 207.594 10.9361V10.6791C207.594 10.5655 207.499 10.4749 207.386 10.48L207.117 10.4922Z" fill="#1D1C1A"/>
<path d="M213.127 12.9457C213.127 13.0558 213.038 13.145 212.928 13.145H211.258C211.148 13.145 211.059 13.0558 211.059 12.9457V5.11528C211.059 5.00523 211.148 4.91602 211.258 4.91602H212.928C213.038 4.91602 213.127 5.00523 213.127 5.11528V12.9457Z" fill="#1D1C1A"/>
<path d="M218.219 7.04905C218.883 7.04905 219.403 7.31613 219.778 7.85029C220.153 8.37723 220.341 9.13877 220.341 10.1349C220.341 10.8134 220.244 11.3873 220.049 11.8565C219.861 12.3185 219.601 12.6686 219.269 12.9068C218.944 13.1378 218.573 13.2532 218.154 13.2532C217.872 13.2532 217.634 13.2172 217.439 13.145C217.244 13.0728 217.082 12.9862 216.952 12.8851C216.828 12.7819 216.724 12.6787 216.64 12.5755C216.632 12.5659 216.62 12.5603 216.608 12.5603V12.5603C216.583 12.5603 216.564 12.5813 216.567 12.6054C216.58 12.7297 216.593 12.8627 216.606 13.0042C216.62 13.163 216.627 13.3471 216.627 13.5564V15.5443C216.627 15.6544 216.538 15.7436 216.428 15.7436H214.758C214.648 15.7436 214.559 15.6544 214.559 15.5443V7.35659C214.559 7.24654 214.648 7.15732 214.758 7.15732H216.101C216.183 7.15732 216.257 7.20802 216.287 7.28488L216.51 7.86474C216.522 7.89518 216.551 7.91525 216.584 7.91525V7.91525C216.611 7.91525 216.636 7.90141 216.651 7.87893C216.747 7.73437 216.858 7.60211 216.984 7.48215C217.129 7.35222 217.302 7.24755 217.504 7.16815C217.706 7.08875 217.945 7.04905 218.219 7.04905ZM217.439 8.67318C217.237 8.67318 217.078 8.72371 216.963 8.82477C216.847 8.91861 216.764 9.05937 216.714 9.24704C216.663 9.43472 216.634 9.67293 216.627 9.96166V10.1241C216.627 10.4417 216.649 10.7088 216.692 10.9253C216.743 11.1419 216.829 11.3079 216.952 11.4234C217.075 11.5317 217.241 11.5858 217.45 11.5858C217.623 11.5858 217.768 11.5389 217.883 11.445C218.006 11.344 218.096 11.1852 218.154 10.9686C218.212 10.7521 218.24 10.467 218.24 10.1132C218.24 9.58631 218.172 9.21456 218.035 8.99801C217.898 8.78146 217.699 8.67318 217.439 8.67318Z" fill="#1D1C1A"/>
<path d="M223.585 6.08539C223.585 6.52571 223.574 6.89746 223.552 7.20063C223.533 7.4651 223.517 7.67464 223.504 7.82925C223.501 7.86382 223.528 7.8936 223.563 7.8936V7.8936C223.583 7.8936 223.602 7.883 223.613 7.8658C223.738 7.66952 223.877 7.51276 224.029 7.39553C224.195 7.27282 224.379 7.1862 224.581 7.13567C224.783 7.07792 225.003 7.04905 225.241 7.04905C225.638 7.04905 225.996 7.12484 226.313 7.27643C226.631 7.42801 226.884 7.66622 227.071 7.99105C227.266 8.30865 227.364 8.72732 227.364 9.24704V12.9457C227.364 13.0558 227.274 13.145 227.164 13.145H225.484C225.374 13.145 225.285 13.0558 225.285 12.9457V9.87504C225.285 9.47803 225.227 9.17847 225.111 8.97635C224.996 8.77424 224.815 8.67318 224.57 8.67318C224.325 8.67318 224.13 8.74537 223.985 8.88973C223.841 9.0341 223.736 9.24344 223.671 9.51773C223.614 9.78481 223.585 10.1169 223.585 10.5139V12.9457C223.585 13.0558 223.496 13.145 223.385 13.145H221.716C221.606 13.145 221.517 13.0558 221.517 12.9457V5.11528C221.517 5.00523 221.606 4.91602 221.716 4.91602H223.385C223.496 4.91602 223.585 5.00523 223.585 5.11528V6.08539Z" fill="#1D1C1A"/>
<path d="M231.694 7.04905C232.452 7.04905 233.044 7.23672 233.469 7.61208C233.895 7.98744 234.108 8.5216 234.108 9.21456V12.9457C234.108 13.0558 234.019 13.145 233.909 13.145H232.801C232.726 13.145 232.658 13.1028 232.624 13.0358L232.289 12.3762C232.283 12.3629 232.269 12.3546 232.254 12.3546V12.3546C232.242 12.3546 232.231 12.3601 232.223 12.3695C232.061 12.5721 231.892 12.7404 231.715 12.8743C231.542 13.0042 231.34 13.0981 231.109 13.1558C230.878 13.2208 230.597 13.2532 230.265 13.2532C229.918 13.2532 229.608 13.1847 229.333 13.0475C229.059 12.9032 228.842 12.6902 228.684 12.4087C228.525 12.12 228.445 11.7554 228.445 11.3151C228.445 10.6727 228.666 10.1963 229.106 9.88587C229.554 9.57548 230.2 9.40224 231.044 9.36615L231.954 9.33649C232.002 9.33491 232.04 9.29533 232.04 9.24704V9.24704C232.04 8.97996 231.975 8.79229 231.845 8.68401C231.715 8.56852 231.539 8.51077 231.315 8.51077C231.077 8.51077 230.813 8.55408 230.524 8.6407C230.296 8.70361 230.065 8.78238 229.831 8.877C229.729 8.91843 229.612 8.8727 229.567 8.77169L229.126 7.76093C229.084 7.66493 229.124 7.55237 229.219 7.50859C229.522 7.36904 229.856 7.26277 230.221 7.18981C230.662 7.09597 231.152 7.04905 231.694 7.04905ZM231.575 10.4922C231.199 10.5067 230.932 10.5752 230.773 10.6979C230.622 10.8134 230.546 10.9795 230.546 11.196C230.546 11.3981 230.6 11.5497 230.708 11.6508C230.817 11.7446 230.961 11.7915 231.142 11.7915C231.394 11.7915 231.607 11.7121 231.78 11.5533C231.961 11.3945 232.051 11.1888 232.051 10.9361V10.6791C232.051 10.5655 231.956 10.4749 231.843 10.48L231.575 10.4922Z" fill="#1D1C1A"/>
</svg>
