<svg width="32" height="33" viewBox="0 0 32 33" fill="none" xmlns="http://www.w3.org/2000/svg">
<path d="M14.8077 6.96875L15.4976 7.50953C18.4043 9.78819 22.3528 10.2182 25.6819 8.6187C25.6819 15.3335 22.7715 21.7186 17.7033 26.1232L14.8077 28.6397L11.9122 26.1232C6.84394 21.7186 3.93359 15.3335 3.93359 8.6187C7.26266 10.2182 11.2112 9.78818 14.1179 7.50953L14.8077 6.96875Z" fill="#FBE5C3"/>
<path d="M17.1906 4.67188L17.8804 5.21265C20.7871 7.49131 24.7357 7.92135 28.0647 6.32182C28.0647 13.0366 25.1544 19.4217 20.0861 23.8264L17.1906 26.3428L14.295 23.8264C9.22676 19.4217 6.31641 13.0366 6.31641 6.32182C9.64547 7.92135 13.594 7.49131 16.5007 5.21265L17.1906 4.67188Z" fill="#E2B578"/>
<path d="M12.1211 11.457H15.3929" stroke="#65533D" stroke-width="2" stroke-linecap="square"/>
<path d="M12.1211 15.5078H18.1543" stroke="#65533D" stroke-width="2" stroke-linecap="square"/>
</svg>
