<svg width="16" height="16" viewBox="0 0 16 16" fill="none" xmlns="http://www.w3.org/2000/svg">
<path d="M6.22838 4.94044C6.22838 3.76017 5.2342 2.80253 4.00634 2.80253C2.78017 2.80339 1.78516 3.76017 1.78516 4.94044C1.78516 5.51486 2.02138 6.03659 2.40461 6.42152C2.30011 6.84298 2.24572 7.28144 2.24572 7.73348C2.24572 9.76605 3.35802 11.5496 5.02858 12.5489L5.47298 10.7934C4.56547 10.0609 3.98766 8.96305 3.98766 7.73436C3.98766 7.51089 4.00636 7.29166 4.04373 7.07922C5.25459 7.05881 6.22838 6.10966 6.22838 4.94044ZM8.13431 3.74658C8.90247 3.74658 9.62049 3.94711 10.2383 4.29805C10.1405 4.53852 10.0887 4.79938 10.0887 5.07214C10.0887 6.25327 11.0829 7.21006 12.309 7.21006C13.5352 7.21006 14.5311 6.25241 14.5311 5.07214C14.5311 3.89188 13.5352 2.93422 12.309 2.93422C12.0218 2.93422 11.7465 2.98691 11.4958 3.08208C10.5416 2.44308 9.38513 2.06836 8.13431 2.06836C7.288 2.06836 6.4833 2.24086 5.75594 2.55016L6.77136 3.96666C7.19791 3.82389 7.65677 3.74658 8.13431 3.74658ZM12.2742 7.91278C12.2079 9.36581 11.3318 10.6175 10.07 11.2607C9.70292 10.5682 8.95431 10.0941 8.091 10.0941C6.86314 10.0941 5.86895 11.0517 5.86895 12.232C5.86895 13.4122 6.86314 14.3707 8.091 14.3707C9.01125 14.3707 9.8032 13.8312 10.138 13.063C12.4034 12.2736 14.0212 10.185 14.0212 7.73436C14.0212 7.60859 14.0162 7.48455 14.0076 7.36133L12.2742 7.91278ZM6.22838 4.94044C6.22838 3.76017 5.2342 2.80253 4.00634 2.80253C2.78017 2.80339 1.78516 3.76017 1.78516 4.94044C1.78516 5.51486 2.02138 6.03659 2.40461 6.42152C2.30011 6.84298 2.24572 7.28144 2.24572 7.73348C2.24572 9.76605 3.35802 11.5496 5.02858 12.5489L5.47298 10.7934C4.56547 10.0609 3.98766 8.96305 3.98766 7.73436C3.98766 7.51089 4.00636 7.29166 4.04373 7.07922C5.25459 7.05881 6.22838 6.10966 6.22838 4.94044ZM8.13431 3.74658C8.90247 3.74658 9.62049 3.94711 10.2383 4.29805C10.1405 4.53852 10.0887 4.79938 10.0887 5.07214C10.0887 6.25327 11.0829 7.21006 12.309 7.21006C13.5352 7.21006 14.5311 6.25241 14.5311 5.07214C14.5311 3.89188 13.5352 2.93422 12.309 2.93422C12.0218 2.93422 11.7465 2.98691 11.4958 3.08208C10.5416 2.44308 9.38513 2.06836 8.13431 2.06836C7.288 2.06836 6.4833 2.24086 5.75594 2.55016L6.77136 3.96666C7.19791 3.82389 7.65677 3.74658 8.13431 3.74658ZM12.2742 7.91278C12.2079 9.36581 11.3318 10.6175 10.07 11.2607C9.70292 10.5682 8.95431 10.0941 8.091 10.0941C6.86314 10.0941 5.86895 11.0517 5.86895 12.232C5.86895 13.4122 6.86314 14.3707 8.091 14.3707C9.01125 14.3707 9.8032 13.8312 10.138 13.063C12.4034 12.2736 14.0212 10.185 14.0212 7.73436C14.0212 7.60859 14.0162 7.48455 14.0076 7.36133L12.2742 7.91278ZM6.22838 4.94044C6.22838 3.76017 5.2342 2.80253 4.00634 2.80253C2.78017 2.80339 1.78516 3.76017 1.78516 4.94044C1.78516 5.51486 2.02138 6.03659 2.40461 6.42152C2.30011 6.84298 2.24572 7.28144 2.24572 7.73348C2.24572 9.76605 3.35802 11.5496 5.02858 12.5489L5.47298 10.7934C4.56547 10.0609 3.98766 8.96305 3.98766 7.73436C3.98766 7.51089 4.00636 7.29166 4.04373 7.07922C5.25459 7.05881 6.22838 6.10966 6.22838 4.94044ZM8.13431 3.74658C8.90247 3.74658 9.62049 3.94711 10.2383 4.29805C10.1405 4.53852 10.0887 4.79938 10.0887 5.07214C10.0887 6.25327 11.0829 7.21006 12.309 7.21006C13.5352 7.21006 14.5311 6.25241 14.5311 5.07214C14.5311 3.89188 13.5352 2.93422 12.309 2.93422C12.0218 2.93422 11.7465 2.98691 11.4958 3.08208C10.5416 2.44308 9.38513 2.06836 8.13431 2.06836C7.288 2.06836 6.4833 2.24086 5.75594 2.55016L6.77136 3.96666C7.19791 3.82389 7.65677 3.74658 8.13431 3.74658ZM12.2742 7.91278C12.2079 9.36581 11.3318 10.6175 10.07 11.2607C9.70292 10.5682 8.95431 10.0941 8.091 10.0941C6.86314 10.0941 5.86895 11.0517 5.86895 12.232C5.86895 13.4122 6.86314 14.3707 8.091 14.3707C9.01125 14.3707 9.8032 13.8312 10.138 13.063C12.4034 12.2736 14.0212 10.185 14.0212 7.73436C14.0212 7.60859 14.0162 7.48455 14.0076 7.36133L12.2742 7.91278Z" fill="white"/>
</svg>
