<svg width="17" height="16" viewBox="0 0 17 16" fill="none" xmlns="http://www.w3.org/2000/svg">
<path d="M6.72838 4.94044C6.72838 3.76017 5.7342 2.80253 4.50634 2.80253C3.28017 2.80339 2.28516 3.76017 2.28516 4.94044C2.28516 5.51486 2.52138 6.03659 2.90461 6.42152C2.80011 6.84298 2.74572 7.28144 2.74572 7.73348C2.74572 9.76605 3.85802 11.5496 5.52858 12.5489L5.97298 10.7934C5.06547 10.0609 4.48766 8.96305 4.48766 7.73436C4.48766 7.51089 4.50636 7.29166 4.54373 7.07922C5.75459 7.05881 6.72838 6.10966 6.72838 4.94044ZM8.63431 3.74658C9.40247 3.74658 10.1205 3.94711 10.7383 4.29805C10.6405 4.53852 10.5887 4.79938 10.5887 5.07214C10.5887 6.25327 11.5829 7.21006 12.809 7.21006C14.0352 7.21006 15.0311 6.25241 15.0311 5.07214C15.0311 3.89188 14.0352 2.93422 12.809 2.93422C12.5218 2.93422 12.2465 2.98691 11.9958 3.08208C11.0416 2.44308 9.88513 2.06836 8.63431 2.06836C7.788 2.06836 6.9833 2.24086 6.25594 2.55016L7.27136 3.96666C7.69791 3.82389 8.15677 3.74658 8.63431 3.74658ZM12.7742 7.91278C12.7079 9.36581 11.8318 10.6175 10.57 11.2607C10.2029 10.5682 9.45431 10.0941 8.591 10.0941C7.36314 10.0941 6.36895 11.0517 6.36895 12.232C6.36895 13.4122 7.36314 14.3707 8.591 14.3707C9.51125 14.3707 10.3032 13.8312 10.638 13.063C12.9034 12.2736 14.5212 10.185 14.5212 7.73436C14.5212 7.60859 14.5162 7.48455 14.5076 7.36133L12.7742 7.91278ZM6.72838 4.94044C6.72838 3.76017 5.7342 2.80253 4.50634 2.80253C3.28017 2.80339 2.28516 3.76017 2.28516 4.94044C2.28516 5.51486 2.52138 6.03659 2.90461 6.42152C2.80011 6.84298 2.74572 7.28144 2.74572 7.73348C2.74572 9.76605 3.85802 11.5496 5.52858 12.5489L5.97298 10.7934C5.06547 10.0609 4.48766 8.96305 4.48766 7.73436C4.48766 7.51089 4.50636 7.29166 4.54373 7.07922C5.75459 7.05881 6.72838 6.10966 6.72838 4.94044ZM8.63431 3.74658C9.40247 3.74658 10.1205 3.94711 10.7383 4.29805C10.6405 4.53852 10.5887 4.79938 10.5887 5.07214C10.5887 6.25327 11.5829 7.21006 12.809 7.21006C14.0352 7.21006 15.0311 6.25241 15.0311 5.07214C15.0311 3.89188 14.0352 2.93422 12.809 2.93422C12.5218 2.93422 12.2465 2.98691 11.9958 3.08208C11.0416 2.44308 9.88513 2.06836 8.63431 2.06836C7.788 2.06836 6.9833 2.24086 6.25594 2.55016L7.27136 3.96666C7.69791 3.82389 8.15677 3.74658 8.63431 3.74658ZM12.7742 7.91278C12.7079 9.36581 11.8318 10.6175 10.57 11.2607C10.2029 10.5682 9.45431 10.0941 8.591 10.0941C7.36314 10.0941 6.36895 11.0517 6.36895 12.232C6.36895 13.4122 7.36314 14.3707 8.591 14.3707C9.51125 14.3707 10.3032 13.8312 10.638 13.063C12.9034 12.2736 14.5212 10.185 14.5212 7.73436C14.5212 7.60859 14.5162 7.48455 14.5076 7.36133L12.7742 7.91278ZM6.72838 4.94044C6.72838 3.76017 5.7342 2.80253 4.50634 2.80253C3.28017 2.80339 2.28516 3.76017 2.28516 4.94044C2.28516 5.51486 2.52138 6.03659 2.90461 6.42152C2.80011 6.84298 2.74572 7.28144 2.74572 7.73348C2.74572 9.76605 3.85802 11.5496 5.52858 12.5489L5.97298 10.7934C5.06547 10.0609 4.48766 8.96305 4.48766 7.73436C4.48766 7.51089 4.50636 7.29166 4.54373 7.07922C5.75459 7.05881 6.72838 6.10966 6.72838 4.94044ZM8.63431 3.74658C9.40247 3.74658 10.1205 3.94711 10.7383 4.29805C10.6405 4.53852 10.5887 4.79938 10.5887 5.07214C10.5887 6.25327 11.5829 7.21006 12.809 7.21006C14.0352 7.21006 15.0311 6.25241 15.0311 5.07214C15.0311 3.89188 14.0352 2.93422 12.809 2.93422C12.5218 2.93422 12.2465 2.98691 11.9958 3.08208C11.0416 2.44308 9.88513 2.06836 8.63431 2.06836C7.788 2.06836 6.9833 2.24086 6.25594 2.55016L7.27136 3.96666C7.69791 3.82389 8.15677 3.74658 8.63431 3.74658ZM12.7742 7.91278C12.7079 9.36581 11.8318 10.6175 10.57 11.2607C10.2029 10.5682 9.45431 10.0941 8.591 10.0941C7.36314 10.0941 6.36895 11.0517 6.36895 12.232C6.36895 13.4122 7.36314 14.3707 8.591 14.3707C9.51125 14.3707 10.3032 13.8312 10.638 13.063C12.9034 12.2736 14.5212 10.185 14.5212 7.73436C14.5212 7.60859 14.5162 7.48455 14.5076 7.36133L12.7742 7.91278Z" fill="#E2B578"/>
</svg>
