<svg width="16" height="17" viewBox="0 0 16 17" fill="none" xmlns="http://www.w3.org/2000/svg">
<path d="M6.22838 5.58106C6.22838 4.4008 5.2342 3.44316 4.00634 3.44316C2.78017 3.44402 1.78516 4.4008 1.78516 5.58106C1.78516 6.15548 2.02138 6.67722 2.40461 7.06214C2.30011 7.48361 2.24572 7.92206 2.24572 8.37411C2.24572 10.4067 3.35802 12.1902 5.02858 13.1895L5.47298 11.434C4.56547 10.7015 3.98766 9.60367 3.98766 8.37498C3.98766 8.15152 4.00636 7.93228 4.04373 7.71984C5.25459 7.69944 6.22838 6.75028 6.22838 5.58106ZM8.13431 4.3872C8.90247 4.3872 9.62049 4.58773 10.2383 4.93867C10.1405 5.17914 10.0887 5.44 10.0887 5.71277C10.0887 6.89389 11.0829 7.85069 12.309 7.85069C13.5352 7.85069 14.5311 6.89303 14.5311 5.71277C14.5311 4.5325 13.5352 3.57484 12.309 3.57484C12.0218 3.57484 11.7465 3.62753 11.4958 3.7227C10.5416 3.0837 9.38513 2.70898 8.13431 2.70898C7.288 2.70898 6.4833 2.88148 5.75594 3.19078L6.77136 4.60728C7.19791 4.46452 7.65677 4.3872 8.13431 4.3872ZM12.2742 8.55341C12.2079 10.0064 11.3318 11.2581 10.07 11.9013C9.70292 11.2088 8.95431 10.7347 8.091 10.7347C6.86314 10.7347 5.86895 11.6923 5.86895 12.8726C5.86895 14.0529 6.86314 15.0114 8.091 15.0114C9.01125 15.0114 9.8032 14.4718 10.138 13.7036C12.4034 12.9142 14.0212 10.8256 14.0212 8.37498C14.0212 8.24922 14.0162 8.12517 14.0076 8.00195L12.2742 8.55341ZM6.22838 5.58106C6.22838 4.4008 5.2342 3.44316 4.00634 3.44316C2.78017 3.44402 1.78516 4.4008 1.78516 5.58106C1.78516 6.15548 2.02138 6.67722 2.40461 7.06214C2.30011 7.48361 2.24572 7.92206 2.24572 8.37411C2.24572 10.4067 3.35802 12.1902 5.02858 13.1895L5.47298 11.434C4.56547 10.7015 3.98766 9.60367 3.98766 8.37498C3.98766 8.15152 4.00636 7.93228 4.04373 7.71984C5.25459 7.69944 6.22838 6.75028 6.22838 5.58106ZM8.13431 4.3872C8.90247 4.3872 9.62049 4.58773 10.2383 4.93867C10.1405 5.17914 10.0887 5.44 10.0887 5.71277C10.0887 6.89389 11.0829 7.85069 12.309 7.85069C13.5352 7.85069 14.5311 6.89303 14.5311 5.71277C14.5311 4.5325 13.5352 3.57484 12.309 3.57484C12.0218 3.57484 11.7465 3.62753 11.4958 3.7227C10.5416 3.0837 9.38513 2.70898 8.13431 2.70898C7.288 2.70898 6.4833 2.88148 5.75594 3.19078L6.77136 4.60728C7.19791 4.46452 7.65677 4.3872 8.13431 4.3872ZM12.2742 8.55341C12.2079 10.0064 11.3318 11.2581 10.07 11.9013C9.70292 11.2088 8.95431 10.7347 8.091 10.7347C6.86314 10.7347 5.86895 11.6923 5.86895 12.8726C5.86895 14.0529 6.86314 15.0114 8.091 15.0114C9.01125 15.0114 9.8032 14.4718 10.138 13.7036C12.4034 12.9142 14.0212 10.8256 14.0212 8.37498C14.0212 8.24922 14.0162 8.12517 14.0076 8.00195L12.2742 8.55341ZM6.22838 5.58106C6.22838 4.4008 5.2342 3.44316 4.00634 3.44316C2.78017 3.44402 1.78516 4.4008 1.78516 5.58106C1.78516 6.15548 2.02138 6.67722 2.40461 7.06214C2.30011 7.48361 2.24572 7.92206 2.24572 8.37411C2.24572 10.4067 3.35802 12.1902 5.02858 13.1895L5.47298 11.434C4.56547 10.7015 3.98766 9.60367 3.98766 8.37498C3.98766 8.15152 4.00636 7.93228 4.04373 7.71984C5.25459 7.69944 6.22838 6.75028 6.22838 5.58106ZM8.13431 4.3872C8.90247 4.3872 9.62049 4.58773 10.2383 4.93867C10.1405 5.17914 10.0887 5.44 10.0887 5.71277C10.0887 6.89389 11.0829 7.85069 12.309 7.85069C13.5352 7.85069 14.5311 6.89303 14.5311 5.71277C14.5311 4.5325 13.5352 3.57484 12.309 3.57484C12.0218 3.57484 11.7465 3.62753 11.4958 3.7227C10.5416 3.0837 9.38513 2.70898 8.13431 2.70898C7.288 2.70898 6.4833 2.88148 5.75594 3.19078L6.77136 4.60728C7.19791 4.46452 7.65677 4.3872 8.13431 4.3872ZM12.2742 8.55341C12.2079 10.0064 11.3318 11.2581 10.07 11.9013C9.70292 11.2088 8.95431 10.7347 8.091 10.7347C6.86314 10.7347 5.86895 11.6923 5.86895 12.8726C5.86895 14.0529 6.86314 15.0114 8.091 15.0114C9.01125 15.0114 9.8032 14.4718 10.138 13.7036C12.4034 12.9142 14.0212 10.8256 14.0212 8.37498C14.0212 8.24922 14.0162 8.12517 14.0076 8.00195L12.2742 8.55341Z" fill="white"/>
</svg>
