<svg width="33" height="33" viewBox="0 0 33 33" fill="none" xmlns="http://www.w3.org/2000/svg">
<rect x="3.42041" y="6.90625" width="26" height="20" fill="#FBE5C3"/>
<path d="M29.5454 3.90625H3.29541C3.06335 3.90625 2.84079 4.00032 2.67669 4.16776C2.5126 4.33521 2.42041 4.56231 2.42041 4.79911V28.0134C2.42041 28.2502 2.5126 28.4773 2.67669 28.6447C2.84079 28.8122 3.06335 28.9062 3.29541 28.9062H29.5454C29.7775 28.9062 30 28.8122 30.1641 28.6447C30.3282 28.4773 30.4204 28.2502 30.4204 28.0134V4.79911C30.4204 4.56231 30.3282 4.33521 30.1641 4.16776C30 4.00032 29.7775 3.90625 29.5454 3.90625V3.90625ZM24.7679 23.5491C24.3997 23.5439 24.0425 23.4202 23.7471 23.1958C23.4518 22.9714 23.2333 22.6576 23.1229 22.2991H8.42291C8.19085 22.2991 7.96829 22.205 7.80419 22.0376C7.6401 21.8702 7.54791 21.643 7.54791 21.4062V12.8348C7.24284 12.7365 6.97002 12.5548 6.75908 12.3094C6.54815 12.0639 6.40718 11.7642 6.3515 11.4428C6.29583 11.1213 6.32757 10.7904 6.44327 10.4861C6.55898 10.1817 6.75423 9.9156 7.0078 9.71656C7.26137 9.51753 7.56355 9.39323 7.88151 9.35718C8.19946 9.32112 8.52101 9.37469 8.81122 9.51206C9.10142 9.64943 9.34917 9.86534 9.52754 10.1363C9.70591 10.4073 9.80807 10.723 9.82291 11.0491C9.81777 11.4248 9.6966 11.7893 9.47666 12.0907C9.25671 12.3921 8.94921 12.615 8.59791 12.7277V20.2991C8.59791 20.5359 8.6901 20.763 8.85419 20.9305C9.01829 21.0979 9.24085 21.192 9.47291 21.192H23.1229C23.2203 20.8761 23.4018 20.5941 23.6471 20.3775C23.8925 20.1609 24.1921 20.0181 24.5124 19.9651C24.8327 19.9122 25.1611 19.9511 25.4609 20.0776C25.7608 20.2041 26.0202 20.4132 26.2104 20.6815C26.4005 20.9498 26.5138 21.2668 26.5375 21.597C26.5613 21.9272 26.4947 22.2576 26.345 22.5514C26.1954 22.8452 25.9687 23.0907 25.6902 23.2606C25.4116 23.4305 25.0923 23.518 24.7679 23.5134V23.5491ZM26.5179 13.942C26.5179 14.0592 26.4953 14.1753 26.4513 14.2836C26.4073 14.392 26.3429 14.4904 26.2616 14.5733C26.1804 14.6562 26.0839 14.722 25.9778 14.7669C25.8716 14.8117 25.7578 14.8348 25.6429 14.8348H14.7754C14.5447 14.8302 14.3248 14.7347 14.1616 14.5683C13.9985 14.4018 13.9049 14.1773 13.9004 13.942V10.3705C13.9049 10.1352 13.9985 9.91071 14.1616 9.74425C14.3248 9.57779 14.5447 9.48225 14.7754 9.47768H25.6429C25.875 9.47768 26.0975 9.57175 26.2616 9.73919C26.4257 9.90663 26.5179 10.1337 26.5179 10.3705V13.942Z" fill="#E2B578"/>
<rect x="13.4204" y="9.40625" width="14" height="6" rx="1" fill="#65533D"/>
</svg>
