<svg width="24" height="24" viewBox="0 0 24 24" fill="none" xmlns="http://www.w3.org/2000/svg">
<path d="M12.1228 2.00977C6.68319 2.00977 2.25879 6.43537 2.25879 11.8738C2.25879 17.3134 6.68439 21.7378 12.1228 21.7378C17.5612 21.7378 21.9868 17.3122 21.9868 11.8738C21.9868 6.43537 17.5612 2.00977 12.1228 2.00977V2.00977ZM12.1228 20.779C7.21239 20.779 3.21879 16.7842 3.21879 11.875C3.21879 6.96457 7.21359 2.97097 12.1228 2.97097C17.0332 2.97097 21.0268 6.96577 21.0268 11.875C21.0268 16.7842 17.032 20.779 12.1228 20.779Z" fill="black"/>
<path d="M12.2007 5.56152C8.68231 5.56152 5.82031 8.42352 5.82031 11.9419C5.82031 15.4603 8.68231 18.3223 12.2007 18.3223C15.7191 18.3223 18.5811 15.4603 18.5811 11.9419C18.5811 8.42352 15.7191 5.56152 12.2007 5.56152V5.56152ZM6.83071 11.2123C7.71751 10.8331 8.69551 11.3335 8.70871 11.5027C8.72911 11.7619 8.52991 12.4183 9.88351 12.9763C11.2371 13.5343 10.5999 11.6227 10.2819 10.7659C9.96391 9.90912 10.6995 9.47112 11.1375 9.29232C11.5755 9.11352 12.5907 9.09312 12.5307 7.99752C12.5007 7.44552 11.3151 7.11672 10.1439 6.92592C10.7959 6.65733 11.4944 6.51952 12.1995 6.52032C13.4007 6.52032 14.5119 6.91392 15.4119 7.57872C14.9019 8.20152 14.1819 9.09312 13.9659 9.42432C13.6299 9.93912 13.4115 10.5919 14.4603 10.3939C15.5091 10.1959 15.9039 10.0975 16.0623 10.2955C16.2207 10.4935 16.5567 11.2051 16.5375 11.3635C16.5183 11.5219 16.4787 11.6203 15.8847 11.6203C15.2907 11.6203 13.1355 11.6791 13.1547 12.9451C13.1739 14.2111 13.8471 14.6071 14.2827 14.9623C14.7183 15.3187 15.1131 15.4771 14.7375 16.3663C14.6811 16.5007 14.6259 16.6519 14.5743 16.8127C13.8351 17.1748 13.0226 17.3624 12.1995 17.3611C9.21031 17.3611 6.77911 14.9299 6.77911 11.9407C6.78031 11.6947 6.79831 11.4511 6.83071 11.2123V11.2123Z" fill="black"/>
</svg>
