<svg width="21" height="21" viewBox="0 0 21 21" fill="none" xmlns="http://www.w3.org/2000/svg">
<path d="M2.72041 10.9062C2.55473 10.9062 2.41982 11.0406 2.42603 11.2062C2.48144 12.6834 2.94524 14.1185 3.76865 15.3508C4.6477 16.6664 5.89713 17.6918 7.35894 18.2973C8.82075 18.9028 10.4293 19.0612 11.9811 18.7525C13.533 18.4439 14.9584 17.6819 16.0773 16.5631C17.1961 15.4443 17.958 14.0188 18.2667 12.467C18.5754 10.9151 18.4169 9.30659 17.8114 7.84478C17.2059 6.38297 16.1806 5.13354 14.865 4.25449C13.6326 3.43108 12.1975 2.96728 10.7203 2.91187C10.5548 2.90566 10.4204 3.04056 10.4204 3.20625L10.4204 7.5725C10.4204 7.73819 10.5551 7.87097 10.7199 7.88732C11.2141 7.93635 11.6904 8.10617 12.1059 8.38378C12.6048 8.71714 12.9936 9.19094 13.2232 9.74529C13.4528 10.2996 13.5129 10.9096 13.3959 11.4981C13.2788 12.0866 12.9899 12.6272 12.5656 13.0514C12.1413 13.4757 11.6008 13.7646 11.0123 13.8817C10.4238 13.9988 9.81379 13.9387 9.25945 13.7091C8.7051 13.4794 8.2313 13.0906 7.89794 12.5917C7.62033 12.1762 7.45051 11.7 7.40148 11.2058C7.38513 11.0409 7.25235 10.9062 7.08666 10.9062H2.72041Z" fill="#D64FEC"/>
<path d="M9.29736 3.20625C9.29736 3.04056 9.16298 2.90557 8.99745 2.91279C8.19676 2.94774 7.40753 3.12244 6.66567 3.42973C5.83132 3.77533 5.07321 4.28188 4.43462 4.92046C3.79604 5.55905 3.28949 6.31716 2.94389 7.15151C2.63659 7.89338 2.4619 8.6826 2.42695 9.48329C2.41973 9.64882 2.55472 9.7832 2.72041 9.7832L7.21789 9.7832C7.38358 9.7832 7.51532 9.64796 7.54312 9.48462C7.5654 9.35374 7.6023 9.22546 7.65335 9.10223C7.74277 8.88633 7.87385 8.69017 8.03909 8.52493C8.20433 8.35969 8.40049 8.22861 8.61639 8.13919C8.73962 8.08814 8.8679 8.05124 8.99878 8.02896C9.16212 8.00116 9.29736 7.86942 9.29736 7.70373V3.20625Z" fill="#D64FEC"/>
</svg>
