<svg width="21" height="21" viewBox="0 0 21 21" fill="none" xmlns="http://www.w3.org/2000/svg">
<path d="M11.5036 13.2967V17.8801C11.5036 17.9348 11.4928 17.9889 11.4719 18.0395C11.4509 18.0901 11.4202 18.136 11.3815 18.1747C11.3429 18.2134 11.2969 18.2441 11.2464 18.265C11.1958 18.2859 11.1416 18.2967 11.0869 18.2967H10.2536C10.1989 18.2967 10.1447 18.2859 10.0941 18.265C10.0436 18.2441 9.99764 18.2134 9.95895 18.1747C9.92026 18.136 9.88957 18.0901 9.86863 18.0395C9.84769 17.9889 9.83691 17.9348 9.83691 17.8801V13.2967H8.50358C8.47263 13.2967 8.44229 13.2881 8.41596 13.2718C8.38963 13.2556 8.36835 13.2323 8.35451 13.2046C8.34067 13.1769 8.33481 13.1459 8.33759 13.1151C8.34037 13.0843 8.35168 13.0548 8.37025 13.0301L10.5369 10.1409C10.5524 10.1202 10.5726 10.1034 10.5957 10.0918C10.6189 10.0802 10.6444 10.0742 10.6702 10.0742C10.6961 10.0742 10.7216 10.0802 10.7448 10.0918C10.7679 10.1034 10.7881 10.1202 10.8036 10.1409L12.9702 13.0301C12.9888 13.0548 13.0001 13.0843 13.0029 13.1151C13.0057 13.1459 12.9998 13.1769 12.986 13.2046C12.9721 13.2323 12.9509 13.2556 12.9245 13.2718C12.8982 13.2881 12.8679 13.2967 12.8369 13.2967H11.5036Z" fill="white"/>
<path d="M15.4205 15.0725C16.0183 15.0736 16.5966 14.8605 17.0508 14.4719C17.5049 14.0832 17.8047 13.5447 17.8959 12.954C17.9871 12.3632 17.8637 11.7594 17.5479 11.2518C17.2321 10.7443 16.7449 10.3667 16.1747 10.1875L15.3964 9.94169L15.113 9.17502C14.7588 8.21562 14.1191 7.38781 13.28 6.80314C12.4409 6.21847 11.4428 5.90502 10.4201 5.90502C9.39742 5.90502 8.39929 6.21847 7.5602 6.80314C6.72112 7.38781 6.08139 8.21562 5.7272 9.17502L5.4447 9.94169L4.66637 10.1875C4.09829 10.3687 3.61362 10.7469 3.2997 11.2539C2.98579 11.7608 2.86329 12.3633 2.95427 12.9526C3.04525 13.5419 3.34373 14.0793 3.79591 14.468C4.2481 14.8567 4.82425 15.0711 5.42053 15.0725C5.64155 15.0725 5.85351 15.1603 6.00979 15.3166C6.16607 15.4729 6.25387 15.6848 6.25387 15.9059C6.25387 16.1269 6.16607 16.3388 6.00979 16.4951C5.85351 16.6514 5.64155 16.7392 5.42053 16.7392C4.42479 16.7403 3.46156 16.3849 2.70529 15.7371C1.94902 15.0894 1.44972 14.1923 1.29781 13.2082C1.1459 12.2241 1.35143 11.2182 1.87718 10.3725C2.40293 9.5269 3.21413 8.89752 4.16387 8.59836C4.63597 7.31915 5.48883 6.2154 6.60752 5.43582C7.72622 4.65623 9.057 4.23828 10.4205 4.23828C11.7841 4.23828 13.1148 4.65623 14.2335 5.43582C15.3522 6.2154 16.2051 7.31915 16.6772 8.59836C17.6248 8.89953 18.4335 9.5295 18.9574 10.3746C19.4812 11.2196 19.6858 12.2241 19.5341 13.2068C19.3824 14.1894 18.8845 15.0855 18.1302 15.7332C17.3758 16.381 16.4148 16.7378 15.4205 16.7392C15.1995 16.7392 14.9876 16.6514 14.8313 16.4951C14.675 16.3388 14.5872 16.1269 14.5872 15.9059C14.5872 15.6848 14.675 15.4729 14.8313 15.3166C14.9876 15.1603 15.1995 15.0725 15.4205 15.0725Z" fill="white"/>
</svg>
