<svg width="21" height="21" viewBox="0 0 21 21" fill="none" xmlns="http://www.w3.org/2000/svg">
<circle cx="10.4204" cy="10.9062" r="5" fill="white"/>
<path fill-rule="evenodd" clip-rule="evenodd" d="M10.4204 18.9062C14.8387 18.9062 18.4204 15.3245 18.4204 10.9062C18.4204 6.48797 14.8387 2.90625 10.4204 2.90625C6.00213 2.90625 2.42041 6.48797 2.42041 10.9062C2.42041 15.3245 6.00213 18.9062 10.4204 18.9062ZM13.9507 9.43658C14.2436 9.14369 14.2436 8.66881 13.9507 8.37592C13.6578 8.08303 13.183 8.08303 12.8901 8.37592L9.42041 11.8456L7.95074 10.3759C7.65785 10.083 7.18297 10.083 6.89008 10.3759C6.59719 10.6688 6.59719 11.1437 6.89008 11.4366L8.53653 13.083C9.02468 13.5712 9.81614 13.5712 10.3043 13.083L13.9507 9.43658Z" fill="#56F166"/>
</svg>
