<?xml version="1.0" standalone="no"?><!DOCTYPE svg PUBLIC "-//W3C//DTD SVG 1.1//EN" "http://www.w3.org/Graphics/SVG/1.1/DTD/svg11.dtd"><svg t="1669454098529" class="icon" viewBox="0 0 1024 1024" version="1.1" xmlns="http://www.w3.org/2000/svg" p-id="8022" xmlns:xlink="http://www.w3.org/1999/xlink" width="200" height="200"><path d="M489.888365 289.944197c12.352854-12.349205 32.293055-12.429481 44.547387-0.176365l402.617159 402.618375c12.253116 12.253116 12.17284 32.193317-0.180014 44.542522l0 0c-12.347988 12.352854-32.294271 12.43313-44.542522 0.180014l-402.623241-402.617159C477.458884 322.237252 477.53916 302.297051 489.888365 289.944197L489.888365 289.944197 489.888365 289.944197zM489.888365 289.944197" p-id="8023" fill="#151210"></path><path d="M87.127681 735.916759c-12.352854-12.349205-12.434347-32.294271-0.18123-44.542522l402.618375-402.618375c12.253116-12.253116 32.194534-12.17284 44.547387 0.176365l0 0c12.347988 12.352854 12.429481 32.293055 0.176365 44.547387L131.670204 736.096773C119.417087 748.345024 99.47567 748.269612 87.127681 735.916759L87.127681 735.916759 87.127681 735.916759zM87.127681 735.916759" p-id="8024" fill="#151210"></path></svg>