<svg width="21" height="21" viewBox="0 0 21 21" fill="none" xmlns="http://www.w3.org/2000/svg">
<g clip-path="url(#clip0_1476_21719)">
<path d="M2.89843 7.28994C2.48299 7.11786 2.48815 6.5276 2.90653 6.36279L10.1367 3.51485C10.2544 3.46846 10.3854 3.46846 10.5032 3.51485L17.7333 6.36279C18.1517 6.5276 18.1568 7.11786 17.7414 7.28994L10.5112 10.2848C10.3887 10.3356 10.2511 10.3356 10.1286 10.2848L2.89843 7.28994Z" stroke="black"/>
<path d="M2.89843 11.2899C2.48299 11.1179 2.48815 10.5276 2.90654 10.3628L5.5534 9.32019L6.41493 8.98084C6.5355 8.93334 6.6698 8.93452 6.78952 8.98411L9.74587 10.2087C10.1134 10.3609 10.5264 10.3609 10.8939 10.2087L13.8503 8.98411C13.97 8.93452 14.1043 8.93334 14.2249 8.98084L15.0864 9.32019L17.7333 10.3628C18.1517 10.5276 18.1568 11.1179 17.7414 11.2899L10.5112 14.2848C10.3887 14.3356 10.2511 14.3356 10.1286 14.2848L2.89843 11.2899Z" stroke="black"/>
<path d="M2.89843 15.2899C2.48299 15.1179 2.48815 14.5276 2.90654 14.3628L5.5534 13.3202L6.41493 12.9808C6.5355 12.9333 6.6698 12.9345 6.78952 12.9841L9.74587 14.2087C10.1134 14.3609 10.5264 14.3609 10.8939 14.2087L13.8503 12.9841C13.97 12.9345 14.1043 12.9333 14.2249 12.9808L15.0864 13.3202L17.7333 14.3628C18.1517 14.5276 18.1568 15.1179 17.7414 15.2899L10.5112 18.2848C10.3887 18.3356 10.2511 18.3356 10.1286 18.2848L2.89843 15.2899Z" stroke="black"/>
</g>
<defs>
<clipPath id="clip0_1476_21719">
<rect width="20" height="20" fill="white" transform="translate(0.42041 0.90625)"/>
</clipPath>
</defs>
</svg>
