<svg width="20" height="20" viewBox="0 0 20 20" fill="none" xmlns="http://www.w3.org/2000/svg">
<path d="M5.35986 13.207L4.33838 14.2285C4.15088 14.416 4.15088 14.7227 4.33838 14.9102C4.52588 15.0977 4.83252 15.0977 5.02002 14.9102L6.0415 13.8887C6.229 13.7012 6.229 13.3945 6.0415 13.207C5.854 13.0195 5.54736 13.0195 5.35986 13.207ZM5.06689 5.92773C5.25635 6.11719 5.56494 6.11719 5.75439 5.92773C5.94385 5.73828 5.94385 5.42969 5.75439 5.24023L4.72314 4.20898C4.53369 4.01953 4.2251 4.01953 4.03564 4.20898C3.84619 4.39844 3.84619 4.70703 4.03564 4.89648L5.06689 5.92773ZM3.70166 9.22461H2.24268C1.97314 9.22461 1.75635 9.44141 1.75635 9.71094C1.75635 9.98047 1.9751 10.1973 2.24268 10.1973H3.70166C3.97119 10.1973 4.18799 9.98047 4.18799 9.71094C4.18799 9.44336 3.96924 9.22461 3.70166 9.22461V9.22461ZM9.5376 4.36133C9.80713 4.36133 10.0239 4.14453 10.0239 3.875V2.41602C10.0239 2.14648 9.80713 1.92969 9.5376 1.92969C9.26807 1.92969 9.05127 2.14648 9.05127 2.41602V3.875C9.05127 4.14453 9.27002 4.36133 9.5376 4.36133V4.36133ZM14.2173 5.71289L15.2388 4.69141C15.4263 4.50391 15.4263 4.19727 15.2388 4.00977C15.0513 3.82227 14.7446 3.82227 14.5571 4.00977L13.5356 5.03125C13.3481 5.21875 13.3481 5.52539 13.5356 5.71289C13.7231 5.90234 14.0298 5.90234 14.2173 5.71289V5.71289ZM16.8325 9.22461H15.3735C15.104 9.22461 14.8872 9.44141 14.8872 9.71094C14.8872 9.98047 15.104 10.1973 15.3735 10.1973H16.8325C17.1021 10.1973 17.3188 9.98047 17.3188 9.71094C17.3188 9.44336 17.1021 9.22461 16.8325 9.22461ZM14.0083 13.4941C13.8188 13.3047 13.5103 13.3047 13.3208 13.4941C13.1313 13.6836 13.1313 13.9922 13.3208 14.1816L14.3521 15.2129C14.5415 15.4023 14.8501 15.4023 15.0396 15.2129C15.229 15.0234 15.229 14.7148 15.0396 14.5254L14.0083 13.4941ZM9.5376 5.33203C7.11768 5.33203 5.15674 7.29297 5.15674 9.71289C5.15674 12.1328 7.11768 14.0937 9.5376 14.0937C11.9575 14.0937 13.9185 12.1328 13.9185 9.71289C13.9185 7.29297 11.9575 5.33203 9.5376 5.33203ZM9.5376 15.0605C9.26807 15.0605 9.05127 15.2773 9.05127 15.5469V17.0059C9.05127 17.2754 9.26807 17.4922 9.5376 17.4922C9.80713 17.4922 10.0239 17.2754 10.0239 17.0059V15.5469C10.0239 15.2793 9.80713 15.0605 9.5376 15.0605Z" fill="#E2B578"/>
</svg>
