<svg width="16" height="17" viewBox="0 0 16 17" fill="none" xmlns="http://www.w3.org/2000/svg">
<path d="M3.85986 12.207L2.83838 13.2285C2.65088 13.416 2.65088 13.7227 2.83838 13.9102C3.02588 14.0977 3.33252 14.0977 3.52002 13.9102L4.5415 12.8887C4.729 12.7012 4.729 12.3945 4.5415 12.207C4.354 12.0195 4.04736 12.0195 3.85986 12.207ZM3.56689 4.92773C3.75635 5.11719 4.06494 5.11719 4.25439 4.92773C4.44385 4.73828 4.44385 4.42969 4.25439 4.24023L3.22314 3.20898C3.03369 3.01953 2.7251 3.01953 2.53564 3.20898C2.34619 3.39844 2.34619 3.70703 2.53564 3.89648L3.56689 4.92773ZM2.20166 8.22461H0.742676C0.473145 8.22461 0.256348 8.44141 0.256348 8.71094C0.256348 8.98047 0.475098 9.19727 0.742676 9.19727H2.20166C2.47119 9.19727 2.68799 8.98047 2.68799 8.71094C2.68799 8.44336 2.46924 8.22461 2.20166 8.22461ZM8.0376 3.36133C8.30713 3.36133 8.52393 3.14453 8.52393 2.875V1.41602C8.52393 1.14648 8.30713 0.929688 8.0376 0.929688C7.76807 0.929688 7.55127 1.14648 7.55127 1.41602V2.875C7.55127 3.14453 7.77002 3.36133 8.0376 3.36133ZM12.7173 4.71289L13.7388 3.69141C13.9263 3.50391 13.9263 3.19727 13.7388 3.00977C13.5513 2.82227 13.2446 2.82227 13.0571 3.00977L12.0356 4.03125C11.8481 4.21875 11.8481 4.52539 12.0356 4.71289C12.2231 4.90234 12.5298 4.90234 12.7173 4.71289ZM15.3325 8.22461H13.8735C13.604 8.22461 13.3872 8.44141 13.3872 8.71094C13.3872 8.98047 13.604 9.19727 13.8735 9.19727H15.3325C15.602 9.19727 15.8188 8.98047 15.8188 8.71094C15.8188 8.44336 15.602 8.22461 15.3325 8.22461ZM12.5083 12.4941C12.3188 12.3047 12.0103 12.3047 11.8208 12.4941C11.6313 12.6836 11.6313 12.9922 11.8208 13.1816L12.852 14.2129C13.0415 14.4023 13.3501 14.4023 13.5396 14.2129C13.729 14.0234 13.729 13.7148 13.5396 13.5254L12.5083 12.4941ZM8.0376 4.33203C5.61767 4.33203 3.65674 6.29297 3.65674 8.71289C3.65674 11.1328 5.61767 13.0938 8.0376 13.0938C10.4575 13.0938 12.4185 11.1328 12.4185 8.71289C12.4185 6.29297 10.4575 4.33203 8.0376 4.33203ZM8.0376 14.0605C7.76807 14.0605 7.55127 14.2773 7.55127 14.5469V16.0059C7.55127 16.2754 7.76807 16.4922 8.0376 16.4922C8.30713 16.4922 8.52393 16.2754 8.52393 16.0059V14.5469C8.52393 14.2793 8.30713 14.0605 8.0376 14.0605Z" fill="white"/>
</svg>
