<svg width="20" height="21" viewBox="0 0 20 21" fill="none" xmlns="http://www.w3.org/2000/svg">
<path d="M5.35986 13.3008L4.33838 14.3223C4.15088 14.5098 4.15088 14.8164 4.33838 15.0039C4.52588 15.1914 4.83252 15.1914 5.02002 15.0039L6.0415 13.9824C6.229 13.7949 6.229 13.4883 6.0415 13.3008C5.854 13.1133 5.54736 13.1133 5.35986 13.3008ZM5.06689 6.02148C5.25635 6.21094 5.56494 6.21094 5.75439 6.02148C5.94385 5.83203 5.94385 5.52344 5.75439 5.33398L4.72314 4.30273C4.53369 4.11328 4.2251 4.11328 4.03564 4.30273C3.84619 4.49219 3.84619 4.80078 4.03564 4.99023L5.06689 6.02148ZM3.70166 9.31836H2.24268C1.97314 9.31836 1.75635 9.53516 1.75635 9.80469C1.75635 10.0742 1.9751 10.291 2.24268 10.291H3.70166C3.97119 10.291 4.18799 10.0742 4.18799 9.80469C4.18799 9.53711 3.96924 9.31836 3.70166 9.31836V9.31836ZM9.5376 4.45508C9.80713 4.45508 10.0239 4.23828 10.0239 3.96875V2.50977C10.0239 2.24023 9.80713 2.02344 9.5376 2.02344C9.26807 2.02344 9.05127 2.24023 9.05127 2.50977V3.96875C9.05127 4.23828 9.27002 4.45508 9.5376 4.45508V4.45508ZM14.2173 5.80664L15.2388 4.78516C15.4263 4.59766 15.4263 4.29102 15.2388 4.10352C15.0513 3.91602 14.7446 3.91602 14.5571 4.10352L13.5356 5.125C13.3481 5.3125 13.3481 5.61914 13.5356 5.80664C13.7231 5.99609 14.0298 5.99609 14.2173 5.80664V5.80664ZM16.8325 9.31836H15.3735C15.104 9.31836 14.8872 9.53516 14.8872 9.80469C14.8872 10.0742 15.104 10.291 15.3735 10.291H16.8325C17.1021 10.291 17.3188 10.0742 17.3188 9.80469C17.3188 9.53711 17.1021 9.31836 16.8325 9.31836ZM14.0083 13.5879C13.8188 13.3984 13.5103 13.3984 13.3208 13.5879C13.1313 13.7773 13.1313 14.0859 13.3208 14.2754L14.3521 15.3066C14.5415 15.4961 14.8501 15.4961 15.0396 15.3066C15.229 15.1172 15.229 14.8086 15.0396 14.6191L14.0083 13.5879ZM9.5376 5.42578C7.11768 5.42578 5.15674 7.38672 5.15674 9.80664C5.15674 12.2266 7.11768 14.1875 9.5376 14.1875C11.9575 14.1875 13.9185 12.2266 13.9185 9.80664C13.9185 7.38672 11.9575 5.42578 9.5376 5.42578ZM9.5376 15.1543C9.26807 15.1543 9.05127 15.3711 9.05127 15.6406V17.0996C9.05127 17.3691 9.26807 17.5859 9.5376 17.5859C9.80713 17.5859 10.0239 17.3691 10.0239 17.0996V15.6406C10.0239 15.373 9.80713 15.1543 9.5376 15.1543Z" fill="white"/>
</svg>
