<svg width="17" height="17" viewBox="0 0 17 17" fill="none" xmlns="http://www.w3.org/2000/svg">
<path d="M4.35986 12.207L3.33838 13.2285C3.15088 13.416 3.15088 13.7227 3.33838 13.9102C3.52588 14.0977 3.83252 14.0977 4.02002 13.9102L5.0415 12.8887C5.229 12.7012 5.229 12.3945 5.0415 12.207C4.854 12.0195 4.54736 12.0195 4.35986 12.207ZM4.06689 4.92773C4.25635 5.11719 4.56494 5.11719 4.75439 4.92773C4.94385 4.73828 4.94385 4.42969 4.75439 4.24023L3.72314 3.20898C3.53369 3.01953 3.2251 3.01953 3.03564 3.20898C2.84619 3.39844 2.84619 3.70703 3.03564 3.89648L4.06689 4.92773ZM2.70166 8.22461H1.24268C0.973145 8.22461 0.756348 8.44141 0.756348 8.71094C0.756348 8.98047 0.975098 9.19727 1.24268 9.19727H2.70166C2.97119 9.19727 3.18799 8.98047 3.18799 8.71094C3.18799 8.44336 2.96924 8.22461 2.70166 8.22461ZM8.5376 3.36133C8.80713 3.36133 9.02393 3.14453 9.02393 2.875V1.41602C9.02393 1.14648 8.80713 0.929688 8.5376 0.929688C8.26807 0.929688 8.05127 1.14648 8.05127 1.41602V2.875C8.05127 3.14453 8.27002 3.36133 8.5376 3.36133ZM13.2173 4.71289L14.2388 3.69141C14.4263 3.50391 14.4263 3.19727 14.2388 3.00977C14.0513 2.82227 13.7446 2.82227 13.5571 3.00977L12.5356 4.03125C12.3481 4.21875 12.3481 4.52539 12.5356 4.71289C12.7231 4.90234 13.0298 4.90234 13.2173 4.71289ZM15.8325 8.22461H14.3735C14.104 8.22461 13.8872 8.44141 13.8872 8.71094C13.8872 8.98047 14.104 9.19727 14.3735 9.19727H15.8325C16.102 9.19727 16.3188 8.98047 16.3188 8.71094C16.3188 8.44336 16.102 8.22461 15.8325 8.22461ZM13.0083 12.4941C12.8188 12.3047 12.5103 12.3047 12.3208 12.4941C12.1313 12.6836 12.1313 12.9922 12.3208 13.1816L13.352 14.2129C13.5415 14.4023 13.8501 14.4023 14.0396 14.2129C14.229 14.0234 14.229 13.7148 14.0396 13.5254L13.0083 12.4941ZM8.5376 4.33203C6.11767 4.33203 4.15674 6.29297 4.15674 8.71289C4.15674 11.1328 6.11767 13.0938 8.5376 13.0938C10.9575 13.0938 12.9185 11.1328 12.9185 8.71289C12.9185 6.29297 10.9575 4.33203 8.5376 4.33203ZM8.5376 14.0605C8.26807 14.0605 8.05127 14.2773 8.05127 14.5469V16.0059C8.05127 16.2754 8.26807 16.4922 8.5376 16.4922C8.80713 16.4922 9.02393 16.2754 9.02393 16.0059V14.5469C9.02393 14.2793 8.80713 14.0605 8.5376 14.0605Z" fill="#8A8A8A"/>
</svg>
