<svg width="16" height="16" viewBox="0 0 16 16" fill="none" xmlns="http://www.w3.org/2000/svg">
<path d="M3.78076 11.6133L2.75928 12.6348C2.57178 12.8223 2.57178 13.1289 2.75928 13.3164C2.94678 13.5039 3.25342 13.5039 3.44092 13.3164L4.4624 12.2949C4.6499 12.1074 4.6499 11.8008 4.4624 11.6133C4.2749 11.4258 3.96826 11.4258 3.78076 11.6133ZM3.48779 4.33398C3.67725 4.52344 3.98584 4.52344 4.17529 4.33398C4.36475 4.14453 4.36475 3.83594 4.17529 3.64648L3.14404 2.61523C2.95459 2.42578 2.646 2.42578 2.45654 2.61523C2.26709 2.80469 2.26709 3.11328 2.45654 3.30273L3.48779 4.33398ZM2.12256 7.63086H0.663574C0.394043 7.63086 0.177246 7.84766 0.177246 8.11719C0.177246 8.38672 0.395996 8.60352 0.663574 8.60352H2.12256C2.39209 8.60352 2.60889 8.38672 2.60889 8.11719C2.60889 7.84961 2.39014 7.63086 2.12256 7.63086V7.63086ZM7.9585 2.76758C8.22803 2.76758 8.44482 2.55078 8.44482 2.28125V0.822266C8.44482 0.552734 8.22803 0.335938 7.9585 0.335938C7.68896 0.335938 7.47217 0.552734 7.47217 0.822266V2.28125C7.47217 2.55078 7.69092 2.76758 7.9585 2.76758V2.76758ZM12.6382 4.11914L13.6597 3.09766C13.8472 2.91016 13.8472 2.60352 13.6597 2.41602C13.4722 2.22852 13.1655 2.22852 12.978 2.41602L11.9565 3.4375C11.769 3.625 11.769 3.93164 11.9565 4.11914C12.144 4.30859 12.4507 4.30859 12.6382 4.11914V4.11914ZM15.2534 7.63086H13.7944C13.5249 7.63086 13.3081 7.84766 13.3081 8.11719C13.3081 8.38672 13.5249 8.60352 13.7944 8.60352H15.2534C15.5229 8.60352 15.7397 8.38672 15.7397 8.11719C15.7397 7.84961 15.5229 7.63086 15.2534 7.63086ZM12.4292 11.9004C12.2397 11.7109 11.9312 11.7109 11.7417 11.9004C11.5522 12.0898 11.5522 12.3984 11.7417 12.5879L12.7729 13.6191C12.9624 13.8086 13.271 13.8086 13.4604 13.6191C13.6499 13.4297 13.6499 13.1211 13.4604 12.9316L12.4292 11.9004ZM7.9585 3.73828C5.53857 3.73828 3.57764 5.69922 3.57764 8.11914C3.57764 10.5391 5.53857 12.5 7.9585 12.5C10.3784 12.5 12.3394 10.5391 12.3394 8.11914C12.3394 5.69922 10.3784 3.73828 7.9585 3.73828ZM7.9585 13.4668C7.68896 13.4668 7.47217 13.6836 7.47217 13.9531V15.4121C7.47217 15.6816 7.68896 15.8984 7.9585 15.8984C8.22803 15.8984 8.44482 15.6816 8.44482 15.4121V13.9531C8.44482 13.6855 8.22803 13.4668 7.9585 13.4668Z" fill="#E2B578"/>
</svg>
